<?xml version="1.0" standalone="no"?>
<!DOCTYPE svg PUBLIC "-//W3C//DTD SVG 1.1//EN" "http://www.w3.org/Graphics/SVG/1.1/DTD/svg11.dtd" >
<svg>
<metadata>
Created by FontForge 20090622 at Tue Feb 20 16:41:31 2018
 By deploy user
Copyright &#194;&#169; 2011 NII Holdings, Inc. All rights reserved.  Derechos Reservados &#194;&#169; 2011 NII Holdings, Inc. EUA.  &#194;&#169; 2011 NII Holdings, Inc. Todos los Derechos Reservados
</metadata>
<defs>
<font id="NIISans" horiz-adv-x="1188" >
  <font-face 
    font-family="NII Sans"
    font-weight="400"
    font-stretch="normal"
    units-per-em="2048"
    panose-1="2 0 0 0 0 0 0 0 0 0"
    ascent="1638"
    descent="-410"
    x-height="1030"
    cap-height="1434"
    bbox="-401 -457 2583 2005"
    underline-thickness="102"
    underline-position="-103"
    unicode-range="U+000D-U+FB02"
  />
<missing-glyph horiz-adv-x="2048" 
d="M213 0v1536h1536v-1536h-1536zM342 129h1278v1278h-1278v-1278z" />
    <glyph glyph-name=".notdef" horiz-adv-x="2048" 
d="M213 0v1536h1536v-1536h-1536zM342 129h1278v1278h-1278v-1278z" />
    <glyph glyph-name="NULL" horiz-adv-x="0" 
 />
    <glyph glyph-name="nonmarkingreturn" unicode="&#xd;" horiz-adv-x="0" 
 />
    <glyph glyph-name="space" unicode=" " horiz-adv-x="500" 
 />
    <glyph glyph-name="exclam" unicode="!" horiz-adv-x="455" 
d="M129 0l-20 20v187l20 20h193l20 -20v-187l-20 -20h-193zM121 977v436l20 21h170l21 -21v-436l-29 -559l-20 -21h-113l-20 21z" />
    <glyph glyph-name="quotedbl" unicode="&#x22;" horiz-adv-x="778" 
d="M264 987h-119l-22 21l-23 405l21 21h170l20 -21l-24 -405zM633 987h-121l-23 21l-22 405l20 21h172l21 -21l-25 -405z" />
    <glyph glyph-name="numbersign" unicode="#" horiz-adv-x="1206" 
d="M834 459l-33 -25l-115 -414l-27 -20h-118l-15 20l117 414l-16 25h-211l-27 -25l-115 -414l-26 -20h-119l-14 20l116 414l-18 25h-115l-20 20v117l20 20h160l31 23l55 197l-22 20h-142l-20 21v116l20 21h191l32 22l105 377l24 21h115l17 -21l-105 -377l16 -22h213l27 22
l105 377l24 21h115l16 -21l-106 -377l20 -22h121l20 -21v-116l-20 -21h-164l-35 -20l-53 -197l23 -23h147l21 -20v-117l-21 -20h-194zM737 856h-211l-26 -20l-54 -197l15 -23h209l30 23l56 197z" />
    <glyph glyph-name="dollar" unicode="$" 
d="M1110 395q0 -171 -110 -270.5t-310 -110.5l-20 -18v-127l-21 -21h-96l-21 21v127l-20 18q-202 8 -307.5 94t-134.5 269l20 22h162l22 -20q24 -101 77 -144t161 -49l20 19v411l-20 25q-214 52 -302.5 144t-88.5 245q0 168 101 262.5t290 102.5l20 14v90l21 21h96l21 -21
v-90l20 -16q329 -25 383 -328l-20 -21h-162l-21 21q-24 80 -64 115.5t-116 46.5l-20 -19v-374l20 -25q170 -41 253.5 -92.5t125 -130t41.5 -191.5zM532 856v354l-20 19q-100 -6 -146.5 -51t-46.5 -134q0 -84 42.5 -129t150.5 -77zM909 391q0 91 -45 137.5t-174 83.5l-20 -20
v-387l20 -21q219 15 219 207z" />
    <glyph glyph-name="percent" unicode="%" horiz-adv-x="1884" 
d="M752 987q0 -220 -84.5 -334t-247.5 -114q-332 0 -332 448q0 226 81.5 337.5t254.5 111.5q328 0 328 -449zM584 987q0 157 -37.5 232t-122.5 75q-90 0 -129 -71.5t-39 -235.5q0 -156 39.5 -230.5t124.5 -74.5q83 0 123.5 75.5t40.5 229.5zM1796 432q0 -222 -83.5 -335
t-248.5 -113q-331 0 -331 448q0 222 80 335.5t255 113.5q328 0 328 -449zM1628 430q0 159 -38 233t-122 74q-89 0 -127 -73t-38 -234q0 -158 39 -231.5t124 -73.5q83 0 122.5 76t39.5 229zM711 0h-125l-15 20l607 1432l24 21h121l16 -21l-602 -1432z" />
    <glyph glyph-name="ampersand" unicode="&#x26;" horiz-adv-x="1475" 
d="M1376 0h-90l-170 160h-20q-102 -81 -168.5 -113t-146.5 -49.5t-187 -17.5q-243 0 -380.5 111.5t-137.5 303.5q0 141 77.5 242.5t245.5 175.5v18q-157 142 -157 306q0 143 106.5 229t290.5 86q180 0 286.5 -86.5t106.5 -224.5q0 -108 -57.5 -191t-208.5 -172v-18l319 -301
h21q43 57 61 111t23 116l20 21h156l20 -21q-10 -224 -135 -362v-19l146 -133v-154zM821 1130q0 70 -49.5 111t-134.5 41q-84 0 -134 -41.5t-50 -110.5q0 -53 34.5 -105t130.5 -130h19q91 48 137.5 103t46.5 132zM950 313l-403 381h-21q-121 -57 -175 -126.5t-54 -161.5
q0 -108 83 -177t214 -69q218 0 356 133v20z" />
    <glyph glyph-name="quotesingle" unicode="'" horiz-adv-x="412" 
d="M264 987h-119l-22 21l-23 405l21 21h170l20 -21l-24 -405z" />
    <glyph glyph-name="parenleft" unicode="(" horiz-adv-x="725" 
d="M119 514q0 270 79 490t265 450l29 19h180l12 -19q-185 -231 -266.5 -453t-81.5 -489q0 -268 81 -486.5t265 -447.5l-6 -20h-180l-35 20q-183 226 -262.5 443.5t-79.5 492.5z" />
    <glyph glyph-name="parenright" unicode=")" horiz-adv-x="725" 
d="M606 514q0 -270 -78.5 -487.5t-263.5 -448.5l-35 -20h-180l-6 20q186 235 266 453t80 481q0 267 -82 489.5t-266 452.5l12 19h180l29 -19q187 -231 265.5 -451t78.5 -489z" />
    <glyph glyph-name="asterisk" unicode="*" horiz-adv-x="887" 
d="M518 1149l266 88l27 -10l39 -111l-14 -26l-267 -72l170 -246l-4 -31l-104 -57l-31 10l-158 262l-159 -260l-33 -10l-105 55l-4 31l174 246l-268 72l-12 28l39 111l28 8l269 -86l-11 283l21 20h129l20 -20z" />
    <glyph glyph-name="plus" unicode="+" 
d="M705 594l-21 -21v-405l-20 -21h-140l-20 21v405l-21 21h-395l-20 20v136l20 20h395l21 21v403l20 20h140l20 -20v-403l21 -21h395l20 -20v-136l-20 -20h-395z" />
    <glyph glyph-name="comma" unicode="," horiz-adv-x="410" 
d="M227 -301h-98l-20 20q64 132 75 261l-20 20h-53l-21 20v205l21 21h188l20 -21v-157q0 -203 -65 -349z" />
    <glyph glyph-name="hyphen" unicode="-" horiz-adv-x="696" 
d="M109 449l-21 20v141l21 21h481l20 -21v-141l-20 -20h-481z" />
    <glyph glyph-name="period" unicode="." horiz-adv-x="410" 
d="M111 0l-21 20v205l21 21h188l20 -21v-205l-20 -20h-188z" />
    <glyph glyph-name="slash" unicode="/" horiz-adv-x="864" 
d="M213 0h-170l-14 20l606 1432l24 21h166l17 -21l-602 -1432z" />
    <glyph glyph-name="zero" unicode="0" 
d="M1106 717q0 -361 -131 -549t-383 -188q-255 0 -382.5 187.5t-127.5 549.5q0 369 126 553t390 184q255 0 381.5 -186t126.5 -551zM885 715q0 285 -67.5 419t-219.5 134q-156 0 -225.5 -129t-69.5 -424q0 -282 70 -415.5t221 -133.5q148 0 219.5 135t71.5 414z" />
    <glyph glyph-name="one" unicode="1" 
d="M522 1434h180l21 -21v-1208l20 -21h279l20 -20v-144l-20 -20h-850l-20 20v144l20 20h315l21 21v1003l-221 -129h-109l-20 21v119z" />
    <glyph glyph-name="two" unicode="2" 
d="M111 0l-21 20v156l461 426q144 134 200 200t79.5 123t23.5 124q0 103 -67 160t-183 57q-110 0 -181.5 -44t-94.5 -130l-21 -21h-184l-21 19q34 178 163 271t341 93q222 0 343.5 -104.5t121.5 -294.5q0 -95 -28.5 -171.5t-90 -154t-215.5 -217.5l-354 -322h696l21 -20
v-150l-21 -20h-968z" />
    <glyph glyph-name="three" unicode="3" 
d="M111 1106q67 348 495 348q224 0 347.5 -100.5t123.5 -276.5q0 -258 -284 -340v-4q151 -28 231 -114.5t80 -221.5q0 -198 -131 -307.5t-377 -109.5q-227 0 -360.5 91t-161.5 269l20 22h185l20 -24q23 -91 97 -130.5t198 -39.5q145 0 218 62t73 180q0 105 -84 165t-228 60
h-92l-20 14v160l20 16h86q133 0 211 61.5t78 166.5q0 102 -65 157.5t-187 55.5q-231 0 -270 -162l-21 -21h-182z" />
    <glyph glyph-name="four" unicode="4" 
d="M961 295l-21 -21v-254l-20 -20h-168l-21 20v254l-20 21h-635l-21 20v174l639 924l33 21h193l20 -21v-913l21 -21h163l21 -20v-144l-21 -20h-163zM731 1159l-469 -680h449l20 21v659z" />
    <glyph glyph-name="five" unicode="5" 
d="M1104 459q0 -140 -63.5 -249.5t-181 -169.5t-273.5 -60q-227 0 -356.5 89t-153.5 257l20 22h187l20 -24q29 -83 95 -119.5t188 -36.5q140 0 218.5 78.5t78.5 210.5q0 125 -78.5 198.5t-214.5 73.5q-151 0 -250 -80h-195l-20 21l51 743l23 21h798l21 -21v-147l-21 -21
h-610l-22 -20l-29 -400q115 90 297 90q213 0 342 -125.5t129 -330.5z" />
    <glyph glyph-name="six" unicode="6" 
d="M84 678q0 365 144.5 570.5t406.5 205.5q361 0 442 -301l-18 -18h-180l-23 18q-37 66 -90.5 90.5t-128.5 24.5q-162 0 -248 -140t-86 -397q63 78 159 121t206 43q198 0 322 -123t124 -317q0 -219 -132.5 -347t-363.5 -128q-257 0 -395.5 180t-138.5 518zM330 475
q0 -131 79.5 -221t204.5 -90q129 0 204 74.5t75 205.5q0 123 -73 196t-204 73q-78 0 -144.5 -29t-104 -83t-37.5 -126z" />
    <glyph glyph-name="seven" unicode="7" 
d="M483 0h-157l-21 20v117l561 1108h-770l-20 21v147l20 21h979l21 -21v-158z" />
    <glyph glyph-name="eight" unicode="8" 
d="M1110 401q0 -198 -133.5 -309.5t-380.5 -111.5q-246 0 -382 111t-136 308q0 126 68 213.5t216 137.5v4q-116 39 -183.5 126t-67.5 203q0 110 57.5 194.5t167 130.5t258.5 46q229 0 356 -98.5t127 -274.5q0 -115 -70 -203.5t-180 -121.5v-4q283 -82 283 -351zM854 1065
q0 105 -66.5 161t-193.5 56q-124 0 -191 -56.5t-67 -160.5q0 -106 70 -167.5t192 -61.5q121 0 188.5 58.5t67.5 170.5zM887 416q0 117 -78.5 182.5t-218.5 65.5q-132 0 -209.5 -68.5t-77.5 -185.5q0 -127 77 -192.5t222 -65.5t215 65t70 199z" />
    <glyph glyph-name="nine" unicode="9" 
d="M1108 752q0 -366 -141.5 -569t-395.5 -203q-384 0 -465 315l21 18h176l21 -18q37 -68 96 -98.5t149 -30.5q151 0 234.5 138.5t85.5 389.5q-51 -68 -149.5 -112.5t-213.5 -44.5q-206 0 -327 122.5t-121 323.5q0 220 131 345.5t364 125.5q257 0 396 -181.5t139 -520.5z
M864 958q0 131 -84 220.5t-205 89.5q-131 0 -202.5 -74t-71.5 -207q0 -126 72.5 -198t199.5 -72q77 0 145 30.5t107 84.5t39 126z" />
    <glyph glyph-name="colon" unicode=":" horiz-adv-x="410" 
d="M111 0l-21 20v205l21 21h188l20 -21v-205l-20 -20h-188zM111 782l-21 21v207l21 20h188l20 -20v-207l-20 -21h-188z" />
    <glyph glyph-name="semicolon" unicode=";" horiz-adv-x="410" 
d="M111 782l-21 21v207l21 20h188l20 -20v-207l-20 -21h-188zM227 -301h-98l-20 20q64 132 75 261l-20 20h-53l-21 20v205l21 21h188l20 -21v-157q0 -203 -65 -349z" />
    <glyph glyph-name="less" unicode="&#x3c;" 
d="M1122 1059l-20 -29l-854 -352l854 -354l20 -29v-139l-20 -13l-1014 414l-20 29v184l20 29l1014 415l20 -12v-143z" />
    <glyph glyph-name="equal" unicode="=" 
d="M88 864l-20 21v137l20 20h1012l20 -20v-137l-20 -21h-1012zM88 317l-20 21v135l20 21h1012l20 -21v-135l-20 -21h-1012z" />
    <glyph glyph-name="greater" unicode="&#x3e;" 
d="M68 1202l20 12l1012 -415l20 -29v-184l-20 -29l-1012 -414l-20 13v139l20 29l852 354l-852 352l-20 29v143z" />
    <glyph glyph-name="question" unicode="?" horiz-adv-x="1032" 
d="M995 1059q0 -74 -23.5 -135.5t-65 -114.5t-134.5 -129q-93 -77 -122.5 -109t-49.5 -66.5t-27 -76.5l-20 -20h-160l-16 20q6 67 31 122.5t65 105t127 122.5q85 70 116 107t48.5 77.5t17.5 90.5q0 98 -70 159.5t-184 61.5q-120 0 -193.5 -58.5t-84.5 -158.5l-21 -21h-172
l-20 21q26 191 154.5 294t334.5 103q140 0 247.5 -49t164.5 -140t57 -206zM381 0l-21 20v193l21 20h194l21 -20v-193l-21 -20h-194z" />
    <glyph glyph-name="at" unicode="@" horiz-adv-x="1882" 
d="M1427 135q-86 0 -152.5 35.5t-111.5 116.5h-6q-45 -69 -124 -110.5t-169 -41.5q-167 0 -260.5 119.5t-93.5 337.5q0 215 95.5 335t268.5 120q88 0 148 -26.5t113 -90.5h6v84l18 22h135l19 -22v-584q0 -69 36.5 -110t94.5 -41q96 0 146 95.5t50 270.5q0 193 -84 349
t-238.5 242.5t-350.5 86.5q-211 0 -374.5 -92t-254 -260.5t-90.5 -378.5q0 -215 85.5 -387t242.5 -267.5t362 -95.5q152 0 270.5 34.5t190.5 96.5l24 21h158l16 -21q-75 -136 -246.5 -208t-412.5 -72q-249 0 -442 109t-304.5 320t-111.5 480q0 248 111.5 448t315.5 311.5
t460 111.5q243 0 431.5 -99.5t296 -293t107.5 -439.5q0 -241 -99 -373.5t-276 -132.5zM1133 668q0 102 -59 162.5t-163 60.5q-213 0 -213 -299t213 -299q101 0 161.5 62t60.5 167v146z" />
    <glyph glyph-name="A" unicode="A" horiz-adv-x="1262" 
d="M723 1434l20 -21l484 -1270v-123l-21 -20h-162l-116 317l-25 21h-547l-26 -21l-115 -317h-160l-20 20v123l481 1270l21 21h186zM410 543l14 -17h412l14 17l-219 606z" />
    <glyph glyph-name="B" unicode="B" horiz-adv-x="1319" 
d="M950 1044q0 103 -68.5 153t-213.5 50h-283l-20 -20v-377l20 -21h291q142 0 208 53.5t66 161.5zM1006 430q0 109 -77.5 162t-254.5 53h-289l-20 -20v-418l20 -21h305q164 0 240 61.5t76 182.5zM168 0l-21 20v1393l21 21h514q233 0 361 -92t128 -263q0 -129 -57 -206.5
t-190 -120.5v-13q154 -22 228.5 -101.5t74.5 -227.5q0 -188 -136.5 -299t-371.5 -111h-551z" />
    <glyph glyph-name="C" unicode="C" horiz-adv-x="1419" 
d="M1307 1012h-189l-22 16q-38 127 -121 181.5t-232 54.5q-206 0 -316 -140.5t-110 -406.5q0 -268 110.5 -408.5t320.5 -140.5q144 0 230 67t120 183l20 20h197l18 -18q-58 -223 -204.5 -331.5t-383.5 -108.5q-311 0 -482 194.5t-171 542.5t170.5 542.5t482.5 194.5
q247 0 393.5 -107.5t186.5 -316.5z" />
    <glyph glyph-name="D" unicode="D" horiz-adv-x="1413" 
d="M1094 741q0 248 -126 377t-364 129h-219l-20 -20v-1020l20 -21h221q252 0 370 139.5t118 415.5zM1321 737q0 -353 -182 -545t-521 -192h-450l-21 20v1393l21 21h434q350 0 534.5 -180.5t184.5 -516.5z" />
    <glyph glyph-name="E" unicode="E" horiz-adv-x="1122" 
d="M168 0l-21 20v1393l21 21h852l20 -21v-151l-20 -21h-635l-20 -20v-367l20 -20h569l21 -21v-151l-21 -21h-569l-20 -20v-410l20 -21h635l20 -20v-150l-20 -20h-852z" />
    <glyph glyph-name="F" unicode="F" horiz-adv-x="1102" 
d="M168 0l-21 20v1393l21 21h852l20 -21v-151l-20 -21h-635l-20 -20v-367l20 -20h569l21 -21v-151l-21 -21h-569l-20 -20v-601l-21 -20h-176z" />
    <glyph glyph-name="G" unicode="G" horiz-adv-x="1477" 
d="M1333 735l21 -20v-695l-21 -20h-166l-20 20v150q-134 -190 -422 -190q-199 0 -341.5 88t-217 254.5t-74.5 394.5q0 349 172 543t481 194q494 0 592 -416l-20 -18h-193l-20 14q-40 126 -126 178t-235 52q-206 0 -316 -139t-110 -408q0 -263 109.5 -406t321.5 -143
q297 0 399 258v98l-21 21h-266l-20 20v150l20 20h473z" />
    <glyph glyph-name="H" unicode="H" horiz-adv-x="1413" 
d="M1243 0h-174l-20 20v603l-21 20h-643l-20 -20v-603l-21 -20h-176l-21 20v1393l21 21h176l21 -21v-561l20 -21h643l21 21v561l20 21h174l21 -21v-1393z" />
    <glyph glyph-name="I" unicode="I" horiz-adv-x="512" 
d="M365 20l-21 -20h-176l-21 20v1393l21 21h176l21 -21v-1393z" />
    <glyph glyph-name="J" unicode="J" horiz-adv-x="1075" 
d="M510 -20q-411 0 -453 401l19 18h188l21 -18q12 -102 69.5 -157.5t153.5 -55.5q110 0 161.5 69t51.5 224v952l20 21h177l20 -21v-958q0 -224 -112.5 -349.5t-315.5 -125.5z" />
    <glyph glyph-name="K" unicode="K" horiz-adv-x="1231" 
d="M365 758l645 676h125l20 -21v-125l-534 -538v-17l575 -590v-123l-20 -20h-136l-675 715v-695l-21 -20h-176l-21 20v1393l21 21h176l21 -21v-655z" />
    <glyph glyph-name="L" unicode="L" horiz-adv-x="1075" 
d="M168 0l-21 20v1393l21 21h176l21 -21v-1202l20 -21h610l21 -20v-150l-21 -20h-827z" />
    <glyph glyph-name="M" unicode="M" horiz-adv-x="1790" 
d="M1456 0l-20 20v867q0 107 6 293l-23 -68l-48 -130l-380 -962l-28 -20h-134l-28 20l-361 902q-61 140 -96 258l4 -293v-867l-20 -20h-160l-21 20v1393l21 21h248l28 -21l390 -960q48 -124 63 -183l61 168l385 975l29 21h248l20 -21v-1393l-20 -20h-164z" />
    <glyph glyph-name="N" unicode="N" horiz-adv-x="1483" 
d="M1106 0l-33 20l-733 1125q10 -155 10 -258v-867l-20 -20h-162l-21 20v1393l21 21h203l32 -21l740 -1134q-2 42 -6 109t-4 169v856l20 21h160l20 -21v-1393l-20 -20h-207z" />
    <glyph glyph-name="O" unicode="O" horiz-adv-x="1495" 
d="M1176 717q0 264 -108.5 405.5t-319.5 141.5t-321 -140.5t-110 -406.5t109.5 -407.5t321.5 -141.5q211 0 319.5 142.5t108.5 406.5zM748 1454q315 0 485 -194.5t170 -542.5q0 -351 -170 -544t-485 -193q-314 0 -485 193t-171 544t171 544t485 193z" />
    <glyph glyph-name="P" unicode="P" horiz-adv-x="1225" 
d="M920 997q0 119 -74 184.5t-223 65.5h-238l-20 -20v-473l20 -21h236q144 0 221.5 68.5t77.5 195.5zM1141 997q0 -211 -130.5 -329.5t-373.5 -118.5h-252l-20 -21v-508l-21 -20h-176l-21 20v1393l21 21h467q245 0 375.5 -114t130.5 -323z" />
    <glyph glyph-name="Q" unicode="Q" horiz-adv-x="1495" 
d="M748 1454q315 0 485 -194.5t170 -542.5q0 -291 -123 -477l150 -123v-117l-21 -20h-131l-135 112q-162 -112 -395 -112q-314 0 -485 193t-171 544t171 544t485 193zM825 475l21 21h129l131 -113q70 132 70 334q0 264 -108.5 405.5t-319.5 141.5t-321 -140.5t-110 -406.5
t109.5 -407.5t321.5 -141.5q132 0 227 61l-150 127v119z" />
    <glyph glyph-name="R" unicode="R" horiz-adv-x="1241" 
d="M1141 1018q0 -152 -86 -263.5t-230 -148.5l349 -467v-119l-21 -20h-135l-422 584h-211l-20 -21v-543l-21 -20h-176l-21 20v1393l21 21h467q245 0 375.5 -106.5t130.5 -309.5zM920 1016q0 123 -75.5 177t-219.5 54h-240l-20 -20v-439l20 -20h254q281 0 281 248z" />
    <glyph glyph-name="S" unicode="S" horiz-adv-x="1288" 
d="M1202 393q0 -192 -147.5 -302.5t-415.5 -110.5q-257 0 -398.5 93t-170.5 296l20 24h186l21 -22q32 -111 112 -157t240 -46q159 0 244.5 59t85.5 162q0 58 -24.5 96.5t-72 65.5t-118 47t-162.5 43q-198 48 -294.5 103.5t-141.5 135.5t-45 189q0 185 134 285t380 100
q235 0 369.5 -90.5t158.5 -267.5l-20 -21h-185l-20 21q-24 87 -100 127.5t-207 40.5q-289 0 -289 -193q0 -59 28 -97t92 -67t234 -71q178 -44 264.5 -83t137.5 -88.5t77.5 -116t26.5 -155.5z" />
    <glyph glyph-name="T" unicode="T" horiz-adv-x="1161" 
d="M1120 1434l21 -21v-151l-21 -21h-411l-21 -20v-1201l-20 -20h-174l-21 20v1201l-20 20h-412l-21 21v151l21 21h1079z" />
    <glyph glyph-name="U" unicode="U" horiz-adv-x="1421" 
d="M1282 1413v-862q0 -275 -152 -423t-434 -148q-272 0 -415.5 142.5t-143.5 414.5v876l21 21h176l20 -21v-872q0 -184 88 -277.5t260 -93.5q179 0 272 97.5t93 281.5v864l20 21h175z" />
    <glyph glyph-name="V" unicode="V" horiz-adv-x="1241" 
d="M526 0l-20 20l-471 1270v123l20 21h166l400 -1127l399 1127h166l20 -21v-123l-473 -1270l-20 -20h-187z" />
    <glyph glyph-name="W" unicode="W" horiz-adv-x="2019" 
d="M567 272l330 1141l29 21h170l28 -21l330 -1141l109 369l229 793h172l21 -21v-115l-400 -1278l-24 -20h-195l-25 20l-229 791q-55 185 -100 356l-97 -354l-235 -793l-25 -20h-194l-25 20l-401 1278v115l20 21h172l234 -791q98 -335 106 -371z" />
    <glyph glyph-name="X" unicode="X" horiz-adv-x="1190" 
d="M741 760l414 -615v-125l-20 -20h-136l-403 598l-406 -598h-135l-20 20v125l424 600l-383 543v125l20 21h135l365 -537l362 537h136l20 -21v-125z" />
    <glyph glyph-name="Y" unicode="Y" horiz-adv-x="1159" 
d="M580 807l385 627h139l20 -21v-121l-438 -696v-576l-20 -20h-174l-21 20v576l-436 696v121l20 21h144z" />
    <glyph glyph-name="Z" unicode="Z" horiz-adv-x="1221" 
d="M1161 20l-20 -20h-1057l-21 20v146l779 1075h-690l-21 21v151l21 21h931l21 -21v-143l-776 -1080h813l20 -20v-150z" />
    <glyph glyph-name="bracketleft" unicode="[" horiz-adv-x="696" 
d="M154 -424v1878l20 19h461l20 -19v-127l-20 -20h-256l-21 -21v-1542l21 -20h256l20 -21v-127l-20 -18h-461z" />
    <glyph glyph-name="backslash" unicode="\" horiz-adv-x="868" 
d="M29 1452l16 21h166l25 -21l602 -1432l-15 -20h-170l-26 20z" />
    <glyph glyph-name="bracketright" unicode="]" horiz-adv-x="696" 
d="M522 -442h-461l-20 18v127l20 21h256l21 20v1542l-21 21h-256l-20 20v127l20 19h461l21 -19v-1878z" />
    <glyph glyph-name="asciicircum" unicode="^" 
d="M936 539l-29 20l-313 731l-315 -731l-29 -20h-135l-13 20l373 854l29 21h178l29 -21l374 -854l-12 -20h-137z" />
    <glyph glyph-name="underscore" unicode="_" horiz-adv-x="1024" 
d="M0 -285l-20 21v76l20 20h1024l20 -20v-76l-20 -21h-1024z" />
    <glyph glyph-name="grave" unicode="`" horiz-adv-x="621" 
d="M414 1143l-322 276l21 43h190l244 -293l-21 -26h-112z" />
    <glyph glyph-name="a" unicode="a" horiz-adv-x="1122" 
d="M295 305q0 -83 47.5 -126.5t161.5 -43.5q135 0 214 79t79 224l-19 23q-152 12 -241 12q-132 0 -187 -38.5t-55 -129.5zM127 778q16 129 132.5 201t305.5 72q231 0 336 -99t105 -309v-623l-21 -20h-164l-20 20v136h-6q-66 -97 -154 -136.5t-213 -39.5q-169 0 -260.5 81.5
t-91.5 241.5t109.5 239t336.5 79q114 0 213 -11l43 -4l19 19q0 141 -52.5 204.5t-177.5 63.5q-103 0 -154 -26.5t-69 -88.5l-22 -18h-177z" />
    <glyph glyph-name="b" unicode="b" 
d="M338 414q0 -124 74 -191t204 -67q279 0 279 362q0 356 -279 356q-131 0 -204.5 -68t-73.5 -190v-202zM328 129v-109l-19 -20h-157l-23 20v1432l23 21h165l21 -21v-387l-5 -106l-5 -62h4q116 150 319 150q217 0 339 -142.5t122 -386.5q0 -247 -122 -390.5t-337 -143.5
q-201 0 -319 145h-6z" />
    <glyph glyph-name="c" unicode="c" horiz-adv-x="1094" 
d="M571 156q106 0 164 36t84 117l19 17h168l16 -19q-32 -169 -146 -248t-311 -79q-227 0 -358 142.5t-131 397.5q0 164 59.5 283t171.5 183.5t262 64.5q191 0 303 -76t146 -238l-17 -18h-172l-22 16q-25 74 -76.5 106.5t-152.5 32.5q-142 0 -213.5 -84.5t-71.5 -271.5
q0 -178 71.5 -270t206.5 -92z" />
    <glyph glyph-name="d" unicode="d" 
d="M850 616q0 123 -74 190.5t-205 67.5q-278 0 -278 -356q0 -180 70.5 -271t207.5 -91q130 0 204.5 66.5t74.5 191.5v202zM854 129q-118 -145 -319 -145q-215 0 -337 144t-122 390q0 243 121 386t340 143q203 0 319 -150h4q-10 103 -10 168v387l20 21h166l23 -21v-1432
l-23 -20h-157l-19 20v109h-6z" />
    <glyph glyph-name="e" unicode="e" horiz-adv-x="1128" 
d="M1030 457h-719l-18 -19q21 -291 278 -291q97 0 153.5 29t90.5 98l21 17h172l16 -19q-40 -149 -156 -220.5t-305 -71.5q-231 0 -359 143.5t-128 396.5q0 165 61 284.5t173 183t255 63.5q234 0 361 -135.5t127 -378.5v-60zM569 885q-120 0 -193 -66.5t-79 -181.5l18 -21
h500l21 21q-11 122 -79.5 185t-187.5 63z" />
    <glyph glyph-name="f" unicode="f" horiz-adv-x="637" 
d="M627 1452v-133l-21 -21h-76q-141 0 -141 -182v-72l21 -20h196l21 -20v-132l-21 -20h-196l-21 -23v-809l-20 -20h-168l-21 20v811l-20 21h-94l-21 20v132l21 20h94l20 20v86q0 176 83 259.5t259 83.5h84z" />
    <glyph glyph-name="g" unicode="g" 
d="M852 137q-60 -74 -136 -109.5t-181 -35.5q-212 0 -335.5 143.5t-123.5 382.5q0 248 123.5 388.5t337.5 140.5q95 0 170.5 -31t144.5 -105h8v99l19 20h159l21 -20v-981q0 -245 -114.5 -365.5t-350.5 -120.5q-219 0 -329.5 65t-143.5 214l20 18h172l21 -14q25 -61 86 -89
t172 -28q134 0 197 77.5t63 236.5q0 26 8 114h-8zM850 616q0 124 -73 191t-206 67q-136 0 -207 -90t-71 -264q0 -175 70.5 -265.5t207.5 -90.5q134 0 206.5 68.5t72.5 195.5v188z" />
    <glyph glyph-name="h" unicode="h" horiz-adv-x="1171" 
d="M668 1051q184 0 284.5 -102.5t100.5 -291.5v-637l-21 -20h-166l-22 20v611q0 239 -228 239q-134 0 -206 -68t-72 -196v-586l-21 -20h-167l-21 20v1432l21 21h167l21 -21v-403q0 -34 -8 -150h4q69 81 150.5 116.5t183.5 35.5z" />
    <glyph glyph-name="i" unicode="i" horiz-adv-x="469" 
d="M317 1473l21 -21v-195l-21 -20h-167l-21 20v195l21 21h167zM129 1010l21 20h167l21 -20v-990l-21 -20h-167l-21 20v990z" />
    <glyph glyph-name="j" unicode="j" horiz-adv-x="469" 
d="M317 1473l21 -21v-195l-21 -20h-167l-21 20v195l21 21h167zM129 1010l21 20h167l21 -20v-1110q0 -174 -71 -258t-197 -84h-119l-21 20v139l21 21h49q64 0 96.5 42.5t32.5 143.5v1086z" />
    <glyph glyph-name="k" unicode="k" horiz-adv-x="1024" 
d="M338 545l461 485h139l20 -20v-117l-364 -352v-21l389 -387v-113l-20 -20h-142l-483 510v-490l-21 -20h-167l-21 20v1432l21 21h167l21 -21v-907z" />
    <glyph glyph-name="l" unicode="l" horiz-adv-x="563" 
d="M334 326q0 -88 25 -122t85 -34h78l21 -20v-140l-21 -20h-129q-268 0 -268 342v1120l20 21h168l21 -21v-1126z" />
    <glyph glyph-name="m" unicode="m" horiz-adv-x="1845" 
d="M662 1051q112 0 195 -40.5t126 -117.5h25q125 158 348 158q181 0 275.5 -101t94.5 -291v-639l-20 -20h-166l-22 20v611q0 124 -53.5 181.5t-159.5 57.5q-131 0 -201.5 -66t-71.5 -183v-601l-20 -20h-166l-23 20v611q0 124 -53 181.5t-160 57.5q-133 0 -202.5 -68
t-69.5 -196v-586l-21 -20h-167l-21 20v990l21 20h161l21 -20v-111h4q71 83 150 117.5t176 34.5z" />
    <glyph glyph-name="n" unicode="n" horiz-adv-x="1171" 
d="M668 1051q183 0 284 -102t101 -290v-639l-21 -20h-166l-22 20v611q0 239 -226 239q-137 0 -208.5 -69t-71.5 -195v-586l-21 -20h-167l-21 20v990l21 20h161l21 -20v-111h4q70 82 151 117t181 35z" />
    <glyph glyph-name="o" unicode="o" horiz-adv-x="1161" 
d="M1083 518q0 -252 -136 -395t-372 -143q-231 0 -365 146t-134 392q0 244 133.5 388.5t370.5 144.5q241 0 372 -138t131 -395zM866 518q0 356 -282 356q-291 0 -291 -356q0 -177 71.5 -269.5t208.5 -92.5q151 0 222 90t71 272z" />
    <glyph glyph-name="p" unicode="p" 
d="M338 414q0 -123 73.5 -191.5t204.5 -68.5q137 0 208 91t71 269q0 360 -279 360q-132 0 -205 -68t-73 -192v-200zM328 133l5 -60l5 -102v-393l-21 -20h-165l-23 20v1432l23 20h159l19 -20v-111h4q118 148 319 148q215 0 337 -144t122 -389t-123 -387.5t-338 -142.5
q-200 0 -319 149h-4z" />
    <glyph glyph-name="q" unicode="q" 
d="M850 614q0 124 -72.5 192t-206.5 68q-278 0 -278 -360q0 -179 71 -269.5t207 -90.5q133 0 206 68.5t73 191.5v200zM856 133q-60 -75 -138 -111t-183 -36q-214 0 -336.5 140.5t-122.5 387.5q0 244 121.5 387t334.5 143q204 0 322 -145h4v111l19 20h159l23 -20v-1432
l-23 -20h-166l-20 20v393q0 59 10 162h-4z" />
    <glyph glyph-name="r" unicode="r" horiz-adv-x="725" 
d="M338 20l-21 -20h-167l-21 20v990l21 20h159l21 -20v-136h4q62 85 139.5 131t161.5 46h43l20 -21v-170l-20 -20h-64q-133 0 -204.5 -72t-71.5 -201v-547z" />
    <glyph glyph-name="s" unicode="s" horiz-adv-x="1047" 
d="M979 287q0 -307 -444 -307q-214 0 -326 65.5t-143 214.5l20 21h170l23 -21q25 -62 85 -89.5t177 -27.5q237 0 237 129q0 63 -60 95.5t-233 70.5q-221 48 -307 123t-86 203q0 143 109 215t317 72q389 0 434 -287l-18 -21h-160l-24 21q-22 69 -73 96t-159 27
q-223 0 -223 -115q0 -43 23 -67.5t81 -45.5t187 -49q223 -48 308 -120.5t85 -202.5z" />
    <glyph glyph-name="t" unicode="t" horiz-adv-x="676" 
d="M160 850h-94l-21 20v134l21 20h94l20 20v220l21 20h168l20 -20v-220l21 -20h196l21 -20v-134l-21 -20h-196l-21 -21v-503q0 -91 27 -123.5t104 -32.5h78l20 -20v-140l-20 -20h-119q-155 0 -227 82.5t-72 259.5v497z" />
    <glyph glyph-name="u" unicode="u" horiz-adv-x="1171" 
d="M504 -20q-187 0 -287 100.5t-100 290.5v639l20 20h166l23 -20v-611q0 -239 227 -239q136 0 207 67.5t71 194.5v588l21 20h168l20 -20v-990l-20 -20h-162l-20 20v109h-4q-67 -79 -146.5 -114t-183.5 -35z" />
    <glyph glyph-name="v" unicode="v" horiz-adv-x="1006" 
d="M414 0l-21 20l-354 875v115l20 20h160l283 -768l286 768h156l21 -20v-115l-355 -875l-20 -20h-176z" />
    <glyph glyph-name="w" unicode="w" horiz-adv-x="1649" 
d="M1100 0l-21 20l-256 717l-254 -717l-20 -20h-156l-20 20l-334 875v115l20 20h154l258 -764l264 744l21 20h137l20 -20l265 -744l260 764h151l21 -20v-115l-334 -875l-21 -20h-155z" />
    <glyph glyph-name="x" unicode="x" horiz-adv-x="1047" 
d="M203 0h-137l-21 20v113l307 387v21l-282 354v115l20 20h135l297 -401l297 401h135l21 -20v-115l-283 -354v-21l307 -387v-113l-20 -20h-137l-320 420z" />
    <glyph glyph-name="y" unicode="y" horiz-adv-x="1006" 
d="M39 895v115l20 20h160l289 -792l278 792h158l21 -20v-115l-347 -907q-71 -180 -120.5 -263t-104 -121t-125.5 -38h-145l-21 20v148l21 20h67q66 0 113.5 54.5t93.5 191.5z" />
    <glyph glyph-name="z" unicode="z" horiz-adv-x="1020" 
d="M86 870v140l20 20h801l21 -20v-140l-580 -692h580l20 -20v-138l-20 -20h-836l-20 20v138l579 692h-545z" />
    <glyph glyph-name="braceleft" unicode="{" horiz-adv-x="758" 
d="M553 -442q-135 0 -214 87.5t-79 243.5v308q0 108 -51 166t-160 63l-20 20v132l20 20q211 5 211 229v314q0 170 80 251t256 81h117l20 -19v-127l-20 -20h-76q-91 0 -132.5 -47t-41.5 -152v-340q0 -95 -57 -164t-148 -88v-4q87 -19 146 -102t59 -187v-299q0 -106 40.5 -153
t133.5 -47h76l20 -21v-125l-20 -20h-160z" />
    <glyph glyph-name="bar" unicode="|" horiz-adv-x="567" 
d="M209 -455l-21 21v1888l21 19h149l21 -19v-1888l-21 -21h-149z" />
    <glyph glyph-name="braceright" unicode="}" horiz-adv-x="758" 
d="M43 -442l-20 20v125l20 21h76q93 0 133.5 47t40.5 153v299q0 104 59 187t146 102v4q-91 20 -148 88.5t-57 163.5v340q0 105 -41.5 151t-132.5 46h-76l-20 20v129l20 19h117q176 0 256 -81.5t80 -250.5v-314q0 -224 211 -229l20 -20v-132l-20 -20q-110 -5 -160.5 -63.5
t-50.5 -165.5v-308q0 -155 -78.5 -243t-214.5 -88h-160z" />
    <glyph glyph-name="asciitilde" unicode="~" 
d="M850 535q-77 0 -151.5 21.5t-151.5 47.5q-129 45 -225 45q-60 0 -114.5 -16t-123.5 -60l-21 9v135l21 33q59 37 118.5 53t133.5 16q119 0 332 -71q129 -46 202 -46q114 0 236 78l20 -8v-137l-20 -33q-65 -39 -119 -53t-137 -14z" />
    <glyph glyph-name="uni00A0" unicode="&#xa0;" horiz-adv-x="561" 
 />
    <glyph glyph-name="exclamdown" unicode="&#xa1;" horiz-adv-x="455" 
d="M322 1030l20 -20v-189l-20 -20h-193l-20 20v189l20 20h193zM170 633h113l20 -21l29 -559v-436l-21 -20h-170l-20 20v436l29 559z" />
    <glyph glyph-name="cent" unicode="&#xa2;" 
d="M625 336q104 0 162.5 35t82.5 116l19 17h170l14 -17q-30 -156 -117 -232.5t-241 -92.5l-19 -19v-153l-20 -21h-109l-20 21v153l-19 19q-192 24 -295.5 164t-103.5 372q0 227 105 363.5t292 161.5l21 16v150l20 20h109l20 -20v-150l19 -14q146 -14 234 -86t120 -224
l-14 -16h-174l-23 16q-25 76 -78.5 108t-150.5 32q-140 0 -212.5 -86t-72.5 -273q0 -174 71 -267t210 -93z" />
    <glyph glyph-name="sterling" unicode="&#xa3;" horiz-adv-x="1210" 
d="M451 639l-21 -25v-110q0 -234 -108 -328h372q211 0 256 207l21 25h168l20 -23q-15 -168 -125 -276.5t-264 -108.5h-684l-20 20v127l22 25q70 31 101.5 97.5t31.5 215.5v133l-20 23h-125l-21 21v110l21 23h125l20 20v152q0 487 455 487q182 0 295 -80.5t143 -240.5
l-20 -27h-172l-21 24q-17 79 -73 115.5t-152 36.5q-131 0 -188.5 -74.5t-57.5 -230.5v-160l21 -22h278l21 -25v-108l-21 -23h-278z" />
    <glyph glyph-name="currency" unicode="&#xa4;" horiz-adv-x="1071" 
d="M113 684q0 122 73 231l-110 111v35l76 76h34l111 -111q109 76 240 76q61 0 124.5 -18.5t112.5 -55.5l111 109h37l71 -76v-37q-51 -55 -106 -106q76 -120 76 -234q0 -54 -19.5 -119t-56.5 -119l112 -108v-35l-77 -78h-33l-115 111q-51 -37 -114 -55.5t-123 -18.5
q-70 0 -137.5 21.5t-100.5 54.5l-115 -113h-32l-76 80v37l110 104q-73 123 -73 238zM268 684q0 -112 79.5 -189t189.5 -77t188 78t78 188q0 109 -79 187.5t-187 78.5q-109 0 -189 -77.5t-80 -188.5z" />
    <glyph glyph-name="yen" unicode="&#xa5;" 
d="M723 575l-23 -20v-127l23 -20h289l20 -21v-92l-20 -21h-291l-21 -20v-234l-20 -20h-174l-21 20v234l-20 20h-293l-20 21v92l20 21h293l20 20v127l-18 20h-295l-20 21v92l20 21h252l-354 583v121l20 21h133l371 -637l375 637h129l20 -21v-121l-356 -583h250l20 -21v-92
l-20 -21h-289z" />
    <glyph glyph-name="brokenbar" unicode="&#xa6;" horiz-adv-x="567" 
d="M209 676l-21 20v758l21 19h149l21 -19v-758l-21 -20h-149zM209 -442l-21 20v758l21 18h149l21 -18v-758l-21 -20h-149z" />
    <glyph glyph-name="section" unicode="&#xa7;" horiz-adv-x="1163" 
d="M584 1319q-201 0 -201 -102q0 -40 26 -62.5t85 -41t151 -34.5q202 -39 283.5 -104t81.5 -182q0 -147 -160 -215q154 -66 154 -205q0 -277 -406 -277q-195 0 -299 61t-133 205l12 21h160l27 -18q24 -61 76.5 -88t158.5 -27q213 0 213 115q0 56 -56.5 83.5t-219.5 57.5
q-203 39 -283 105t-80 184q0 142 176 206q-78 35 -116.5 86.5t-38.5 129.5q0 125 99 190.5t292 65.5q355 0 399 -271l-14 -18h-160l-20 18q-26 69 -74 93t-133 24zM819 782q0 54 -56 83.5t-216 58.5q-82 -5 -135.5 -38.5t-53.5 -80.5q0 -53 52.5 -82.5t224.5 -58.5
q90 3 137 34.5t47 83.5z" />
    <glyph glyph-name="dieresis" unicode="&#xa8;" horiz-adv-x="715" 
d="M74 1169l-21 21v151l21 21h153l21 -21v-151l-21 -21h-153zM487 1169l-20 21v151l20 21h152l20 -21v-151l-20 -21h-152z" />
    <glyph glyph-name="copyright" unicode="&#xa9;" horiz-adv-x="1565" 
d="M59 707q0 191 95 357.5t263.5 266t364.5 99.5q194 0 362.5 -97.5t264.5 -264.5t96 -361q0 -193 -96.5 -361.5t-265 -265t-361.5 -96.5q-197 0 -366.5 100.5t-263 267t-93.5 355.5zM168 707q0 -165 82 -307.5t224.5 -225t307.5 -82.5q163 0 305 81.5t226 224t84 309.5
q0 163 -81.5 304t-224.5 224.5t-309 83.5q-164 0 -306.5 -82.5t-225 -225t-82.5 -304.5zM786 420q87 0 135.5 31t73.5 112l15 17h120l15 -17q-29 -138 -119.5 -207t-234.5 -69q-182 0 -288 113.5t-106 306.5q0 192 105.5 303.5t285.5 111.5q292 0 351 -270l-15 -16h-123
l-18 18q-19 69 -66 101t-131 32q-235 0 -235 -280q0 -144 63 -215.5t172 -71.5z" />
    <glyph glyph-name="ordfeminine" unicode="&#xaa;" horiz-adv-x="891" 
d="M268 950q0 -55 31 -82.5t107 -27.5q91 0 142.5 52.5t51.5 145.5l-8 13q-99 8 -164 8q-82 0 -121 -23t-39 -86zM154 1253l-17 17q14 95 96.5 149t215.5 54q159 0 234 -69t75 -220v-434l-19 -19h-118l-19 19v84q-43 -51 -76 -72t-76 -33t-98 -12q-122 0 -186 58t-64 173
q0 116 77 171t239 55q54 0 174 -9l8 9q0 91 -34 133.5t-115 42.5q-63 0 -98.5 -18.5t-51.5 -61.5l-18 -17h-129z" />
    <glyph glyph-name="guillemotleft" unicode="&#xab;" horiz-adv-x="1128" 
d="M397 141l-338 359v75l338 365h164l21 -39l-336 -364l338 -361l-21 -35h-166zM881 141l-336 359v75l336 365h163l21 -39l-336 -364l338 -361l-20 -35h-166z" />
    <glyph glyph-name="logicalnot" unicode="&#xac;" 
d="M1120 156l-20 -21h-137l-21 21v417l-20 21h-834l-20 20v136l20 20h1012l20 -20v-594z" />
    <glyph glyph-name="registered" unicode="&#xae;" horiz-adv-x="1565" 
d="M59 707q0 193 97 361t265 265t361 97q194 0 362.5 -97.5t264.5 -264.5t96 -361q0 -193 -96.5 -361.5t-265 -265t-361.5 -96.5q-197 0 -366.5 100.5t-263 267t-93.5 355.5zM168 707q0 -165 82 -307.5t224.5 -225t307.5 -82.5q163 0 305 81.5t226 224t84 309.5
q0 163 -81.5 304t-224.5 224.5t-309 83.5q-164 0 -306.5 -82.5t-225 -225t-82.5 -304.5zM780 616h-127l-12 -12v-299l-12 -10h-129l-13 10v795l13 10h317q141 0 219 -62.5t78 -181.5q0 -80 -46 -143t-124 -88l174 -236v-94l-12 -10h-96zM958 866q0 57 -37.5 87t-109.5 30
h-158l-12 -12v-215l12 -13h160q145 0 145 123z" />
    <glyph glyph-name="macron" unicode="&#xaf;" horiz-adv-x="682" 
d="M47 1169l-20 21v104l20 21h584l20 -21v-104l-20 -21h-584z" />
    <glyph glyph-name="degree" unicode="&#xb0;" horiz-adv-x="805" 
d="M727 1122q0 -133 -95 -226t-231 -93q-132 0 -227.5 92.5t-95.5 226.5t94 227t229 93q138 0 232 -93t94 -227zM598 1122q0 84 -56 141.5t-141 57.5q-83 0 -139.5 -58t-56.5 -141q0 -81 57.5 -139.5t138.5 -58.5q83 0 140 57.5t57 140.5z" />
    <glyph glyph-name="plusminus" unicode="&#xb1;" 
d="M705 717l-21 -21v-405l-20 -21h-140l-20 21v405l-21 21h-395l-20 20v136l20 20h395l21 21v403l20 20h140l20 -20v-403l21 -21h395l20 -20v-136l-20 -20h-395zM88 1l-20 20v136l20 20h1012l20 -20v-136l-20 -20h-1012z" />
    <glyph glyph-name="twosuperior" unicode="&#xb2;" horiz-adv-x="819" 
d="M123 573l-12 13v108q62 95 204 214q158 132 195 180.5t37 111.5q0 56 -35 84.5t-94 28.5q-57 0 -94.5 -23t-59.5 -80l-10 -12h-135l-13 12q19 109 103 172.5t211 63.5q135 0 212 -66t77 -178q0 -57 -23 -107t-65.5 -98.5t-146.5 -132.5q-120 -98 -169 -155h404l12 -13
v-110l-12 -13h-586z" />
    <glyph glyph-name="threesuperior" unicode="&#xb3;" horiz-adv-x="803" 
d="M102 1227q16 111 97 165t215 54q138 0 217.5 -64.5t79.5 -167.5q0 -146 -154 -198q85 -25 127.5 -77.5t42.5 -123.5q0 -121 -86 -188.5t-233 -67.5q-141 0 -225 58t-103 165l18 21h127l19 -21q23 -92 162 -92q161 0 161 131q0 56 -45 88.5t-129 32.5h-55l-19 10v113
l19 14h51q76 0 119 31t43 90q0 115 -139 115q-125 0 -150 -88l-16 -19h-125z" />
    <glyph glyph-name="acute" unicode="&#xb4;" horiz-adv-x="621" 
d="M113 1143l-21 26l242 293h192l21 -43l-322 -276h-112z" />
    <glyph glyph-name="mu" unicode="&#xb5;" horiz-adv-x="1221" 
d="M1034 0q-66 0 -116 36.5t-66 92.5h-12q-66 -78 -146 -113.5t-186 -35.5q-107 0 -176 57v-459l-21 -20h-168l-20 20v1432l20 20h168l21 -20v-623q0 -105 59.5 -166t163.5 -61q136 0 209.5 65.5t73.5 194.5v590l20 20h168l21 -20v-723q0 -45 18 -74t72 -29h24l21 -20v-144
l-21 -20h-127z" />
    <glyph glyph-name="paragraph" unicode="&#xb6;" horiz-adv-x="1124" 
d="M1036 1298h-88l-20 -20v-1491l-21 -27h-106l-21 27v1491l-20 20h-180l-21 -20v-1491l-20 -27h-105l-20 27v911l-29 21q-160 9 -247 103.5t-87 254.5q0 168 98 262.5t273 94.5h604l31 -21v-94z" />
    <glyph glyph-name="periodcentered" unicode="&#xb7;" horiz-adv-x="410" 
d="M111 594l-21 20v205l21 21h188l20 -21v-205l-20 -20h-188z" />
    <glyph glyph-name="cedilla" unicode="&#xb8;" horiz-adv-x="584" 
d="M154 -135l61 149h123l-31 -86q90 -8 138.5 -50.5t48.5 -115.5q0 -99 -76 -151.5t-219 -52.5h-22l-62 4l-21 20v72l21 20q31 -4 65 -4q86 0 121 26.5t35 63.5q0 84 -141 84h-29z" />
    <glyph glyph-name="onesuperior" unicode="&#xb9;" horiz-adv-x="829" 
d="M352 1434h135l13 -13v-704l12 -12h152l12 -13v-106l-12 -13h-510l-13 13v106l13 13h178l12 12v557l-119 -72h-82l-12 12v89z" />
    <glyph glyph-name="ordmasculine" unicode="&#xba;" horiz-adv-x="879" 
d="M795 1100q0 -178 -95.5 -278.5t-263.5 -100.5q-165 0 -258.5 102.5t-93.5 276.5q0 173 93.5 273t260.5 100q172 0 264.5 -96.5t92.5 -276.5zM629 1100q0 237 -189 237q-194 0 -194 -237q0 -116 47 -179t141 -63q101 0 148 60.5t47 181.5z" />
    <glyph glyph-name="guillemotright" unicode="&#xbb;" horiz-adv-x="1126" 
d="M729 141h-166l-20 33l336 363l-334 362l20 41h164l338 -367v-73zM244 141h-164l-21 33l336 363l-334 362l21 41h162l338 -367v-73z" />
    <glyph glyph-name="onequarter" unicode="&#xbc;" horiz-adv-x="1776" 
d="M541 0h-121l-14 20l880 1393l25 21h117l16 -21l-877 -1393zM314 1434h135l13 -13v-704l12 -12h152l12 -13v-106l-12 -13h-510l-13 13v106l13 13h178l12 12v557l-119 -72h-82l-12 12v89zM1557 177l-8 -6v-143l-17 -17h-116l-17 17v143l-5 3l-3 3h-375l-16 17v116l379 547
l20 15h133l17 -17v-536l8 -9h96l17 -16v-100l-17 -17h-96zM1399 677l-252 -367h244l8 9v358z" />
    <glyph glyph-name="onehalf" unicode="&#xbd;" horiz-adv-x="1839" 
d="M533 0h-121l-14 20l880 1393l25 21h117l16 -21l-877 -1393zM314 1434h135l13 -13v-704l12 -12h152l12 -13v-106l-12 -13h-510l-13 13v106l13 13h178l12 12v557l-119 -72h-82l-12 12v89zM1116 11l-12 13v108q62 95 204 214q158 132 195 180.5t37 111.5q0 56 -35 84.5
t-94 28.5q-57 0 -94.5 -23t-59.5 -80l-10 -12h-135l-13 12q19 109 103 172.5t211 63.5q135 0 212 -66t77 -178q0 -57 -23 -107t-65.5 -98.5t-146.5 -132.5q-120 -98 -169 -155h404l12 -13v-110l-12 -13h-586z" />
    <glyph glyph-name="threequarters" unicode="&#xbe;" horiz-adv-x="1784" 
d="M553 0h-121l-14 20l880 1393l25 21h117l16 -21l-877 -1393zM1565 177l-8 -6v-143l-17 -17h-116l-17 17v143l-5 3l-3 3h-375l-16 17v116l379 547l20 15h133l17 -17v-536l8 -9h96l17 -16v-100l-17 -17h-96zM1407 677l-252 -367h244l8 9v358zM102 1227q16 111 97 165t215 54
q138 0 217.5 -64.5t79.5 -167.5q0 -146 -154 -198q85 -25 127.5 -77.5t42.5 -123.5q0 -121 -86 -188.5t-233 -67.5q-141 0 -225 58t-103 165l18 21h127l19 -21q23 -92 162 -92q161 0 161 131q0 56 -45 88.5t-129 32.5h-55l-19 10v113l19 14h51q76 0 119 31t43 90
q0 115 -139 115q-125 0 -150 -88l-16 -19h-125z" />
    <glyph glyph-name="questiondown" unicode="&#xbf;" horiz-adv-x="1032" 
d="M41 -31q0 103 47.5 189.5t175.5 189.5q88 73 119 107t51.5 70t26.5 77l20 21h162l14 -21q-9 -96 -57.5 -176.5t-165.5 -173.5q-84 -69 -115.5 -107t-49 -79t-17.5 -91q0 -97 70 -159t186 -62q117 0 191 58.5t85 160.5l21 21h174l20 -21q-26 -191 -153 -294t-336 -103
q-213 0 -341 108t-128 285zM653 1030l21 -20v-193l-21 -20h-194l-21 20v193l21 20h194z" />
    <glyph glyph-name="Agrave" unicode="&#xc0;" horiz-adv-x="1262" 
d="M723 1434l20 -21l484 -1270v-123l-21 -20h-162l-116 317l-25 21h-547l-26 -21l-115 -317h-160l-20 20v123l481 1270l21 21h186zM410 543l14 -17h412l14 17l-219 606zM621 1528l-322 276l21 43h190l244 -293l-21 -26h-112z" />
    <glyph glyph-name="Aacute" unicode="&#xc1;" horiz-adv-x="1262" 
d="M723 1434l20 -21l484 -1270v-123l-21 -20h-162l-116 317l-25 21h-547l-26 -21l-115 -317h-160l-20 20v123l481 1270l21 21h186zM410 543l14 -17h412l14 17l-219 606zM539 1528l-21 26l242 293h192l21 -43l-322 -276h-112z" />
    <glyph glyph-name="Acircumflex" unicode="&#xc2;" horiz-adv-x="1262" 
d="M723 1434l20 -21l484 -1270v-123l-21 -20h-162l-116 317l-25 21h-547l-26 -21l-115 -317h-160l-20 20v123l481 1270l21 21h186zM410 543l14 -17h412l14 17l-219 606zM971 1552l-21 -24h-108l-209 203l-213 -203h-109l-20 24l223 281l25 20h188l22 -20z" />
    <glyph glyph-name="Atilde" unicode="&#xc3;" horiz-adv-x="1262" 
d="M723 1434l20 -21l484 -1270v-123l-21 -20h-162l-116 317l-25 21h-547l-26 -21l-115 -317h-160l-20 20v123l481 1270l21 21h186zM410 543l14 -17h412l14 17l-219 606zM782 1675q69 0 80 107l21 20h96l21 -20q-11 -130 -63.5 -193t-139.5 -63q-45 0 -88.5 20t-83 44.5
t-75.5 44.5t-67 20q-35 0 -53.5 -20.5t-27.5 -88.5l-23 -20h-96l-19 20q7 135 59.5 195.5t143.5 60.5q46 0 91 -20t86 -43.5l76 -43.5t62 -20z" />
    <glyph glyph-name="Adieresis" unicode="&#xc4;" horiz-adv-x="1262" 
d="M723 1434l20 -21l484 -1270v-123l-21 -20h-162l-116 317l-25 21h-547l-26 -21l-115 -317h-160l-20 20v123l481 1270l21 21h186zM410 543l14 -17h412l14 17l-219 606zM344 1540l-21 21v153l21 21h151l21 -21v-153l-21 -21h-151zM766 1540l-21 21v153l21 21h153l21 -21
v-153l-21 -21h-153z" />
    <glyph glyph-name="Aring" unicode="&#xc5;" horiz-adv-x="1262" 
d="M381 1577q0 102 73.5 175t176.5 73t175.5 -72t72.5 -176q0 -66 -34 -120.5t-87 -82.5l469 -1231v-123l-21 -20h-162l-116 317l-25 21h-547l-26 -21l-115 -317h-160l-20 20v123l467 1231q-54 28 -87.5 82.5t-33.5 120.5zM410 543l14 -17h412l14 17l-219 606zM487 1577
q0 -59 40.5 -100t97.5 -43h6q60 0 101.5 42t41.5 101q0 60 -42.5 101.5t-100.5 41.5q-60 0 -102 -42t-42 -101z" />
    <glyph glyph-name="AE" unicode="&#xc6;" horiz-adv-x="1823" 
d="M211 0h-156l-20 20v123l612 1270l21 21h1052l21 -21v-151l-21 -21h-635l-20 -20v-367l20 -20h570l20 -21v-151l-20 -21h-570l-20 -20v-410l20 -21h635l21 -20v-150l-21 -20h-850l-20 20v297l-21 21h-440l-29 -21zM465 541l14 -15h350l21 21v694h-55z" />
    <glyph glyph-name="Ccedilla" unicode="&#xc7;" horiz-adv-x="1419" 
d="M616 -135l48 119q-276 25 -424 216t-148 517q0 348 170.5 542.5t482.5 194.5q247 0 393.5 -107.5t186.5 -316.5l-18 -18h-189l-22 16q-38 127 -121 181.5t-232 54.5q-206 0 -316 -140.5t-110 -406.5q0 -268 110.5 -408.5t320.5 -140.5q144 0 230 67t120 183l20 20h197
l18 -18q-108 -423 -545 -438l-18 -54q90 -8 138 -50.5t48 -115.5q0 -98 -74.5 -151t-219.5 -53h-23l-61 4l-21 20v72l21 20q31 -4 65 -4q86 0 121 26.5t35 63.5q0 43 -34.5 63.5t-107.5 20.5h-28z" />
    <glyph glyph-name="Egrave" unicode="&#xc8;" horiz-adv-x="1122" 
d="M168 0l-21 20v1393l21 21h852l20 -21v-151l-20 -21h-635l-20 -20v-367l20 -20h569l21 -21v-151l-21 -21h-569l-20 -20v-410l20 -21h635l20 -20v-150l-20 -20h-852zM637 1528l-322 276l21 43h190l244 -293l-21 -26h-112z" />
    <glyph glyph-name="Eacute" unicode="&#xc9;" horiz-adv-x="1122" 
d="M168 0l-21 20v1393l21 21h852l20 -21v-151l-20 -21h-635l-20 -20v-367l20 -20h569l21 -21v-151l-21 -21h-569l-20 -20v-410l20 -21h635l20 -20v-150l-20 -20h-852zM480 1528l-21 26l242 293h192l21 -43l-322 -276h-112z" />
    <glyph glyph-name="Ecircumflex" unicode="&#xca;" horiz-adv-x="1122" 
d="M168 0l-21 20v1393l21 21h852l20 -21v-151l-20 -21h-635l-20 -20v-367l20 -20h569l21 -21v-151l-21 -21h-569l-20 -20v-410l20 -21h635l20 -20v-150l-20 -20h-852zM936 1552l-21 -24h-108l-209 203l-213 -203h-109l-20 24l223 281l25 20h188l22 -20z" />
    <glyph glyph-name="Edieresis" unicode="&#xcb;" horiz-adv-x="1122" 
d="M168 0l-21 20v1393l21 21h852l20 -21v-151l-20 -21h-635l-20 -20v-367l20 -20h569l21 -21v-151l-21 -21h-569l-20 -20v-410l20 -21h635l20 -20v-150l-20 -20h-852zM316 1540l-21 21v153l21 21h151l21 -21v-153l-21 -21h-151zM738 1540l-21 21v153l21 21h153l21 -21v-153
l-21 -21h-153z" />
    <glyph glyph-name="Igrave" unicode="&#xcc;" horiz-adv-x="512" 
d="M365 20l-21 -20h-176l-21 20v1393l21 21h176l21 -21v-1393zM265 1528l-322 276l21 43h190l244 -293l-21 -26h-112z" />
    <glyph glyph-name="Iacute" unicode="&#xcd;" horiz-adv-x="512" 
d="M365 20l-21 -20h-176l-21 20v1393l21 21h176l21 -21v-1393zM158 1528l-21 26l242 293h192l21 -43l-322 -276h-112z" />
    <glyph glyph-name="Icircumflex" unicode="&#xce;" horiz-adv-x="512" 
d="M365 20l-21 -20h-176l-21 20v1393l21 21h176l21 -21v-1393zM597 1552l-21 -24h-108l-209 203l-213 -203h-109l-20 24l223 281l25 20h188l22 -20z" />
    <glyph glyph-name="Idieresis" unicode="&#xcf;" horiz-adv-x="512" 
d="M365 20l-21 -20h-176l-21 20v1393l21 21h176l21 -21v-1393zM-29 1540l-21 21v153l21 21h151l21 -21v-153l-21 -21h-151zM393 1540l-21 21v153l21 21h153l21 -21v-153l-21 -21h-153z" />
    <glyph glyph-name="Eth" unicode="&#xd0;" horiz-adv-x="1413" 
d="M1321 737q0 -353 -182 -545t-521 -192h-450l-21 20v580l-20 21h-94l-21 20v147l21 21h94l20 20v584l21 21h434q350 0 534.5 -180.5t184.5 -516.5zM385 621l-20 -21v-393l20 -21h221q252 0 370 139.5t118 415.5q0 248 -126 377t-364 129h-219l-20 -20v-398l20 -20h340
l20 -21v-147l-20 -20h-340z" />
    <glyph glyph-name="Ntilde" unicode="&#xd1;" horiz-adv-x="1483" 
d="M1106 0l-33 20l-733 1125q10 -155 10 -258v-867l-20 -20h-162l-21 20v1393l21 21h203l32 -21l740 -1134q-2 42 -6 109t-4 169v856l20 21h160l20 -21v-1393l-20 -20h-207zM897 1675q69 0 80 107l21 20h96l21 -20q-11 -130 -63.5 -193t-139.5 -63q-45 0 -88.5 20t-83 44.5
t-75.5 44.5t-67 20q-35 0 -53.5 -20.5t-27.5 -88.5l-23 -20h-96l-19 20q7 135 59.5 195.5t143.5 60.5q46 0 91 -20t86 -43.5l76 -43.5t62 -20z" />
    <glyph glyph-name="Ograve" unicode="&#xd2;" horiz-adv-x="1495" 
d="M1176 717q0 264 -108.5 405.5t-319.5 141.5t-321 -140.5t-110 -406.5t109.5 -407.5t321.5 -141.5q211 0 319.5 142.5t108.5 406.5zM748 1454q315 0 485 -194.5t170 -542.5q0 -351 -170 -544t-485 -193q-314 0 -485 193t-171 544t171 544t485 193zM717 1528l-322 276
l21 43h190l244 -293l-21 -26h-112z" />
    <glyph glyph-name="Oacute" unicode="&#xd3;" horiz-adv-x="1495" 
d="M1176 717q0 264 -108.5 405.5t-319.5 141.5t-321 -140.5t-110 -406.5t109.5 -407.5t321.5 -141.5q211 0 319.5 142.5t108.5 406.5zM748 1454q315 0 485 -194.5t170 -542.5q0 -351 -170 -544t-485 -193q-314 0 -485 193t-171 544t171 544t485 193zM648 1528l-21 26
l242 293h192l21 -43l-322 -276h-112z" />
    <glyph glyph-name="Ocircumflex" unicode="&#xd4;" horiz-adv-x="1495" 
d="M1176 717q0 264 -108.5 405.5t-319.5 141.5t-321 -140.5t-110 -406.5t109.5 -407.5t321.5 -141.5q211 0 319.5 142.5t108.5 406.5zM748 1454q315 0 485 -194.5t170 -542.5q0 -351 -170 -544t-485 -193q-314 0 -485 193t-171 544t171 544t485 193zM1088 1552l-21 -24h-108
l-209 203l-213 -203h-109l-20 24l223 281l25 20h188l22 -20z" />
    <glyph glyph-name="Otilde" unicode="&#xd5;" horiz-adv-x="1495" 
d="M1176 717q0 264 -108.5 405.5t-319.5 141.5t-321 -140.5t-110 -406.5t109.5 -407.5t321.5 -141.5q211 0 319.5 142.5t108.5 406.5zM748 1454q315 0 485 -194.5t170 -542.5q0 -351 -170 -544t-485 -193q-314 0 -485 193t-171 544t171 544t485 193zM899 1675q69 0 80 107
l21 20h96l21 -20q-11 -130 -63.5 -193t-139.5 -63q-45 0 -88.5 20t-83 44.5t-75.5 44.5t-67 20q-35 0 -53.5 -20.5t-27.5 -88.5l-23 -20h-96l-19 20q7 135 59.5 195.5t143.5 60.5q46 0 91 -20t86 -43.5l76 -43.5t62 -20z" />
    <glyph glyph-name="Odieresis" unicode="&#xd6;" horiz-adv-x="1495" 
d="M1176 717q0 264 -108.5 405.5t-319.5 141.5t-321 -140.5t-110 -406.5t109.5 -407.5t321.5 -141.5q211 0 319.5 142.5t108.5 406.5zM748 1454q315 0 485 -194.5t170 -542.5q0 -351 -170 -544t-485 -193q-314 0 -485 193t-171 544t171 544t485 193zM461 1540l-21 21v153
l21 21h151l21 -21v-153l-21 -21h-151zM883 1540l-21 21v153l21 21h153l21 -21v-153l-21 -21h-153z" />
    <glyph glyph-name="multiply" unicode="&#xd7;" 
d="M735 696v-28l340 -340v-29l-98 -98h-29l-340 340h-28l-340 -338h-29l-96 96v29l338 338v28l-338 340v29l98 98h29l340 -340h28l338 336h29l94 -94v-29z" />
    <glyph glyph-name="Oslash" unicode="&#xd8;" horiz-adv-x="1495" 
d="M748 1454q225 0 376 -104h35l101 129l28 20h131l13 -20l-172 -219v-35q143 -195 143 -508q0 -351 -170 -544t-485 -193q-230 0 -383 104h-29l-103 -125l-28 -20h-131l-13 20l172 217v35q-141 191 -141 506q0 351 171 544t485 193zM1176 717q0 193 -62 323h-27l-600 -764
v-32q103 -76 261 -76q211 0 319.5 142.5t108.5 406.5zM317 717q0 -194 62 -324h27l595 760v35q-99 76 -253 76q-211 0 -321 -140.5t-110 -406.5z" />
    <glyph glyph-name="Ugrave" unicode="&#xd9;" horiz-adv-x="1421" 
d="M1282 1413v-862q0 -275 -152 -423t-434 -148q-272 0 -415.5 142.5t-143.5 414.5v876l21 21h176l20 -21v-872q0 -184 88 -277.5t260 -93.5q179 0 272 97.5t93 281.5v864l20 21h175zM693 1528l-322 276l21 43h190l244 -293l-21 -26h-112z" />
    <glyph glyph-name="Uacute" unicode="&#xda;" horiz-adv-x="1421" 
d="M1282 1413v-862q0 -275 -152 -423t-434 -148q-272 0 -415.5 142.5t-143.5 414.5v876l21 21h176l20 -21v-872q0 -184 88 -277.5t260 -93.5q179 0 272 97.5t93 281.5v864l20 21h175zM609 1528l-21 26l242 293h192l21 -43l-322 -276h-112z" />
    <glyph glyph-name="Ucircumflex" unicode="&#xdb;" horiz-adv-x="1421" 
d="M1282 1413v-862q0 -275 -152 -423t-434 -148q-272 0 -415.5 142.5t-143.5 414.5v876l21 21h176l20 -21v-872q0 -184 88 -277.5t260 -93.5q179 0 272 97.5t93 281.5v864l20 21h175zM1049 1552l-21 -24h-108l-209 203l-213 -203h-109l-20 24l223 281l25 20h188l22 -20z" />
    <glyph glyph-name="Udieresis" unicode="&#xdc;" horiz-adv-x="1421" 
d="M1282 1413v-862q0 -275 -152 -423t-434 -148q-272 0 -415.5 142.5t-143.5 414.5v876l21 21h176l20 -21v-872q0 -184 88 -277.5t260 -93.5q179 0 272 97.5t93 281.5v864l20 21h175zM422 1540l-21 21v153l21 21h151l21 -21v-153l-21 -21h-151zM844 1540l-21 21v153l21 21
h153l21 -21v-153l-21 -21h-153z" />
    <glyph glyph-name="Yacute" unicode="&#xdd;" horiz-adv-x="1159" 
d="M580 807l385 627h139l20 -21v-121l-438 -696v-576l-20 -20h-174l-21 20v576l-436 696v121l20 21h144zM500 1528l-21 26l242 293h192l21 -43l-322 -276h-112z" />
    <glyph glyph-name="Thorn" unicode="&#xde;" horiz-adv-x="1225" 
d="M365 1196l20 -20h250q245 0 375.5 -114t130.5 -323q0 -211 -130.5 -329.5t-373.5 -118.5h-252l-20 -21v-250l-21 -20h-176l-21 20v1393l21 21h176l21 -21v-217zM920 739q0 119 -74 184.5t-223 65.5h-238l-20 -20v-473l20 -21h236q144 0 221.5 68.5t77.5 195.5z" />
    <glyph glyph-name="germandbls" unicode="&#xdf;" horiz-adv-x="1219" 
d="M797 145q74 0 112.5 34.5t38.5 99.5q0 59 -42.5 109.5t-141.5 115.5q-91 58 -137.5 123.5t-46.5 144.5q0 63 28 112t87 95q62 47 88 87t26 89q0 68 -57.5 111t-151.5 43q-123 0 -192.5 -79.5t-69.5 -248.5v-961l-21 -20h-167l-21 20v977q0 237 122 356.5t345 119.5
q190 0 303 -82.5t113 -225.5q0 -68 -17 -116.5t-42 -83.5t-55 -60.5l-55 -46t-42 -40t-17 -42.5q0 -34 31.5 -63.5t151.5 -107.5q182 -119 182 -316q0 -143 -92 -225t-252 -82q-157 0 -253.5 65t-127.5 213l20 21h166l19 -21q41 -115 168 -115z" />
    <glyph glyph-name="agrave" unicode="&#xe0;" horiz-adv-x="1122" 
d="M295 305q0 -83 47.5 -126.5t161.5 -43.5q135 0 214 79t79 224l-19 23q-152 12 -241 12q-132 0 -187 -38.5t-55 -129.5zM127 778q16 129 132.5 201t305.5 72q231 0 336 -99t105 -309v-623l-21 -20h-164l-20 20v136h-6q-66 -97 -154 -136.5t-213 -39.5q-169 0 -260.5 81.5
t-91.5 241.5t109.5 239t336.5 79q114 0 213 -11l43 -4l19 19q0 141 -52.5 204.5t-177.5 63.5q-103 0 -154 -26.5t-69 -88.5l-22 -18h-177zM600 1143l-322 276l21 43h190l244 -293l-21 -26h-112z" />
    <glyph glyph-name="aacute" unicode="&#xe1;" horiz-adv-x="1122" 
d="M295 305q0 -83 47.5 -126.5t161.5 -43.5q135 0 214 79t79 224l-19 23q-152 12 -241 12q-132 0 -187 -38.5t-55 -129.5zM127 778q16 129 132.5 201t305.5 72q231 0 336 -99t105 -309v-623l-21 -20h-164l-20 20v136h-6q-66 -97 -154 -136.5t-213 -39.5q-169 0 -260.5 81.5
t-91.5 241.5t109.5 239t336.5 79q114 0 213 -11l43 -4l19 19q0 141 -52.5 204.5t-177.5 63.5q-103 0 -154 -26.5t-69 -88.5l-22 -18h-177zM469 1143l-21 26l242 293h192l21 -43l-322 -276h-112z" />
    <glyph glyph-name="acircumflex" unicode="&#xe2;" horiz-adv-x="1122" 
d="M295 305q0 -83 47.5 -126.5t161.5 -43.5q135 0 214 79t79 224l-19 23q-152 12 -241 12q-132 0 -187 -38.5t-55 -129.5zM127 778q16 129 132.5 201t305.5 72q231 0 336 -99t105 -309v-623l-21 -20h-164l-20 20v136h-6q-66 -97 -154 -136.5t-213 -39.5q-169 0 -260.5 81.5
t-91.5 241.5t109.5 239t336.5 79q114 0 213 -11l43 -4l19 19q0 141 -52.5 204.5t-177.5 63.5q-103 0 -154 -26.5t-69 -88.5l-22 -18h-177zM916 1167l-21 -24h-108l-209 203l-213 -203h-109l-20 24l223 281l25 20h188l22 -20z" />
    <glyph glyph-name="atilde" unicode="&#xe3;" horiz-adv-x="1122" 
d="M295 305q0 -83 47.5 -126.5t161.5 -43.5q135 0 214 79t79 224l-19 23q-152 12 -241 12q-132 0 -187 -38.5t-55 -129.5zM127 778q16 129 132.5 201t305.5 72q231 0 336 -99t105 -309v-623l-21 -20h-164l-20 20v136h-6q-66 -97 -154 -136.5t-213 -39.5q-169 0 -260.5 81.5
t-91.5 241.5t109.5 239t336.5 79q114 0 213 -11l43 -4l19 19q0 141 -52.5 204.5t-177.5 63.5q-103 0 -154 -26.5t-69 -88.5l-22 -18h-177zM714 1290q69 0 80 109l21 20h96l21 -20q-11 -130 -63.5 -193t-139.5 -63q-45 0 -88.5 20t-83 43.5l-75.5 43.5t-67 20
q-25 0 -41 -10.5t-24.5 -29.5t-15.5 -67l-23 -20h-96l-19 20q7 134 59 195t144 61q46 0 91 -20t86 -44.5l76 -44.5t62 -20z" />
    <glyph glyph-name="adieresis" unicode="&#xe4;" horiz-adv-x="1122" 
d="M295 305q0 -83 47.5 -126.5t161.5 -43.5q135 0 214 79t79 224l-19 23q-152 12 -241 12q-132 0 -187 -38.5t-55 -129.5zM127 778q16 129 132.5 201t305.5 72q231 0 336 -99t105 -309v-623l-21 -20h-164l-20 20v136h-6q-66 -97 -154 -136.5t-213 -39.5q-169 0 -260.5 81.5
t-91.5 241.5t109.5 239t336.5 79q114 0 213 -11l43 -4l19 19q0 141 -52.5 204.5t-177.5 63.5q-103 0 -154 -26.5t-69 -88.5l-22 -18h-177zM283 1169l-21 21v151l21 21h153l21 -21v-151l-21 -21h-153zM696 1169l-20 21v151l20 21h152l20 -21v-151l-20 -21h-152z" />
    <glyph glyph-name="aring" unicode="&#xe5;" horiz-adv-x="1122" 
d="M295 305q0 -83 47.5 -126.5t161.5 -43.5q135 0 214 79t79 224l-19 23q-152 12 -241 12q-132 0 -187 -38.5t-55 -129.5zM127 778q16 129 132.5 201t305.5 72q231 0 336 -99t105 -309v-623l-21 -20h-164l-20 20v136h-6q-66 -97 -154 -136.5t-213 -39.5q-169 0 -260.5 81.5
t-91.5 241.5t109.5 239t336.5 79q114 0 213 -11l43 -4l19 19q0 141 -52.5 204.5t-177.5 63.5q-103 0 -154 -26.5t-69 -88.5l-22 -18h-177zM315 1383q0 101 74.5 173t175.5 72q102 0 175 -71t73 -174t-72 -176.5t-176 -73.5t-177 73.5t-73 176.5zM422 1383q0 -61 41 -102.5
t102 -41.5q60 0 101.5 42t41.5 102q0 58 -41.5 99.5t-101.5 41.5t-101.5 -42t-41.5 -99z" />
    <glyph glyph-name="ae" unicode="&#xe6;" horiz-adv-x="1843" 
d="M1743 457h-717l-18 -19q21 -291 278 -291q95 0 152.5 29t89.5 98l22 17h170l17 -19q-73 -292 -459 -292q-273 0 -395 206q-75 -109 -178 -157.5t-242 -48.5q-387 0 -387 323q0 160 109.5 239t336.5 79q114 0 213 -11l43 -4l19 19q0 141 -52.5 204.5t-177.5 63.5
q-103 0 -154 -26.5t-69 -88.5l-22 -18h-177l-18 18q16 129 132.5 201t305.5 72q268 0 365 -158q66 78 156 118t192 40q233 0 360 -133.5t127 -380.5v-60zM295 305q0 -83 47.5 -126.5t161.5 -43.5q130 0 211.5 81.5t81.5 221.5l-19 23q-152 12 -241 12q-132 0 -187 -38.5
t-55 -129.5zM1284 885q-120 0 -193 -66.5t-79 -181.5l16 -21h502l18 21q-11 124 -79 186t-185 62z" />
    <glyph glyph-name="ccedilla" unicode="&#xe7;" horiz-adv-x="1094" 
d="M422 -135l50 122q-188 29 -292 168t-104 365q0 164 59.5 283t171.5 183.5t262 64.5q191 0 303 -76t146 -238l-17 -18h-172l-22 16q-25 74 -76.5 106.5t-152.5 32.5q-142 0 -213.5 -84.5t-71.5 -271.5q0 -178 71.5 -270t206.5 -92q106 0 164 36t84 117l19 17h168l16 -19
q-31 -162 -137.5 -241.5t-290.5 -84.5l-19 -53q90 -8 138.5 -50.5t48.5 -115.5q0 -99 -76 -151.5t-219 -52.5h-23l-61 4l-21 20v72l21 20q31 -4 65 -4q86 0 121 26.5t35 63.5q0 84 -141 84h-29z" />
    <glyph glyph-name="egrave" unicode="&#xe8;" horiz-adv-x="1128" 
d="M1030 457h-719l-18 -19q21 -291 278 -291q97 0 153.5 29t90.5 98l21 17h172l16 -19q-40 -149 -156 -220.5t-305 -71.5q-231 0 -359 143.5t-128 396.5q0 165 61 284.5t173 183t255 63.5q234 0 361 -135.5t127 -378.5v-60zM569 885q-120 0 -193 -66.5t-79 -181.5l18 -21
h500l21 21q-11 122 -79.5 185t-187.5 63zM568 1143l-322 276l21 43h190l244 -293l-21 -26h-112z" />
    <glyph glyph-name="eacute" unicode="&#xe9;" horiz-adv-x="1128" 
d="M1030 457h-719l-18 -19q21 -291 278 -291q97 0 153.5 29t90.5 98l21 17h172l16 -19q-40 -149 -156 -220.5t-305 -71.5q-231 0 -359 143.5t-128 396.5q0 165 61 284.5t173 183t255 63.5q234 0 361 -135.5t127 -378.5v-60zM569 885q-120 0 -193 -66.5t-79 -181.5l18 -21
h500l21 21q-11 122 -79.5 185t-187.5 63zM469 1143l-21 26l242 293h192l21 -43l-322 -276h-112z" />
    <glyph glyph-name="ecircumflex" unicode="&#xea;" horiz-adv-x="1128" 
d="M1030 457h-719l-18 -19q21 -291 278 -291q97 0 153.5 29t90.5 98l21 17h172l16 -19q-40 -149 -156 -220.5t-305 -71.5q-231 0 -359 143.5t-128 396.5q0 165 61 284.5t173 183t255 63.5q234 0 361 -135.5t127 -378.5v-60zM569 885q-120 0 -193 -66.5t-79 -181.5l18 -21
h500l21 21q-11 122 -79.5 185t-187.5 63zM914 1167l-21 -24h-108l-209 203l-213 -203h-109l-20 24l223 281l25 20h188l22 -20z" />
    <glyph glyph-name="edieresis" unicode="&#xeb;" horiz-adv-x="1128" 
d="M1030 457h-719l-18 -19q21 -291 278 -291q97 0 153.5 29t90.5 98l21 17h172l16 -19q-40 -149 -156 -220.5t-305 -71.5q-231 0 -359 143.5t-128 396.5q0 165 61 284.5t173 183t255 63.5q234 0 361 -135.5t127 -378.5v-60zM569 885q-120 0 -193 -66.5t-79 -181.5l18 -21
h500l21 21q-11 122 -79.5 185t-187.5 63zM289 1169l-21 21v151l21 21h153l21 -21v-151l-21 -21h-153zM702 1169l-20 21v151l20 21h152l20 -21v-151l-20 -21h-152z" />
    <glyph glyph-name="igrave" unicode="&#xec;" horiz-adv-x="469" 
d="M231 1143l-322 276l21 43h190l244 -293l-21 -26h-112zM129 1010l21 20h167l21 -20v-990l-21 -20h-167l-21 20v990z" />
    <glyph glyph-name="iacute" unicode="&#xed;" horiz-adv-x="469" 
d="M125 1143l-21 26l242 293h192l21 -43l-322 -276h-112zM129 1010l21 20h167l21 -20v-990l-21 -20h-167l-21 20v990z" />
    <glyph glyph-name="icircumflex" unicode="&#xee;" horiz-adv-x="469" 
d="M129 1010l21 20h167l21 -20v-990l-21 -20h-167l-21 20v990zM577 1167l-21 -24h-108l-209 203l-213 -203h-109l-20 24l223 281l25 20h188l22 -20z" />
    <glyph glyph-name="idieresis" unicode="&#xef;" horiz-adv-x="469" 
d="M-46 1169l-21 21v151l21 21h153l21 -21v-151l-21 -21h-153zM367 1169l-20 21v151l20 21h152l20 -21v-151l-20 -21h-152zM129 1010l21 20h167l21 -20v-990l-21 -20h-167l-21 20v990z" />
    <glyph glyph-name="eth" unicode="&#xf0;" horiz-adv-x="1161" 
d="M756 1247q151 -147 239 -336.5t88 -382.5q0 -267 -131.5 -407.5t-376.5 -140.5q-231 0 -365 134.5t-134 362.5t134 361t370 133q109 0 196 -51q-76 142 -194 260l-287 -115l-21 10v103l21 30l178 74q-93 76 -211 148l23 24h182q85 -44 168 -108l283 116l20 -8v-104
l-20 -33zM866 477q0 154 -69.5 236t-212.5 82q-291 0 -291 -318q0 -154 72.5 -237.5t207.5 -83.5q293 0 293 321z" />
    <glyph glyph-name="ntilde" unicode="&#xf1;" horiz-adv-x="1171" 
d="M668 1051q183 0 284 -102t101 -290v-639l-21 -20h-166l-22 20v611q0 239 -226 239q-137 0 -208.5 -69t-71.5 -195v-586l-21 -20h-167l-21 20v990l21 20h161l21 -20v-111h4q70 82 151 117t181 35zM753 1290q69 0 80 109l21 20h96l21 -20q-11 -130 -63.5 -193t-139.5 -63
q-45 0 -88.5 20t-83 43.5l-75.5 43.5t-67 20q-25 0 -41 -10.5t-24.5 -29.5t-15.5 -67l-23 -20h-96l-19 20q7 134 59 195t144 61q46 0 91 -20t86 -44.5l76 -44.5t62 -20z" />
    <glyph glyph-name="ograve" unicode="&#xf2;" horiz-adv-x="1161" 
d="M1083 518q0 -252 -136 -395t-372 -143q-231 0 -365 146t-134 392q0 244 133.5 388.5t370.5 144.5q241 0 372 -138t131 -395zM866 518q0 356 -282 356q-291 0 -291 -356q0 -177 71.5 -269.5t208.5 -92.5q151 0 222 90t71 272zM572 1143l-322 276l21 43h190l244 -293
l-21 -26h-112z" />
    <glyph glyph-name="oacute" unicode="&#xf3;" horiz-adv-x="1161" 
d="M1083 518q0 -252 -136 -395t-372 -143q-231 0 -365 146t-134 392q0 244 133.5 388.5t370.5 144.5q241 0 372 -138t131 -395zM866 518q0 356 -282 356q-291 0 -291 -356q0 -177 71.5 -269.5t208.5 -92.5q151 0 222 90t71 272zM508 1143l-21 26l242 293h192l21 -43
l-322 -276h-112z" />
    <glyph glyph-name="ocircumflex" unicode="&#xf4;" horiz-adv-x="1161" 
d="M1083 518q0 -252 -136 -395t-372 -143q-231 0 -365 146t-134 392q0 244 133.5 388.5t370.5 144.5q241 0 372 -138t131 -395zM866 518q0 356 -282 356q-291 0 -291 -356q0 -177 71.5 -269.5t208.5 -92.5q151 0 222 90t71 272zM920 1167l-21 -24h-108l-209 203l-213 -203
h-109l-20 24l223 281l25 20h188l22 -20z" />
    <glyph glyph-name="otilde" unicode="&#xf5;" horiz-adv-x="1161" 
d="M1083 518q0 -252 -136 -395t-372 -143q-231 0 -365 146t-134 392q0 244 133.5 388.5t370.5 144.5q241 0 372 -138t131 -395zM866 518q0 356 -282 356q-291 0 -291 -356q0 -177 71.5 -269.5t208.5 -92.5q151 0 222 90t71 272zM731 1290q69 0 80 109l21 20h96l21 -20
q-11 -130 -63.5 -193t-139.5 -63q-45 0 -88.5 20t-83 43.5l-75.5 43.5t-67 20q-25 0 -41 -10.5t-24.5 -29.5t-15.5 -67l-23 -20h-96l-19 20q7 134 59 195t144 61q46 0 91 -20t86 -44.5l76 -44.5t62 -20z" />
    <glyph glyph-name="odieresis" unicode="&#xf6;" horiz-adv-x="1161" 
d="M1083 518q0 -252 -136 -395t-372 -143q-231 0 -365 146t-134 392q0 244 133.5 388.5t370.5 144.5q241 0 372 -138t131 -395zM866 518q0 356 -282 356q-291 0 -291 -356q0 -177 71.5 -269.5t208.5 -92.5q151 0 222 90t71 272zM297 1169l-21 21v151l21 21h153l21 -21v-151
l-21 -21h-153zM710 1169l-20 21v151l20 21h152l20 -21v-151l-20 -21h-152z" />
    <glyph glyph-name="divide" unicode="&#xf7;" 
d="M516 195l-20 20v147l20 21h152l20 -21v-147l-20 -20h-152zM516 981l-20 20v148l20 20h152l20 -20v-148l-20 -20h-152zM88 594l-20 20v136l20 20h1012l20 -20v-136l-20 -20h-1012z" />
    <glyph glyph-name="oslash" unicode="&#xf8;" horiz-adv-x="1161" 
d="M1083 518q0 -252 -136 -395t-372 -143q-157 0 -274 71h-35l-71 -86l-31 -20h-117l-10 20l137 162v39q-98 138 -98 352q0 244 133.5 388.5t370.5 144.5q165 0 280 -70h35l70 84l28 20h117l12 -20l-135 -160v-39q96 -132 96 -348zM293 518q0 -106 29 -178h30l387 459v35
q-62 40 -147 40q-153 0 -226 -89.5t-73 -266.5zM866 518q0 98 -26 172h-33l-389 -463v-30q42 -25 86 -32t94 -7q137 7 202.5 97t65.5 263z" />
    <glyph glyph-name="ugrave" unicode="&#xf9;" horiz-adv-x="1171" 
d="M504 -20q-187 0 -287 100.5t-100 290.5v639l20 20h166l23 -20v-611q0 -239 227 -239q136 0 207 67.5t71 194.5v588l21 20h168l20 -20v-990l-20 -20h-162l-20 20v109h-4q-67 -79 -146.5 -114t-183.5 -35zM561 1143l-322 276l21 43h190l244 -293l-21 -26h-112z" />
    <glyph glyph-name="uacute" unicode="&#xfa;" horiz-adv-x="1171" 
d="M504 -20q-187 0 -287 100.5t-100 290.5v639l20 20h166l23 -20v-611q0 -239 227 -239q136 0 207 67.5t71 194.5v588l21 20h168l20 -20v-990l-20 -20h-162l-20 20v109h-4q-67 -79 -146.5 -114t-183.5 -35zM510 1143l-21 26l242 293h192l21 -43l-322 -276h-112z" />
    <glyph glyph-name="ucircumflex" unicode="&#xfb;" horiz-adv-x="1171" 
d="M504 -20q-187 0 -287 100.5t-100 290.5v639l20 20h166l23 -20v-611q0 -239 227 -239q136 0 207 67.5t71 194.5v588l21 20h168l20 -20v-990l-20 -20h-162l-20 20v109h-4q-67 -79 -146.5 -114t-183.5 -35zM924 1167l-21 -24h-108l-209 203l-213 -203h-109l-20 24l223 281
l25 20h188l22 -20z" />
    <glyph glyph-name="udieresis" unicode="&#xfc;" horiz-adv-x="1171" 
d="M504 -20q-187 0 -287 100.5t-100 290.5v639l20 20h166l23 -20v-611q0 -239 227 -239q136 0 207 67.5t71 194.5v588l21 20h168l20 -20v-990l-20 -20h-162l-20 20v109h-4q-67 -79 -146.5 -114t-183.5 -35zM299 1169l-21 21v151l21 21h153l21 -21v-151l-21 -21h-153z
M712 1169l-20 21v151l20 21h152l20 -21v-151l-20 -21h-152z" />
    <glyph glyph-name="yacute" unicode="&#xfd;" horiz-adv-x="1006" 
d="M39 895v115l20 20h160l289 -792l278 792h158l21 -20v-115l-347 -907q-71 -180 -120.5 -263t-104 -121t-125.5 -38h-145l-21 20v148l21 20h67q66 0 113.5 54.5t93.5 191.5zM408 1143l-21 26l242 293h192l21 -43l-322 -276h-112z" />
    <glyph glyph-name="thorn" unicode="&#xfe;" 
d="M338 414q0 -123 73.5 -191.5t204.5 -68.5q137 0 208 91t71 269q0 360 -279 360q-132 0 -205 -68t-73 -192v-200zM328 133l5 -60l5 -102v-393l-21 -20h-165l-23 20v1874l21 21h161l19 -21v-553h4q118 148 319 148q215 0 337 -144t122 -389t-123 -387.5t-338 -142.5
q-197 0 -319 149h-4z" />
    <glyph glyph-name="ydieresis" unicode="&#xff;" horiz-adv-x="1006" 
d="M39 895v115l20 20h160l289 -792l278 792h158l21 -20v-115l-347 -907q-71 -180 -120.5 -263t-104 -121t-125.5 -38h-145l-21 20v148l21 20h67q66 0 113.5 54.5t93.5 191.5zM224 1169l-21 21v151l21 21h153l21 -21v-151l-21 -21h-153zM637 1169l-20 21v151l20 21h152
l20 -21v-151l-20 -21h-152z" />
    <glyph glyph-name="dotlessi" unicode="&#x131;" horiz-adv-x="469" 
d="M129 1010l21 20h167l21 -20v-990l-21 -20h-167l-21 20v990z" />
    <glyph glyph-name="Lslash" unicode="&#x141;" horiz-adv-x="1075" 
d="M168 0l-21 20v422l-18 11l-115 -66l-20 10v144l20 30l117 66l16 20v756l21 21h176l21 -21v-618l20 -15l295 168l20 -8v-145l-20 -33l-297 -168l-18 -27v-356l20 -21h610l21 -20v-150l-21 -20h-827z" />
    <glyph glyph-name="lslash" unicode="&#x142;" horiz-adv-x="563" 
d="M334 907l14 -10l101 55l20 -8v-119l-20 -32l-101 -56l-14 -26v-385q0 -88 25 -122t85 -34h78l21 -20v-140l-21 -20h-129q-268 0 -268 342v264l-16 10l-86 -49l-21 10v119l21 31l86 47l16 27v661l20 21h168l21 -21v-545z" />
    <glyph glyph-name="OE" unicode="&#x152;" horiz-adv-x="1937" 
d="M748 -20q-314 0 -485 193t-171 544t171 544t485 193q97 0 204 -20h883l20 -21v-151l-20 -21h-635l-20 -20v-367l20 -20h569l21 -21v-151l-21 -21h-569l-20 -20v-410l20 -21h635l20 -20v-150l-20 -20h-881q-84 -20 -206 -20zM748 1264q-211 0 -321 -140.5t-110 -406.5
t109.5 -407.5t321.5 -141.5q65 0 117.5 7t99.5 30v1020q-97 39 -217 39z" />
    <glyph glyph-name="oe" unicode="&#x153;" horiz-adv-x="1919" 
d="M1821 457h-719l-19 -19q26 -291 279 -291q97 0 153.5 29t90.5 98l20 17h172l17 -19q-40 -149 -156 -220.5t-305 -71.5q-258 0 -383 190q-131 -190 -396 -190q-231 0 -365 146t-134 392q0 244 133.5 388.5t370.5 144.5q267 0 397 -189q68 94 167 141.5t212 47.5
q233 0 360 -135t127 -379v-60zM866 518q0 356 -282 356q-291 0 -291 -356q0 -177 71.5 -269.5t208.5 -92.5q151 0 222 90t71 272zM1360 885q-120 0 -193 -67t-80 -181l19 -21h500l20 21q-11 124 -79.5 186t-186.5 62z" />
    <glyph glyph-name="Scaron" unicode="&#x160;" horiz-adv-x="1288" 
d="M1202 393q0 -192 -147.5 -302.5t-415.5 -110.5q-257 0 -398.5 93t-170.5 296l20 24h186l21 -22q32 -111 112 -157t240 -46q159 0 244.5 59t85.5 162q0 58 -24.5 96.5t-72 65.5t-118 47t-162.5 43q-198 48 -294.5 103.5t-141.5 135.5t-45 189q0 185 134 285t380 100
q235 0 369.5 -90.5t158.5 -267.5l-20 -21h-185l-20 21q-24 87 -100 127.5t-207 40.5q-289 0 -289 -193q0 -59 28 -97t92 -67t234 -71q178 -44 264.5 -83t137.5 -88.5t77.5 -116t26.5 -155.5zM741 1528h-188l-25 18l-14 19l-217 268l20 27h109l221 -209l209 209h108l21 -27
l-222 -287z" />
    <glyph glyph-name="scaron" unicode="&#x161;" horiz-adv-x="1047" 
d="M979 287q0 -307 -444 -307q-214 0 -326 65.5t-143 214.5l20 21h170l23 -21q25 -62 85 -89.5t177 -27.5q237 0 237 129q0 63 -60 95.5t-233 70.5q-221 48 -307 123t-86 203q0 143 109 215t317 72q389 0 434 -287l-18 -21h-160l-24 21q-22 69 -73 96t-159 27
q-223 0 -223 -115q0 -43 23 -67.5t81 -45.5t187 -49q223 -48 308 -120.5t85 -202.5zM625 1143h-188l-25 18l-223 287l20 27h109l213 -209l209 209h108l21 -27l-222 -287z" />
    <glyph glyph-name="Ydieresis" unicode="&#x178;" horiz-adv-x="1159" 
d="M580 807l385 627h139l20 -21v-121l-438 -696v-576l-20 -20h-174l-21 20v576l-436 696v121l20 21h144zM293 1540l-21 21v153l21 21h151l21 -21v-153l-21 -21h-151zM715 1540l-21 21v153l21 21h153l21 -21v-153l-21 -21h-153z" />
    <glyph glyph-name="Zcaron" unicode="&#x17d;" horiz-adv-x="1221" 
d="M1161 20l-20 -20h-1057l-21 20v146l779 1075h-690l-21 21v151l21 21h931l21 -21v-143l-776 -1080h813l20 -20v-150zM721 1528h-188l-25 18l-14 19l-217 268l20 27h109l221 -209l209 209h108l21 -27l-222 -287z" />
    <glyph glyph-name="zcaron" unicode="&#x17e;" horiz-adv-x="1020" 
d="M86 870v140l20 20h801l21 -20v-140l-580 -692h580l20 -20v-138l-20 -20h-836l-20 20v138l579 692h-545zM606 1143h-188l-25 18l-223 287l20 27h109l213 -209l209 209h108l21 -27l-222 -287z" />
    <glyph glyph-name="florin" unicode="&#x192;" 
d="M1014 1452l-25 -133l-24 -21h-78q-140 0 -176 -182l-13 -65l17 -21h196l17 -20l-25 -131l-24 -21h-197l-25 -22l-245 -1258l-25 -20h-168l-16 20l246 1260l-17 20h-125l-16 21l24 131l25 20h125l24 21l17 79q34 178 133 260.5t274 82.5h84z" />
    <glyph glyph-name="circumflex" unicode="&#x2c6;" horiz-adv-x="745" 
d="M711 1167l-21 -24h-108l-209 203l-213 -203h-109l-20 24l223 281l25 20h188l22 -20z" />
    <glyph glyph-name="caron" unicode="&#x2c7;" horiz-adv-x="745" 
d="M467 1143h-188l-25 18l-223 287l20 27h109l213 -209l209 209h108l21 -27l-222 -287z" />
    <glyph glyph-name="breve" unicode="&#x2d8;" horiz-adv-x="584" 
d="M293 1143q-145 0 -240 85.5t-104 219.5l20 20h111l20 -20q14 -74 68.5 -119t128.5 -45q76 0 128 45.5t64 118.5l21 20h108l21 -20q-17 -144 -108.5 -224.5t-237.5 -80.5z" />
    <glyph glyph-name="dotaccent" unicode="&#x2d9;" horiz-adv-x="469" 
d="M317 1473l21 -21v-195l-21 -20h-167l-21 20v195l21 21h167z" />
    <glyph glyph-name="ring" unicode="&#x2da;" horiz-adv-x="584" 
d="M43 1350q0 101 74.5 173t175.5 72q102 0 175 -71t73 -174t-72 -176.5t-176 -73.5t-177 73.5t-73 176.5zM150 1350q0 -61 41 -102.5t102 -41.5q60 0 101.5 42t41.5 102q0 58 -41.5 99.5t-101.5 41.5t-101.5 -42t-41.5 -99z" />
    <glyph glyph-name="ogonek" unicode="&#x2db;" horiz-adv-x="629" 
d="M281 -178q0 -45 31 -73t89 -28q43 0 99 15l20 -15v-86l-20 -26q-61 -23 -138 -23q-108 0 -168.5 56.5t-60.5 158.5q0 88 62.5 160t171.5 113l108 -35q-102 -51 -148 -103.5t-46 -113.5z" />
    <glyph glyph-name="tilde" unicode="&#x2dc;" horiz-adv-x="764" 
d="M530 1290q69 0 80 109l21 20h96l21 -20q-11 -130 -63.5 -193t-139.5 -63q-45 0 -88.5 20t-83 43.5l-75.5 43.5t-67 20q-25 0 -41 -10.5t-24.5 -29.5t-15.5 -67l-23 -20h-96l-19 20q7 134 59 195t144 61q46 0 91 -20t86 -44.5l76 -44.5t62 -20z" />
    <glyph glyph-name="hungarumlaut" unicode="&#x2dd;" horiz-adv-x="928" 
d="M102 1143l-20 26l242 293h192l21 -43l-322 -276h-113zM492 1143l-21 26l242 293h192l21 -43l-322 -276h-112z" />
    <glyph glyph-name="endash" unicode="&#x2013;" horiz-adv-x="1014" 
d="M20 457l-20 20v119l20 20h973l21 -20v-119l-21 -20h-973z" />
    <glyph glyph-name="emdash" unicode="&#x2014;" horiz-adv-x="2048" 
d="M20 457l-20 20v119l20 20h2008l20 -20v-119l-20 -20h-2008z" />
    <glyph glyph-name="quoteleft" unicode="&#x2018;" horiz-adv-x="416" 
d="M195 1434h96l20 -21q-78 -133 -88 -250l21 -20h57l21 -21v-182l-21 -20h-195l-20 20v141q0 87 18 168t64 164z" />
    <glyph glyph-name="quoteright" unicode="&#x2019;" horiz-adv-x="416" 
d="M219 920h-96l-21 20q77 127 88 250l-20 20h-57l-21 21v182l21 21h194l21 -21v-141q0 -188 -82 -332z" />
    <glyph glyph-name="quotesinglbase" unicode="&#x201a;" horiz-adv-x="440" 
d="M231 -291h-96l-20 21q78 129 88 250l-21 20h-57l-21 20v183l21 20h194l21 -20v-142q0 -89 -19 -171.5t-63 -159.5z" />
    <glyph glyph-name="quotedblleft" unicode="&#x201c;" horiz-adv-x="784" 
d="M195 1434h96l20 -21q-78 -133 -88 -250l21 -20h57l21 -21v-182l-21 -20h-195l-20 20v141q0 87 18 168t64 164zM563 1434h96l21 -21q-75 -129 -86 -250l20 -20h56l20 -21v-182l-20 -20h-195l-20 20v141q0 87 18 168t64 164z" />
    <glyph glyph-name="quotedblright" unicode="&#x201d;" horiz-adv-x="784" 
d="M590 920h-96l-21 20q75 127 86 250l-20 20h-56l-20 21v182l20 21h195l20 -21v-141q0 -188 -82 -332zM219 920h-96l-21 20q77 127 88 250l-20 20h-57l-21 21v182l21 21h194l21 -21v-141q0 -188 -82 -332z" />
    <glyph glyph-name="quotedblbase" unicode="&#x201e;" horiz-adv-x="784" 
d="M590 -291h-96l-21 21q75 125 86 250l-20 20h-56l-20 20v183l20 20h195l20 -20v-142q0 -89 -19 -171.5t-63 -159.5zM219 -291h-96l-21 21q77 124 88 250l-20 20h-57l-21 20v183l21 20h194l21 -20v-142q0 -89 -19 -171.5t-63 -159.5z" />
    <glyph glyph-name="dagger" unicode="&#x2020;" horiz-adv-x="1049" 
d="M567 -252h-88l-20 21l-25 1085l-20 20l-328 -14l-20 21v137l20 20l328 -14l20 20l-12 369l20 21h160l21 -21l-11 -371l21 -18l332 14l20 -20v-137l-20 -21l-332 14l-21 -20l-24 -1085z" />
    <glyph glyph-name="daggerdbl" unicode="&#x2021;" horiz-adv-x="1049" 
d="M588 580l24 -279l21 -20l332 14l20 -21v-137l-20 -20l-332 14l-21 -18l11 -371l-21 -21h-160l-20 21l12 369l-20 20l-328 -14l-20 20v137l20 21l328 -14l20 20l25 277l-25 276l-20 20l-328 -14l-20 21v137l20 20l328 -14l20 20l-12 369l20 21h160l21 -21l-11 -371l21 -18
l332 14l20 -20v-137l-20 -21l-332 14l-21 -20z" />
    <glyph glyph-name="bullet" unicode="&#x2022;" horiz-adv-x="815" 
d="M651 717q0 -103 -73.5 -175.5t-171.5 -72.5q-100 0 -172 72.5t-72 175.5q0 101 71 171t173 70q100 0 172.5 -70t72.5 -171z" />
    <glyph glyph-name="ellipsis" unicode="&#x2026;" horiz-adv-x="1276" 
d="M111 0l-21 20v205l21 21h188l20 -21v-205l-20 -20h-188zM543 0l-21 20v205l21 21h190l21 -21v-205l-21 -20h-190zM975 0l-21 20v205l21 21h190l21 -21v-205l-21 -20h-190z" />
    <glyph glyph-name="perthousand" unicode="&#x2030;" horiz-adv-x="2671" 
d="M752 987q0 -220 -84.5 -334t-247.5 -114q-332 0 -332 448q0 226 81.5 337.5t254.5 111.5q328 0 328 -449zM584 987q0 157 -37.5 232t-122.5 75q-90 0 -129 -71.5t-39 -235.5q0 -156 39.5 -230.5t124.5 -74.5q83 0 123.5 75.5t40.5 229.5zM1796 432q0 -222 -83.5 -335
t-248.5 -113q-331 0 -331 448q0 222 80 335.5t255 113.5q328 0 328 -449zM1628 430q0 159 -38 233t-122 74q-89 0 -127 -73t-38 -234q0 -158 39 -231.5t124 -73.5q83 0 122.5 76t39.5 229zM2583 432q0 -222 -83.5 -335t-248.5 -113q-332 0 -332 448q0 224 81.5 336.5
t254.5 112.5q328 0 328 -449zM2415 430q0 159 -38 233t-122 74q-89 0 -127.5 -72t-38.5 -235q0 -161 40.5 -233t123.5 -72t122.5 76t39.5 229zM711 0h-125l-15 20l607 1432l24 21h121l16 -21l-602 -1432z" />
    <glyph glyph-name="guilsinglleft" unicode="&#x2039;" horiz-adv-x="643" 
d="M397 141l-338 359v75l338 365h164l21 -39l-336 -364l338 -361l-21 -35h-166z" />
    <glyph glyph-name="guilsinglright" unicode="&#x203a;" horiz-adv-x="643" 
d="M80 141l-21 35l336 361l-334 364l21 39h164l338 -365v-75l-338 -359h-166z" />
    <glyph glyph-name="fraction" unicode="&#x2044;" horiz-adv-x="256" 
d="M-266 0h-121l-14 20l880 1393l25 21h117l16 -21l-877 -1393z" />
    <glyph glyph-name="foursuperior" unicode="&#x2074;" horiz-adv-x="821" 
d="M635 739l-8 -6v-143l-17 -17h-116l-17 17v143l-5 3l-3 3h-375l-16 17v116l379 547l20 15h133l17 -17v-536l8 -9h96l17 -16v-100l-17 -17h-96zM477 1239l-252 -367h244l8 9v358z" />
    <glyph glyph-name="Euro" unicode="&#x20ac;" 
d="M395 791l-20 -19v-104l22 -21h377l21 -20v-92l-21 -21h-364l-21 -18q22 -170 91.5 -250t197.5 -80q184 0 250 209l22 14h174l21 -18q-47 -195 -165 -293t-300 -98q-225 0 -351 128t-159 388l-18 18h-101l-20 21v92l20 20h88l19 19l-2 32v74l-17 19h-88l-20 20v92l20 21
h99l20 20q31 251 155 380.5t343 129.5q376 0 467 -371l-19 -18h-174l-24 14q-50 189 -240 189q-134 0 -201 -74.5t-90 -247.5l21 -22h366l21 -21v-92l-21 -20h-379z" />
    <glyph glyph-name="trademark" unicode="&#x2122;" horiz-adv-x="1559" 
d="M598 1434l10 -11v-92l-10 -10h-203l-10 -10v-584l-10 -10h-105l-10 10v584l-10 10h-203l-10 10v92l10 11h551zM1335 717l-10 10v422q0 85 4 147l-51 -143l-166 -426l-14 -10h-78l-14 10l-170 432q-27 58 -50 137l2 -147v-422l-10 -10h-96l-10 10v696l10 11h149l15 -11
l182 -458l31 -91l15 40l196 509l14 11h150l10 -11v-696l-10 -10h-99z" />
    <glyph glyph-name="partialdiff" unicode="&#x2202;" horiz-adv-x="1135" 
d="M340 1247l39 152q115 59 254 59q214 0 327 -136.5t113 -397.5q0 -263 -83 -487t-226.5 -343t-329.5 -119q-182 0 -281.5 100.5t-99.5 286.5q0 165 75 322t195 236t269 79q91 0 161 -39t107 -108q4 0 4 55v17q0 183 -66 281t-200 98q-115 0 -240 -74zM829 672
q-21 79 -81 129.5t-134 50.5q-93 0 -168.5 -61t-125.5 -183t-50 -243q0 -108 48.5 -169t138.5 -61q86 0 161.5 70t130.5 193t80 274z" />
    <glyph glyph-name="Delta" unicode="&#x2206;" horiz-adv-x="1262" 
d="M723 1434l20 -21l484 -1270v-123l-21 -20h-1151l-20 20v123l481 1270l21 21h186zM295 190h672v19l-336 917l-336 -917v-19z" />
    <glyph glyph-name="product" unicode="&#x220f;" horiz-adv-x="1413" 
d="M1243 1434l21 -21v-1835l-21 -20h-174l-20 20v1647l-21 20h-643l-20 -20v-1647l-21 -20h-176l-21 20v1835l21 21h1075z" />
    <glyph glyph-name="summation" unicode="&#x2211;" horiz-adv-x="1300" 
d="M137 1413l21 21h972l21 -21v-151l-21 -21h-720l467 -651v-135l-517 -707h842l21 -20v-150l-21 -20h-1087l-21 20v146l582 786l-539 760v143z" />
    <glyph glyph-name="minus" unicode="&#x2212;" 
d="M88 594l-20 20v136l20 20h1012l20 -20v-136l-20 -20h-1012z" />
    <glyph glyph-name="radical" unicode="&#x221a;" horiz-adv-x="1231" 
d="M692 -25h-94l-29 25l-258 721h-182l-20 20v105l20 22h289l221 -641l430 1393h156l-508 -1620z" />
    <glyph glyph-name="infinity" unicode="&#x221e;" horiz-adv-x="1653" 
d="M1597 590q0 -109 -48.5 -200.5t-136 -144t-191.5 -52.5q-244 0 -398 278q-77 -130 -180 -200t-211 -70q-169 0 -274 110.5t-105 290.5q0 110 48.5 201.5t136 143.5t196.5 52q241 0 389 -278q85 134 186 202t214 68q168 0 271 -109.5t103 -291.5zM1425 592q0 107 -65 173
t-166 66q-160 0 -285 -241q60 -115 128 -176.5t159 -61.5q101 0 165 67.5t64 172.5zM741 602q-58 114 -127 177t-159 63q-101 0 -164.5 -68.5t-63.5 -173.5q0 -106 62 -173t168 -67q154 0 284 242z" />
    <glyph glyph-name="integral" unicode="&#x222b;" horiz-adv-x="827" 
d="M315 1114q0 287 258 287h160l21 -21v-145l-21 -21h-119q-53 0 -71.5 -21t-18.5 -69v-1278q0 -143 -63.5 -215.5t-200.5 -72.5h-154l-20 20v143l20 21h119q54 0 72 22t18 68v1282z" />
    <glyph glyph-name="approxequal" unicode="&#x2248;" 
d="M850 776q-77 0 -151.5 22t-151.5 48q-129 45 -225 45q-60 0 -114.5 -16t-123.5 -60l-21 8v135l21 33q59 37 118.5 53.5t133.5 16.5q87 0 166.5 -22.5t150.5 -47.5q147 -47 217 -47q114 0 236 78l20 -8v-137l-20 -33q-64 -38 -119 -53t-137 -15zM850 295q-77 0 -151.5 22
t-151.5 48q-132 45 -225 45q-60 0 -114.5 -16t-123.5 -60l-21 8v133l21 33q59 37 118.5 53.5t133.5 16.5q119 0 317 -68q148 -53 217 -53q70 0 128 25t108 57l20 -9v-135l-20 -33q-65 -39 -119 -53t-137 -14z" />
    <glyph glyph-name="notequal" unicode="&#x2260;" 
d="M481 317l-131 -264l-31 -20h-131l-10 20l131 264h-221l-20 21v135l20 21h309l183 370h-492l-20 21v137l20 20h582l131 265l28 20h132l12 -20l-131 -265h258l20 -20v-137l-20 -21h-346l-185 -370h531l20 -21v-135l-20 -21h-619z" />
    <glyph glyph-name="lessequal" unicode="&#x2264;" 
d="M1122 1174l-20 -29l-854 -330l854 -332l20 -28v-140l-20 -12l-1014 391l-20 29v184l20 29l1014 391l20 -12v-141zM88 0l-20 20v136l20 20h1012l20 -20v-136l-20 -20h-1012z" />
    <glyph glyph-name="greaterequal" unicode="&#x2265;" 
d="M88 0l-20 20v136l20 20h1012l20 -20v-136l-20 -20h-1012zM68 1315l20 12l1012 -391l20 -29v-184l-20 -29l-1012 -391l-20 12v140l20 28l852 332l-852 330l-20 29v141z" />
    <glyph glyph-name="lozenge" unicode="&#x25ca;" horiz-adv-x="1120" 
d="M604 0h-94l-465 719l465 723h94l467 -721zM559 1239l-332 -518l332 -528l328 528z" />
    <glyph glyph-name="acute.uc" unicode="&#xe000;" horiz-adv-x="621" 
d="M113 1528l-21 26l242 293h192l21 -43l-322 -276h-112z" />
    <glyph glyph-name="grave.uc" unicode="&#xe001;" horiz-adv-x="621" 
d="M414 1528l-322 276l21 43h190l244 -293l-21 -26h-112z" />
    <glyph glyph-name="circumflex.uc" unicode="&#xe002;" horiz-adv-x="745" 
d="M711 1552l-21 -24h-108l-209 203l-213 -203h-109l-20 24l223 281l25 20h188l22 -20z" />
    <glyph glyph-name="breve.uc" unicode="&#xe003;" horiz-adv-x="584" 
d="M293 1520q-145 0 -240 85.5t-104 219.5l20 20h111l20 -20q14 -74 68.5 -119t128.5 -45q76 0 128 45.5t64 118.5l21 20h108l21 -20q-17 -144 -108.5 -224.5t-237.5 -80.5z" />
    <glyph glyph-name="caron.uc" unicode="&#xe004;" horiz-adv-x="745" 
d="M467 1528h-188l-25 18l-14 19l-217 268l20 27h109l221 -209l209 209h108l21 -27l-222 -287z" />
    <glyph glyph-name="tilde.uc" unicode="&#xe005;" horiz-adv-x="764" 
d="M530 1675q69 0 80 107l21 20h96l21 -20q-11 -130 -63.5 -193t-139.5 -63q-45 0 -88.5 20t-83 44.5t-75.5 44.5t-67 20q-35 0 -53.5 -20.5t-27.5 -88.5l-23 -20h-96l-19 20q7 135 59.5 195.5t143.5 60.5q46 0 91 -20t86 -43.5l76 -43.5t62 -20z" />
    <glyph glyph-name="ring.uc" unicode="&#xe006;" horiz-adv-x="584" 
d="M43 1757q0 102 73.5 175t176.5 73t175.5 -72t72.5 -176q0 -103 -72 -175.5t-176 -72.5q-103 0 -176.5 72.5t-73.5 175.5zM150 1757q0 -60 42 -101.5t101 -41.5q60 0 101.5 42t41.5 101q0 61 -42.5 102.5t-100.5 41.5t-100.5 -41.5t-42.5 -102.5z" />
    <glyph glyph-name="dieresis.uc" unicode="&#xe007;" horiz-adv-x="725" 
d="M70 1540l-21 21v153l21 21h151l21 -21v-153l-21 -21h-151zM492 1540l-21 21v153l21 21h153l21 -21v-153l-21 -21h-153z" />
    <glyph glyph-name="commaaccent" unicode="&#xf6c3;" horiz-adv-x="575" 
d="M303 1073h-94l-8 21q43 42 69.5 90.5t26.5 91.5h-94l-21 20v138l21 20h198l21 -20v-91q0 -157 -78 -249z" />
    <glyph glyph-name="fi" unicode="&#xfb01;" horiz-adv-x="1106" 
d="M627 1452v-133l-21 -21h-76q-141 0 -141 -182v-72l21 -20h196l21 -20v-132l-21 -20h-196l-21 -23v-809l-20 -20h-168l-21 20v811l-20 21h-94l-21 20v132l21 20h94l20 20v86q0 176 83 259.5t259 83.5h84zM954 1473l21 -21v-195l-21 -20h-167l-21 20v195l21 21h167z
M766 1010l21 20h167l21 -20v-990l-21 -20h-167l-21 20v990z" />
    <glyph glyph-name="fl" unicode="&#xfb02;" horiz-adv-x="1200" 
d="M627 1452v-133l-21 -21h-76q-141 0 -141 -182v-72l21 -20h196l21 -20v-132l-21 -20h-196l-21 -23v-809l-20 -20h-168l-21 20v811l-20 21h-94l-21 20v132l21 20h94l20 20v86q0 176 83 259.5t259 83.5h84zM971 326q0 -88 25 -122t85 -34h78l21 -20v-140l-21 -20h-129
q-268 0 -268 342v1120l20 21h168l21 -21v-1126z" />
    <glyph glyph-name="uni00AD" unicode="&#xad;" horiz-adv-x="696" 
d="M109 449l-21 20v141l21 21h481l20 -21v-141l-20 -20h-481z" />
    <glyph glyph-name="uni03A9" unicode="&#x3a9;" horiz-adv-x="1575" 
d="M791 1454q210 0 365.5 -72.5t239 -211.5t83.5 -332q0 -142 -41.5 -251.5t-126 -197.5t-246.5 -182v-17h422l20 -20v-150l-20 -20h-598l-21 20v234l25 25q135 84 212.5 162.5t112.5 163.5t35 216q0 206 -123.5 322.5t-341.5 116.5q-217 0 -340.5 -115.5t-123.5 -323.5
q0 -134 34.5 -218.5t111.5 -162t212 -161.5l27 -25v-234l-21 -20h-598l-20 20v150l20 20h422v17q-161 93 -245.5 181t-126.5 197.5t-42 252.5q0 288 185 452t508 164z" />
    <glyph glyph-name="pi" unicode="&#x3c0;" horiz-adv-x="1266" 
d="M430 20l-20 -20h-168l-21 20v809l-20 21h-135l-21 20v134l21 20h1132l21 -20v-134l-21 -20h-176l-21 -21v-503q0 -91 27 -123.5t105 -32.5h57l20 -20v-140l-20 -20h-98q-157 0 -228 82.5t-71 259.5v497l-21 21h-321l-21 -21v-809z" />
    <glyph glyph-name="Arrow.1" unicode="&#xe008;" horiz-adv-x="1262" 
d="M739 836v-816l-20 -20h-176l-21 20v816h-354l-21 20v121l416 457h135l416 -457v-121l-20 -20h-355z" />
    <glyph glyph-name="Arrow.2" unicode="&#xe009;" horiz-adv-x="1384" 
d="M1133 678l-332 246v-904l-21 -20h-176l-20 20v904l-332 -246h-84l-21 20v121l437 594l20 21h176l21 -21l436 -594v-121l-20 -20h-84z" />
    <glyph glyph-name="Arrow.3" unicode="&#xe00a;" horiz-adv-x="1384" 
d="M801 877v-857l-21 -20h-176l-20 20v857l-416 -41l-21 20v121l478 457h135l477 -457v-121l-20 -20z" />
    <glyph glyph-name="Arrow.4" unicode="&#xe00b;" horiz-adv-x="1262" 
d="M977 754l-238 112v-846l-20 -20h-176l-21 20v846l-241 -112h-113l-21 20v121l416 539h135l416 -539v-121l-20 -20h-117z" />
    <glyph glyph-name="Arrow.5" unicode="&#xe00c;" horiz-adv-x="1729" 
d="M745 825h816l20 -20v-176l-20 -21h-816v-354l-20 -21h-121l-457 416v135l457 416h121l20 -20v-355z" />
    <glyph glyph-name="Arrow.6" unicode="&#xe00d;" horiz-adv-x="1729" 
d="M903 1157l-246 -332h904l20 -20v-176l-20 -21h-904l246 -332v-83l-20 -21h-121l-594 436l-21 21v176l21 20l594 437h121l20 -21v-84z" />
    <glyph glyph-name="Arrow.7" unicode="&#xe00e;" horiz-adv-x="1729" 
d="M705 825h856l20 -20v-176l-20 -21h-856l40 -415l-20 -21h-121l-457 477v135l457 478h121l20 -21z" />
    <glyph glyph-name="Arrow.8" unicode="&#xe00f;" horiz-adv-x="1729" 
d="M827 1063l-112 -238h846l20 -20v-176l-20 -21h-846l112 -241v-113l-20 -21h-121l-539 416v135l539 416h121l20 -20v-117z" />
    </font>
</defs>
</svg>
