<?xml version="1.0" standalone="no"?>
<!DOCTYPE svg PUBLIC "-//W3C//DTD SVG 1.1//EN" "http://www.w3.org/Graphics/SVG/1.1/DTD/svg11.dtd" >
<svg>
<metadata>
Created by FontForge 20090622 at Tue Feb 20 16:40:42 2018
 By deploy user
Copyright &#194;&#169; 2011 NII Holdings, Inc. All rights reserved.  Derechos Reservados &#194;&#169; 2011 NII Holdings, Inc. EUA.  &#194;&#169; 2011 NII Holdings, Inc. Todos los Derechos Reservados
</metadata>
<defs>
<font id="NIISans-Bold" horiz-adv-x="1210" >
  <font-face 
    font-family="NII Sans"
    font-weight="700"
    font-stretch="normal"
    units-per-em="2048"
    panose-1="2 0 0 0 0 0 0 0 0 0"
    ascent="1638"
    descent="-410"
    x-height="1030"
    cap-height="1434"
    bbox="-408 -457 2730 2013"
    underline-thickness="102"
    underline-position="-103"
    unicode-range="U+000D-U+FB02"
  />
<missing-glyph horiz-adv-x="2048" 
d="M213 0v1536h1536v-1536h-1536zM342 129h1278v1278h-1278v-1278z" />
    <glyph glyph-name=".notdef" horiz-adv-x="2048" 
d="M213 0v1536h1536v-1536h-1536zM342 129h1278v1278h-1278v-1278z" />
    <glyph glyph-name="NULL" horiz-adv-x="0" 
 />
    <glyph glyph-name="nonmarkingreturn" unicode="&#xd;" horiz-adv-x="0" 
 />
    <glyph glyph-name="space" unicode=" " horiz-adv-x="500" 
 />
    <glyph glyph-name="exclam" unicode="!" horiz-adv-x="563" 
d="M147 0l-20 20v236l20 20h261l20 -20v-236l-20 -20h-261zM135 1001v412l21 21h250l20 -21v-412l-41 -552l-20 -21h-168l-21 21z" />
    <glyph glyph-name="quotedbl" unicode="&#x22;" horiz-adv-x="926" 
d="M340 967h-186l-23 20l-22 426l20 21h238l20 -21l-25 -426zM774 967h-186l-23 20l-22 426l20 21h238l20 -21l-24 -426z" />
    <glyph glyph-name="numbersign" unicode="#" horiz-adv-x="1204" 
d="M840 442l-33 -24l-111 -398l-26 -20h-150l-14 20l112 398l-16 24h-170l-26 -24l-111 -398l-27 -20h-149l-15 20l113 398l-18 24h-111l-20 21v149l20 21h164l31 22l47 164l-23 21h-137l-20 20v150l20 20h195l32 23l101 360l24 21h146l16 -21l-100 -360l16 -23h172l27 23
l100 360l25 21h145l16 -21l-100 -360l21 -23h114l21 -20v-150l-21 -20h-168l-34 -21l-46 -164l23 -22h143l21 -21v-149l-21 -21h-198zM713 840h-170l-27 -21l-45 -164l14 -22h168l31 22l47 164z" />
    <glyph glyph-name="dollar" unicode="$" 
d="M1147 412q0 -180 -110 -281t-324 -111l-21 -20v-131l-20 -21h-123l-21 21v131l-20 20q-211 9 -321.5 104.5t-141.5 291.5l21 20h231l20 -20q25 -93 66 -128t125 -42l20 22v312l-20 22q-217 48 -309.5 144.5t-92.5 259.5q0 176 102.5 273.5t299.5 106.5l20 17v96l21 21
h123l20 -21v-94l21 -19q346 -18 393 -350l-21 -20h-231l-20 20q-16 63 -42 93.5t-79 41.5l-21 -22v-279l21 -24q171 -40 258 -94t131.5 -137t44.5 -203zM528 893v258l-20 23q-71 -7 -100 -44t-29 -106t35 -103.5t94 -50.5zM868 406q0 67 -34 108.5t-121 63.5l-21 -25v-287
l21 -22q155 9 155 162z" />
    <glyph glyph-name="percent" unicode="%" horiz-adv-x="2009" 
d="M815 1001q0 -217 -91.5 -333.5t-266.5 -116.5q-176 0 -267.5 115t-91.5 335q0 226 88 336.5t275 110.5q181 0 267.5 -112.5t86.5 -334.5zM592 1001q0 146 -30.5 207.5t-100.5 61.5q-75 0 -107 -60t-32 -209q0 -143 31.5 -204.5t105.5 -61.5q72 0 102.5 63.5t30.5 202.5z
M1911 432q0 -220 -92 -334t-267 -114q-178 0 -268 114.5t-90 333.5q0 223 87 336t275 113q181 0 268 -113t87 -336zM1688 432q0 147 -30.5 207.5t-101.5 60.5q-75 0 -107 -59.5t-32 -208.5q0 -143 31.5 -204.5t105.5 -61.5q71 0 102.5 63.5t31.5 202.5zM786 0h-170l-14 20
l610 1432l25 21h166l16 -21l-606 -1432z" />
    <glyph glyph-name="ampersand" unicode="&#x26;" horiz-adv-x="1487" 
d="M1386 0h-137l-157 143h-23q-86 -70 -150 -101t-141.5 -46.5t-183.5 -15.5q-249 0 -393 115t-144 311q0 142 70 240t219 163v20q-139 129 -139 289q0 97 51.5 174t148.5 119.5t226 42.5q192 0 308 -93.5t116 -240.5q0 -108 -49.5 -191t-171.5 -161v-20l217 -197h22
q34 44 48 87t14 101l22 21h227l23 -21q0 -233 -125 -377v-20l125 -111v-211zM764 1106q0 53 -37 83t-96 30q-56 0 -93.5 -32t-37.5 -81q0 -47 35.5 -87.5t95.5 -86.5h22q111 67 111 174zM868 348l-323 299h-23q-83 -43 -116 -97t-33 -122q0 -82 62.5 -142.5t160.5 -60.5
q79 0 145.5 23t126.5 80v20z" />
    <glyph glyph-name="quotesingle" unicode="'" horiz-adv-x="494" 
d="M340 967h-186l-23 20l-22 426l20 21h238l20 -21l-25 -426z" />
    <glyph glyph-name="parenleft" unicode="(" horiz-adv-x="797" 
d="M119 514q0 270 79 490t265 450l29 19h251l13 -19q-185 -231 -266.5 -453t-81.5 -489q0 -268 81 -486.5t265 -447.5l-6 -20h-252l-35 20q-183 226 -262.5 443.5t-79.5 492.5z" />
    <glyph glyph-name="parenright" unicode=")" horiz-adv-x="797" 
d="M678 514q0 -270 -78.5 -487.5t-263.5 -448.5l-35 -20h-252l-6 20q186 235 266 453t80 481q0 267 -82 489.5t-266 452.5l12 19h252l29 -19q187 -231 265.5 -451t78.5 -489z" />
    <glyph glyph-name="asterisk" unicode="*" horiz-adv-x="928" 
d="M559 1155l256 88l27 -10l55 -152l-14 -26l-260 -72l163 -235l-4 -31l-141 -74l-31 10l-147 256l-150 -254l-32 -10l-140 72l-4 31l164 235l-258 72l-12 28l53 152l29 8l258 -86l-11 277l21 20h170l20 -20z" />
    <glyph glyph-name="plus" unicode="+" 
d="M741 567l-20 -20v-389l-21 -21h-192l-21 21v389l-20 20h-379l-20 21v188l20 21h379l20 20v387l21 21h192l21 -21v-387l20 -20h379l21 -21v-188l-21 -21h-379z" />
    <glyph glyph-name="comma" unicode="," horiz-adv-x="473" 
d="M283 -322h-144l-20 21q78 140 90 281l-21 20h-79l-21 20v271l21 20h256l20 -20v-223q0 -101 -17 -187t-59 -182z" />
    <glyph glyph-name="hyphen" unicode="-" horiz-adv-x="686" 
d="M104 408l-20 20v213l20 21h482l20 -21v-213l-20 -20h-482z" />
    <glyph glyph-name="period" unicode="." horiz-adv-x="473" 
d="M109 0l-21 20v273l21 20h256l20 -20v-273l-20 -20h-256z" />
    <glyph glyph-name="slash" unicode="/" horiz-adv-x="950" 
d="M295 0h-252l-14 20l610 1432l25 21h247l17 -21l-606 -1432z" />
    <glyph glyph-name="zero" unicode="0" 
d="M1137 717q0 -240 -64 -405.5t-183.5 -248.5t-287.5 -83q-260 0 -395 190t-135 547q0 367 131.5 552t404.5 185q266 0 397.5 -187.5t131.5 -549.5zM834 717q0 265 -51.5 377t-174.5 112q-129 0 -181 -110t-52 -379q0 -262 52.5 -375t176.5 -113q122 0 176 115.5t54 372.5z
" />
    <glyph glyph-name="one" unicode="1" 
d="M494 1434h266l20 -21v-1147l21 -20h235l21 -21v-205l-21 -20h-850l-20 20v205l20 21h273l20 20v871l-168 -99h-135l-20 21v176z" />
    <glyph glyph-name="two" unicode="2" 
d="M109 0l-21 20v218l434 407q138 128 186 184.5t68.5 103t20.5 101.5q0 80 -46.5 123t-136.5 43q-83 0 -135.5 -36.5t-68.5 -104.5l-21 -21h-268l-21 21q34 194 165 294.5t351 100.5q232 0 359 -104.5t127 -302.5q0 -128 -59.5 -235.5t-229.5 -262.5l-317 -289h608l20 -20
v-220l-20 -20h-995z" />
    <glyph glyph-name="three" unicode="3" 
d="M104 1071q23 186 150.5 284.5t361.5 98.5q233 0 362.5 -102t129.5 -279q0 -253 -291 -336v-4q152 -28 235 -115t83 -221q0 -199 -136 -308t-391 -109q-231 0 -372 103.5t-166 293.5l20 20h268l21 -20q36 -144 229 -144q217 0 217 183q0 84 -76 133t-204 49h-88l-21 20
v216l21 20h82q114 0 189 49t75 135q0 81 -50 122.5t-143 41.5q-173 0 -202 -131l-21 -20h-262z" />
    <glyph glyph-name="four" unicode="4" 
d="M991 264l-20 -20v-224l-21 -20h-243l-21 20v224l-20 20h-596l-21 21v235l569 893l33 21h299l21 -21v-883l20 -20h144l20 -21v-204l-20 -21h-144zM686 1096l-364 -586h344l20 20v566z" />
    <glyph glyph-name="five" unicode="5" 
d="M1137 477q0 -149 -66 -262t-191 -174t-290 -61q-227 0 -359.5 96t-156.5 274l20 21h268l21 -21q28 -64 79 -90.5t132 -26.5q114 0 172.5 63.5t58.5 174.5q0 107 -60.5 168t-166.5 61q-60 0 -111.5 -19t-83.5 -54h-272l-20 20l45 766l22 21h856l21 -21v-211l-21 -20h-592
l-22 -21l-21 -295q113 90 269 90q218 0 343.5 -130.5t125.5 -348.5z" />
    <glyph glyph-name="six" unicode="6" 
d="M84 678q0 373 146 574.5t415 201.5q387 0 455 -326l-21 -20h-258l-20 20q-26 45 -65.5 60.5t-92.5 15.5q-126 0 -194 -110.5t-68 -311.5q59 71 140.5 107.5t174.5 36.5q197 0 318 -126t121 -333q0 -224 -136.5 -355.5t-369.5 -131.5q-266 0 -405.5 178.5t-139.5 519.5z
M401 487q0 -114 60.5 -187t156.5 -73q97 0 155 61t58 171q0 111 -60.5 170t-160.5 59q-91 0 -150 -56.5t-59 -144.5z" />
    <glyph glyph-name="seven" unicode="7" 
d="M551 0h-232l-20 20v164l512 998h-721l-20 20v211l20 21h1016l20 -21v-215z" />
    <glyph glyph-name="eight" unicode="8" 
d="M1135 406q0 -201 -138.5 -313.5t-390.5 -112.5q-251 0 -391.5 112t-140.5 311q0 126 64 212.5t202 134.5v4q-110 43 -172 130.5t-62 198.5q0 110 60 195t173 130.5t263 45.5q159 0 271 -45.5t169.5 -130t57.5 -197.5q0 -115 -65.5 -203.5t-170.5 -121.5v-4
q140 -43 205.5 -128.5t65.5 -217.5zM788 1055q0 176 -186 176q-97 0 -141.5 -48t-44.5 -128q0 -90 49.5 -140.5t138.5 -50.5t136.5 47.5t47.5 143.5zM821 430q0 99 -57 152t-164 53q-101 0 -158 -56t-57 -153q0 -107 57 -164t166 -57q107 0 160 54t53 171z" />
    <glyph glyph-name="nine" unicode="9" 
d="M1135 739q0 -365 -141 -562t-404 -197q-404 0 -481 342l20 20h252l20 -20q60 -93 189 -93q115 0 179.5 107t66.5 301q-46 -63 -136 -99t-186 -36q-201 0 -314.5 125t-113.5 340q0 231 133 359t373 128q267 0 405 -182.5t138 -532.5zM817 944q0 118 -62.5 190t-158.5 72
t-150.5 -58.5t-54.5 -172.5q0 -109 52.5 -171.5t152.5 -62.5q57 0 109.5 25.5t82 71t29.5 106.5z" />
    <glyph glyph-name="colon" unicode=":" horiz-adv-x="473" 
d="M109 717l-21 20v273l21 20h256l20 -20v-273l-20 -20h-256zM109 0l-21 20v273l21 20h256l20 -20v-273l-20 -20h-256z" />
    <glyph glyph-name="semicolon" unicode=";" horiz-adv-x="473" 
d="M109 717l-21 20v273l21 20h256l20 -20v-273l-20 -20h-256zM283 -322h-144l-20 21q78 140 90 281l-21 20h-79l-21 20v271l21 20h256l20 -20v-223q0 -101 -17 -187t-59 -182z" />
    <glyph glyph-name="less" unicode="&#x3c;" 
d="M1143 1018l-21 -29l-843 -313l843 -311l21 -29v-195l-21 -12l-1034 373l-20 28v291l20 29l1034 375l21 -13v-194z" />
    <glyph glyph-name="equal" unicode="=" 
d="M88 840l-20 20v191l20 20h1032l21 -20v-191l-21 -20h-1032zM88 285l-20 20v191l20 20h1032l21 -20v-191l-21 -20h-1032z" />
    <glyph glyph-name="greater" unicode="&#x3e;" 
d="M68 1212l20 13l1032 -375l21 -29v-291l-21 -28l-1032 -373l-20 12v195l20 29l842 311l-842 313l-20 29v194z" />
    <glyph glyph-name="question" unicode="?" horiz-adv-x="1118" 
d="M1081 1038q0 -101 -49 -188.5t-164 -173.5l-71 -55q-65 -49 -95.5 -89t-39.5 -83l-21 -21h-233l-21 21q6 90 54.5 167t166.5 164q105 78 142.5 132t37.5 114q0 84 -55.5 134t-159.5 50q-102 0 -165.5 -42t-77.5 -126l-21 -20h-252l-20 20q28 192 169.5 302t360.5 110
q236 0 375 -113.5t139 -302.5zM399 0l-20 20v236l20 20h256l21 -20v-236l-21 -20h-256z" />
    <glyph glyph-name="at" unicode="@" horiz-adv-x="1872" 
d="M1413 135q-84 0 -152.5 39t-109.5 113h-6q-52 -71 -131.5 -111.5t-163.5 -40.5q-172 0 -268.5 120t-96.5 337q0 215 95.5 335t269.5 120q88 0 147 -27.5t111 -89.5h6v86l19 20h188l16 -20v-559q0 -73 31.5 -107.5t73.5 -34.5q85 0 126.5 81.5t41.5 254.5q0 177 -83 324.5
t-232.5 230t-333.5 82.5q-204 0 -362.5 -88.5t-244.5 -250t-86 -361.5q0 -202 82 -364.5t232 -252.5t346 -90q297 0 438 125l23 21h204l19 -21q-72 -150 -248 -231.5t-434 -81.5q-255 0 -450 108.5t-307 319.5t-112 481q0 247 113.5 447.5t319 312t467.5 111.5
q252 0 442 -101.5t298.5 -294t108.5 -436.5q0 -242 -103.5 -374t-293.5 -132zM1104 655q0 89 -51 139t-138 50q-95 0 -138.5 -64t-43.5 -188t43 -188t139 -64q88 0 138.5 49t50.5 137v129z" />
    <glyph glyph-name="A" unicode="A" horiz-adv-x="1311" 
d="M815 1434l21 -21l446 -1227v-166l-20 -20h-238l-98 291l-23 18h-497l-23 -18l-96 -291h-238l-20 20v166l446 1227l21 21h319zM481 580l15 -17h319l14 17l-174 524z" />
    <glyph glyph-name="B" unicode="B" horiz-adv-x="1368" 
d="M924 1028q0 89 -58.5 123.5t-175.5 34.5h-225l-21 -21v-282l21 -21h227q122 0 177 41.5t55 124.5zM979 444q0 86 -63.5 128t-223.5 42h-227l-21 -20v-326l21 -20h242q143 0 207.5 49t64.5 147zM164 0l-21 20v1393l21 21h543q262 0 393 -92t131 -263q0 -131 -55.5 -204.5
t-192.5 -116.5v-17q153 -18 228 -94.5t75 -226.5q0 -199 -142.5 -309.5t-404.5 -110.5h-575z" />
    <glyph glyph-name="C" unicode="C" horiz-adv-x="1444" 
d="M1339 975h-278l-23 14q-29 106 -94 157.5t-186 51.5q-363 0 -363 -481t363 -481q112 0 181 56.5t97 156.5l21 18h291l18 -21q-59 -235 -210 -350.5t-398 -115.5q-327 0 -501.5 192t-174.5 545t174.5 545t501.5 192q256 0 407 -116.5t193 -344.5z" />
    <glyph glyph-name="D" unicode="D" horiz-adv-x="1434" 
d="M1038 739q0 447 -444 447h-129l-21 -21v-897l21 -20h129q229 0 336.5 122.5t107.5 368.5zM1352 737q0 -356 -191.5 -546.5t-546.5 -190.5h-450l-21 20v1393l21 21h434q371 0 562.5 -175.5t191.5 -521.5z" />
    <glyph glyph-name="E" unicode="E" horiz-adv-x="1202" 
d="M164 0l-21 20v1393l21 21h936l20 -21v-219l-20 -20h-635l-21 -21v-264l21 -21h569l21 -20v-219l-21 -21h-569l-21 -20v-307l21 -21h635l20 -20v-220l-20 -20h-936z" />
    <glyph glyph-name="F" unicode="F" horiz-adv-x="1182" 
d="M164 0l-21 20v1393l21 21h936l20 -21v-219l-20 -20h-635l-21 -21v-264l21 -21h569l21 -20v-219l-21 -21h-569l-21 -20v-568l-20 -20h-260z" />
    <glyph glyph-name="G" unicode="G" horiz-adv-x="1511" 
d="M1368 774l21 -20v-734l-21 -20h-240l-20 20v121q-60 -82 -155 -121.5t-236 -39.5q-301 0 -468 194t-167 543q0 353 174.5 545t501.5 192q266 0 422.5 -117t197.5 -344l-18 -18h-279l-22 14q-29 106 -99 157.5t-202 51.5q-363 0 -363 -481t363 -481q270 0 350 225v33
l-21 20h-268l-20 21v219l20 20h549z" />
    <glyph glyph-name="H" unicode="H" horiz-adv-x="1454" 
d="M1290 0h-260l-20 20v570l-21 20h-524l-21 -20v-570l-20 -20h-260l-21 20v1393l21 21h260l20 -21v-528l21 -21h524l21 21v528l20 21h260l21 -21v-1393z" />
    <glyph glyph-name="I" unicode="I" horiz-adv-x="588" 
d="M444 20l-20 -20h-260l-21 20v1393l21 21h260l20 -21v-1393z" />
    <glyph glyph-name="J" unicode="J" horiz-adv-x="1200" 
d="M1067 1413v-921q0 -244 -128.5 -378t-358.5 -134q-239 0 -364.5 110t-152.5 356l19 21h270l21 -18q13 -106 65 -159.5t137 -53.5q104 0 147.5 62.5t43.5 219.5v895l20 21h261z" />
    <glyph glyph-name="K" unicode="K" horiz-adv-x="1335" 
d="M1049 1434h188l20 -21v-166l-462 -504v-20l512 -539v-164l-21 -20h-207l-635 696v-676l-20 -20h-260l-21 20v1393l21 21h260l20 -21v-655z" />
    <glyph glyph-name="L" unicode="L" horiz-adv-x="1139" 
d="M164 0l-21 20v1393l21 21h260l20 -21v-1132l21 -21h588l20 -20v-220l-20 -20h-889z" />
    <glyph glyph-name="M" unicode="M" horiz-adv-x="1898" 
d="M1491 0l-21 20v826q0 76 7 293l-23 -70l-375 -1049l-28 -20h-199l-29 20l-319 875q-65 174 -84 244l4 -293v-826l-21 -20h-239l-21 20v1393l21 21h389l29 -21l307 -838q46 -125 63 -192l365 1030l29 21h389l20 -21v-1393l-20 -20h-244z" />
    <glyph glyph-name="N" unicode="N" horiz-adv-x="1606" 
d="M1102 0l-33 20l-651 1061q10 -155 10 -258v-803l-20 -20h-244l-21 20v1393l21 21h336l32 -21l658 -1069q-2 42 -6 109t-4 170v790l20 21h242l20 -21v-1393l-20 -20h-340z" />
    <glyph glyph-name="O" unicode="O" horiz-adv-x="1516" 
d="M1120 717q0 481 -362 481q-363 0 -363 -481t363 -481q362 0 362 481zM758 1454q327 0 501.5 -192t174.5 -545q0 -356 -175 -546.5t-501 -190.5q-327 0 -501.5 192t-174.5 545t174.5 545t501.5 192z" />
    <glyph glyph-name="P" unicode="P" horiz-adv-x="1309" 
d="M936 979q0 97 -67 152t-189 55h-215l-21 -19v-385l21 -20h223q115 0 181.5 57.5t66.5 159.5zM1243 981q0 -137 -61.5 -242.5t-178 -164t-278.5 -58.5h-260l-21 -20v-476l-20 -20h-260l-21 20v1393l21 21h551q255 0 391.5 -119t136.5 -334z" />
    <glyph glyph-name="Q" unicode="Q" horiz-adv-x="1516" 
d="M758 1454q327 0 501.5 -192t174.5 -545q0 -256 -95 -432l152 -121v-164l-21 -20h-196l-125 100q-160 -100 -391 -100q-327 0 -501.5 192t-174.5 545t174.5 545t501.5 192zM778 541l21 20h196l97 -78q28 102 28 234q0 481 -362 481q-363 0 -363 -481t363 -481q92 0 157 30
l-137 111v164z" />
    <glyph glyph-name="R" unicode="R" horiz-adv-x="1321" 
d="M629 547h-164l-21 -21v-506l-20 -20h-260l-21 20v1393l21 21h551q255 0 391.5 -114t136.5 -319q0 -153 -82.5 -265.5t-222.5 -153.5l311 -398v-164l-20 -20h-197zM936 999q0 100 -66 143.5t-186 43.5h-219l-21 -21v-352l21 -20h227q244 0 244 206z" />
    <glyph glyph-name="S" unicode="S" horiz-adv-x="1370" 
d="M1290 408q0 -211 -156 -319.5t-454 -108.5q-288 0 -440 105.5t-179 324.5l21 20h270l21 -20q31 -97 105 -135.5t212 -38.5t212.5 43.5t74.5 117.5q0 54 -33 90t-95 61t-237 60q-272 53 -382.5 161.5t-110.5 289.5q0 193 144.5 294t420.5 101q540 0 565 -385l-20 -20h-271
l-20 20q-12 65 -74 97t-186 32q-123 0 -184.5 -33.5t-61.5 -105.5q0 -44 25.5 -72.5t76.5 -50t218 -59.5q183 -42 275 -81.5t148.5 -94t85.5 -127t29 -166.5z" />
    <glyph glyph-name="T" unicode="T" horiz-adv-x="1227" 
d="M1186 1434l20 -21v-219l-20 -20h-402l-20 -21v-1133l-21 -20h-260l-20 20v1133l-21 21h-401l-21 20v219l21 21h1145z" />
    <glyph glyph-name="U" unicode="U" horiz-adv-x="1452" 
d="M1319 1413v-862q0 -278 -158 -424.5t-450 -146.5q-282 0 -430 140.5t-148 416.5v876l21 21h260l20 -21v-854q0 -161 69 -242t216 -81q148 0 223.5 85t75.5 250v842l20 21h260z" />
    <glyph glyph-name="V" unicode="V" horiz-adv-x="1311" 
d="M496 0l-21 20l-446 1227v166l20 21h248l358 -1059l359 1059h248l20 -21v-166l-446 -1227l-21 -20h-319z" />
    <glyph glyph-name="W" unicode="W" horiz-adv-x="2056" 
d="M590 307l270 1106l27 21h287l26 -21l270 -1106q65 231 86 326l191 801h260l21 -21v-166l-172 -616q-88 -326 -173 -611l-26 -20h-338l-27 20l-196 789q-48 195 -64 301q-35 -203 -59 -299l-205 -791l-27 -20h-338l-26 20l-348 1227v166l20 21h262z" />
    <glyph glyph-name="X" unicode="X" horiz-adv-x="1280" 
d="M842 754l409 -568v-166l-20 -20h-201l-389 547l-391 -547h-201l-20 20v166l426 568l-385 493v166l20 21h201l350 -486l348 486h201l20 -21v-166z" />
    <glyph glyph-name="Y" unicode="Y" horiz-adv-x="1233" 
d="M614 846l355 588h215l20 -21v-166l-438 -702v-525l-21 -20h-260l-20 20v525l-436 702v166l20 21h215z" />
    <glyph glyph-name="Z" unicode="Z" horiz-adv-x="1255" 
d="M1208 20l-20 -20h-1108l-21 20v216l732 935h-654l-20 21v221l20 21h993l21 -21v-213l-731 -940h768l20 -20v-220z" />
    <glyph glyph-name="bracketleft" unicode="[" horiz-adv-x="758" 
d="M154 -424v1878l20 19h533l20 -19v-178l-20 -21h-256l-21 -20v-1440l21 -20h256l20 -21v-178l-20 -18h-533z" />
    <glyph glyph-name="backslash" unicode="\" horiz-adv-x="950" 
d="M29 1452l16 21h248l24 -21l603 -1432l-15 -20h-252l-26 20z" />
    <glyph glyph-name="bracketright" unicode="]" horiz-adv-x="758" 
d="M584 -442h-533l-20 18v178l20 21h256l21 20v1440l-21 20h-256l-20 21v178l20 19h533l20 -19v-1878z" />
    <glyph glyph-name="asciicircum" unicode="^" 
d="M944 539l-29 20l-311 725l-313 -725l-29 -20h-192l-13 20l373 854l29 21h291l28 -21l375 -854l-12 -20h-197z" />
    <glyph glyph-name="underscore" unicode="_" horiz-adv-x="1024" 
d="M0 -295l-20 21v96l20 20h1024l20 -20v-96l-20 -21h-1024z" />
    <glyph glyph-name="grave" unicode="`" horiz-adv-x="621" 
d="M403 1143l-342 276l21 43h242l251 -297l-20 -22h-152z" />
    <glyph glyph-name="a" unicode="a" horiz-adv-x="1161" 
d="M375 315q0 -69 40.5 -100t119.5 -31q104 0 163.5 60t59.5 168l-21 22q-93 10 -188 10t-134.5 -30.5t-39.5 -98.5zM127 754q19 144 139 220.5t324 76.5q236 0 347.5 -93.5t111.5 -298.5v-639l-21 -20h-244l-20 20v111l-6 -2q-47 -61 -91 -89t-105 -44t-150 -16
q-165 0 -252.5 84t-87.5 249q0 168 109.5 246t346.5 78q112 0 209 -10l21 18q0 111 -40 156t-128 45q-78 0 -114 -22t-48 -72l-25 -19h-260z" />
    <glyph glyph-name="b" unicode="b" horiz-adv-x="1214" 
d="M416 432q0 -100 56.5 -156.5t158.5 -56.5q109 0 158 74t49 225q0 149 -48 221t-159 72q-102 0 -158.5 -56.5t-56.5 -156.5v-166zM399 119v-99l-20 -20h-234l-20 20v1432l20 21h250l21 -21v-387q0 -32 -13 -158h5q112 137 297 137q205 0 321.5 -141t116.5 -385
q0 -246 -117.5 -389t-320.5 -143q-98 0 -169 33.5t-128 99.5h-9z" />
    <glyph glyph-name="c" unicode="c" horiz-adv-x="1118" 
d="M580 221q83 0 125.5 23.5t62.5 81.5l23 16h247l19 -18q-32 -177 -153 -260.5t-335 -83.5q-235 0 -366 145t-131 395q0 165 62.5 284.5t177.5 183t263 63.5q209 0 328.5 -79.5t153.5 -254.5l-19 -19h-247l-23 15q-22 56 -64 77t-114 21q-114 0 -164.5 -70t-50.5 -223
q0 -151 49 -224t156 -73z" />
    <glyph glyph-name="d" unicode="d" horiz-adv-x="1214" 
d="M799 598q0 100 -56.5 156.5t-158.5 56.5q-112 0 -159.5 -73t-47.5 -220q0 -151 49 -225t158 -74q102 0 158.5 56.5t56.5 156.5v166zM807 119q-57 -66 -128.5 -99.5t-168.5 -33.5q-204 0 -321 142.5t-117 389.5q0 244 116.5 385t321.5 141q185 0 297 -137h4
q-12 116 -12 158v387l20 21h250l21 -21v-1432l-21 -20h-233l-21 20v99h-8z" />
    <glyph glyph-name="e" unicode="e" horiz-adv-x="1149" 
d="M1057 436h-664l-16 -18q17 -215 207 -215q72 0 117 20.5t67 77.5l23 14h247l19 -18q-31 -165 -151 -241t-337 -76q-235 0 -366 145t-131 395q0 165 62.5 284.5t177.5 183t263 63.5q243 0 372.5 -138t129.5 -395v-61zM584 829q-93 0 -145 -44t-60 -121l14 -21h365l18 21
q-23 165 -192 165z" />
    <glyph glyph-name="f" unicode="f" horiz-adv-x="713" 
d="M705 1452v-197l-21 -20h-84q-66 0 -99.5 -43.5t-33.5 -114.5v-33l20 -20h197l21 -20v-195l-21 -21h-197l-20 -22v-746l-21 -20h-249l-21 20v748l-20 20h-95l-20 21v195l20 20h95l20 20v62q0 187 98.5 277t313.5 90h96z" />
    <glyph glyph-name="g" unicode="g" horiz-adv-x="1214" 
d="M803 137q-66 -75 -134 -104t-159 -29q-202 0 -320 140.5t-118 379.5q0 240 118.5 380t319.5 140q92 0 160.5 -29.5t132.5 -103.5h8v99l20 20h238l21 -20v-981q0 -252 -116.5 -369t-371.5 -117q-228 0 -344 75.5t-152 250.5l19 18h250l20 -14q19 -57 66 -81.5t139 -24.5
q103 0 151 66t48 206q0 26 12 98h-8zM799 598q0 100 -56.5 156.5t-158.5 56.5q-108 0 -157.5 -71t-49.5 -216t50 -215.5t157 -70.5q101 0 158 55.5t57 157.5v147z" />
    <glyph glyph-name="h" unicode="h" horiz-adv-x="1223" 
d="M725 1051q186 0 285.5 -97.5t99.5 -287.5v-646l-20 -20h-250l-21 20v605q0 86 -44 131t-128 45q-115 0 -173 -51.5t-58 -151.5v-578l-21 -20h-250l-20 20v1432l20 21h250l21 -21v-397q0 -22 -13 -148h5q61 74 137.5 109t179.5 35z" />
    <glyph glyph-name="i" unicode="i" horiz-adv-x="541" 
d="M395 1473l21 -21v-215l-21 -20h-250l-20 20v215l20 21h250zM125 1010l20 20h250l21 -20v-990l-21 -20h-250l-20 20v990z" />
    <glyph glyph-name="j" unicode="j" horiz-adv-x="541" 
d="M125 1010l20 20h250l21 -20v-1112q0 -151 -84.5 -245.5t-216.5 -94.5h-158l-20 20v209l20 20h41q59 0 93 37.5t34 112.5v1053zM395 1473l21 -21v-215l-21 -20h-250l-20 20v215l20 21h250z" />
    <glyph glyph-name="k" unicode="k" horiz-adv-x="1092" 
d="M416 555l395 475h205l20 -20v-166l-282 -303v-21l307 -336v-164l-21 -20h-206l-418 500v-480l-21 -20h-250l-20 20v1432l20 21h250l21 -21v-897z" />
    <glyph glyph-name="l" unicode="l" horiz-adv-x="625" 
d="M416 326q0 -42 18.5 -64t71.5 -22h78l20 -21v-209l-20 -20h-158q-139 0 -220 92.5t-81 247.5v1122l20 21h250l21 -21v-1126z" />
    <glyph glyph-name="m" unicode="m" horiz-adv-x="1876" 
d="M715 1051q109 0 193 -36.5t126 -107.5h31q59 74 136 109t188 35q180 0 277 -97.5t97 -287.5v-646l-20 -20h-250l-20 20v605q0 86 -42 131t-122 45q-108 0 -163.5 -49t-55.5 -144v-588l-21 -20h-250l-20 20v605q0 86 -42 131t-122 45q-219 0 -219 -203v-578l-21 -20h-250
l-20 20v990l20 20h242l21 -20v-103h4q59 74 130.5 109t172.5 35z" />
    <glyph glyph-name="n" unicode="n" horiz-adv-x="1223" 
d="M725 1051q186 0 285.5 -97.5t99.5 -287.5v-646l-20 -20h-250l-21 20v605q0 86 -44 131t-128 45q-115 0 -173 -51.5t-58 -151.5v-578l-21 -20h-250l-20 20v990l20 20h242l21 -20v-103h4q62 75 137 109.5t176 34.5z" />
    <glyph glyph-name="o" unicode="o" horiz-adv-x="1192" 
d="M1120 518q0 -251 -141.5 -394.5t-386.5 -143.5q-241 0 -380.5 146t-139.5 392q0 245 138.5 389t385.5 144q253 0 388.5 -139t135.5 -394zM815 518q0 152 -51.5 222.5t-163.5 70.5q-116 0 -170.5 -70t-54.5 -223q0 -148 52.5 -222.5t162.5 -74.5q121 0 173 72.5t52 224.5z
" />
    <glyph glyph-name="p" unicode="p" horiz-adv-x="1214" 
d="M416 432q0 -100 56.5 -156.5t158.5 -56.5q109 0 158 74t49 225q0 149 -48 221t-159 72q-102 0 -158.5 -56.5t-56.5 -156.5v-166zM403 123q13 -121 13 -148v-397l-21 -20h-250l-20 20v1434l20 20h238l20 -20v-105h5q112 137 297 137q205 0 321.5 -141t116.5 -385
q0 -246 -117.5 -389t-320.5 -143q-94 0 -163.5 33t-133.5 104h-5z" />
    <glyph glyph-name="q" unicode="q" horiz-adv-x="1214" 
d="M799 598q0 100 -56.5 156.5t-158.5 56.5q-112 0 -159.5 -73t-47.5 -220q0 -151 49 -225t158 -74q102 0 158.5 56.5t56.5 156.5v166zM807 123q-72 -77 -140.5 -107t-156.5 -30q-204 0 -321 142.5t-117 389.5q0 244 116.5 385t321.5 141q185 0 297 -137h4v105l20 20h238
l21 -20v-1434l-21 -20h-250l-20 20v397q0 36 12 148h-4z" />
    <glyph glyph-name="r" unicode="r" horiz-adv-x="797" 
d="M416 20l-21 -20h-250l-20 20v990l20 20h242l21 -20v-136h4q62 85 139.5 131t161.5 46h43l20 -21v-252l-20 -20h-64q-102 0 -157.5 -25t-87 -77t-31.5 -140v-496z" />
    <glyph glyph-name="s" unicode="s" horiz-adv-x="1057" 
d="M530 831q-165 0 -165 -73q0 -42 42.5 -62.5t225.5 -54.5q207 -39 290 -116.5t83 -221.5q0 -168 -115 -245.5t-354 -77.5q-152 0 -249.5 31t-153.5 94t-83 188l19 18h247l23 -16q20 -50 67.5 -73t139.5 -23q81 0 125.5 19t44.5 67q0 37 -20.5 56t-74 34.5t-176.5 38.5
q-200 39 -284 117t-84 217q0 303 452 303q400 0 449 -316l-18 -18h-230l-22 16q-16 44 -35 62t-52.5 27t-91.5 9z" />
    <glyph glyph-name="t" unicode="t" horiz-adv-x="752" 
d="M156 788h-95l-20 21v195l20 20h95l20 20v220l21 20h249l21 -20v-220l20 -20h197l21 -20v-195l-21 -21h-197l-20 -20v-442q0 -45 18 -65.5t72 -20.5h119l20 -21v-209l-20 -20h-182q-150 0 -234 89.5t-84 250.5v438z" />
    <glyph glyph-name="u" unicode="u" horiz-adv-x="1223" 
d="M498 -20q-186 0 -285.5 97.5t-99.5 287.5v645l20 20h250l20 -20v-604q0 -87 44.5 -132t127.5 -45q116 0 174 52t58 151v578l20 20h250l21 -20v-990l-21 -20h-241l-21 20v103h-4q-61 -75 -137.5 -109t-175.5 -34z" />
    <glyph glyph-name="v" unicode="v" horiz-adv-x="1024" 
d="M362 0l-20 20l-313 824v166l20 20h230l233 -706l236 706h227l20 -20v-166l-313 -824l-20 -20h-300z" />
    <glyph glyph-name="w" unicode="w" horiz-adv-x="1624" 
d="M1024 0l-20 20l-193 605l-190 -605l-21 -20h-258l-20 20l-293 824v166l20 20h217l205 -696l219 676l21 20h202l21 -20l219 -676l205 696h217l20 -20v-166l-292 -824l-21 -20h-258z" />
    <glyph glyph-name="x" unicode="x" horiz-adv-x="1077" 
d="M250 0h-199l-20 20v164l266 336v21l-242 303v166l21 20h196l267 -373l266 373h196l21 -20v-166l-242 -303v-21l267 -336v-164l-21 -20h-199l-288 383z" />
    <glyph glyph-name="y" unicode="y" horiz-adv-x="1024" 
d="M29 844v166l20 20h230l239 -706l227 706h230l20 -20v-166l-319 -862q-91 -243 -172 -329.5t-199 -86.5h-178l-21 20v209l21 21h61q62 0 103.5 42t70.5 138z" />
    <glyph glyph-name="z" unicode="z" horiz-adv-x="1030" 
d="M76 805v205l20 20h832l20 -20v-205l-502 -559h502l21 -21v-205l-21 -20h-866l-21 20v205l504 559h-469z" />
    <glyph glyph-name="braceleft" unicode="{" horiz-adv-x="829" 
d="M602 -442q-162 0 -252 86.5t-90 244.5v283q0 108 -51 166t-160 63l-20 21v182l20 21q211 5 211 229v287q0 170 92 251t293 81h137l21 -19v-178l-21 -21h-75q-91 0 -133 -51.5t-42 -156.5v-279q0 -95 -57 -164t-147 -88v-4q86 -19 145 -102t59 -187v-237q0 -107 41 -159
t134 -52h75l21 -21v-176l-21 -20h-180z" />
    <glyph glyph-name="bar" unicode="|" horiz-adv-x="637" 
d="M203 -455l-21 21v1888l21 19h231l21 -19v-1888l-21 -21h-231z" />
    <glyph glyph-name="braceright" unicode="}" horiz-adv-x="829" 
d="M43 -442l-20 20v178l20 21h76q93 0 133.5 51t40.5 158v237q0 104 59 187t146 102v4q-91 20 -148 88.5t-57 163.5v279q0 105 -41.5 155.5t-132.5 50.5h-76l-20 21v180l20 19h137q202 0 293.5 -81t91.5 -251v-287q0 -224 211 -229l21 -21v-182l-21 -21
q-110 -5 -160.5 -63.5t-50.5 -165.5v-283q0 -158 -90.5 -244.5t-251.5 -86.5h-180z" />
    <glyph glyph-name="asciitilde" unicode="~" 
d="M866 512q-78 0 -154 22t-155 48q-135 45 -229 45q-63 0 -121 -17t-123 -59l-21 8v182l21 33q114 70 258 70q58 0 130.5 -14t207.5 -58q138 -45 207 -45q115 0 239 78l21 -8v-185l-21 -32q-64 -39 -119.5 -53.5t-140.5 -14.5z" />
    <glyph glyph-name="uni00A0" unicode="&#xa0;" horiz-adv-x="561" 
 />
    <glyph glyph-name="exclamdown" unicode="&#xa1;" horiz-adv-x="563" 
d="M408 1030l20 -20v-236l-20 -20h-261l-20 20v236l20 20h261zM197 602h168l20 -20l41 -553v-412l-20 -20h-250l-21 20v412l41 553z" />
    <glyph glyph-name="cent" unicode="&#xa2;" 
d="M621 401q83 0 125.5 23.5t62.5 81.5l22 16h248l19 -18q-22 -117 -65 -182.5t-116 -105.5t-182 -52l-20 -19v-155l-21 -21h-145l-21 21v155l-20 19q-190 25 -292.5 162t-102.5 374q0 227 104 363t291 162l20 14v150l21 20h145l21 -20v-148l20 -16q108 -11 181.5 -49.5
t116.5 -102t65 -176.5l-19 -18h-248l-22 14q-22 57 -64 77.5t-114 20.5q-113 0 -164 -68.5t-51 -224.5q0 -151 49 -224t156 -73z" />
    <glyph glyph-name="sterling" unicode="&#xa3;" 
d="M510 623l-21 -23v-59q0 -109 -29.5 -187.5t-78.5 -122.5h295q170 0 213 175l20 28h250l21 -22q-11 -115 -66 -209.5t-145 -148.5t-195 -54h-704l-21 20v175l27 30q50 21 77.5 53.5t39.5 81t12 162.5v80l-21 21h-125l-20 20v148l20 20h125l21 20v144q0 247 119 363
t348 116q194 0 312 -91.5t146 -260.5l-20 -29h-250l-22 25q-22 135 -166 135q-90 0 -136.5 -54.5t-46.5 -179.5v-168l21 -20h278l21 -20v-148l-21 -20h-278z" />
    <glyph glyph-name="currency" unicode="&#xa4;" horiz-adv-x="1198" 
d="M127 684q0 130 80 254l-127 125v39l96 94h41l123 -123q120 80 262 80q139 0 260 -78l123 121h41l92 -96v-41l-121 -121q80 -120 80 -254q0 -130 -80 -260l129 -123v-35l-100 -100h-37l-127 125q-124 -78 -260 -78t-262 80l-127 -127h-37l-96 100v43l127 115
q-80 130 -80 260zM334 684q0 -111 79.5 -188.5t188.5 -77.5q110 0 188 78t78 188q0 109 -79 187.5t-187 78.5q-110 0 -189 -77.5t-79 -188.5z" />
    <glyph glyph-name="yen" unicode="&#xa5;" 
d="M776 565l-22 -20v-107l22 -20h289l20 -21v-114l-20 -21h-291l-20 -20v-222l-21 -20h-260l-20 20v222l-21 20h-293l-20 21v114l20 21h293l21 20v107l-19 20h-295l-20 21v114l20 21h223l-305 526v166l21 21h194l330 -609l334 609h194l21 -21v-166l-307 -526h221l20 -21
v-114l-20 -21h-289z" />
    <glyph glyph-name="brokenbar" unicode="&#xa6;" horiz-adv-x="637" 
d="M203 676l-21 20v758l21 19h231l21 -19v-758l-21 -20h-231zM203 -442l-21 20v758l21 18h231l21 -18v-758l-21 -20h-231z" />
    <glyph glyph-name="section" unicode="&#xa7;" horiz-adv-x="1163" 
d="M592 1274q-139 0 -139 -72q0 -26 21 -40.5t71.5 -29t128.5 -28.5q186 -37 261 -106.5t75 -198.5q0 -136 -129 -207q129 -72 129 -205q0 -150 -104.5 -220.5t-317.5 -70.5q-138 0 -226.5 28.5t-138.5 86.5t-73 168l16 16h223l21 -14q18 -44 60.5 -65t125.5 -21
q74 0 114 16t40 60q0 33 -18.5 50t-64 31t-161.5 35q-182 35 -257 106t-75 195q0 136 145 203q-124 69 -124 207q0 134 101 204.5t296 70.5q174 0 271.5 -67t121.5 -218l-16 -17h-207l-21 15q-17 47 -33 61.5t-44.5 20.5t-71.5 6zM750 782q0 40 -32 59.5t-149 45.5
q-70 -3 -105.5 -24.5t-35.5 -55.5q0 -40 42.5 -62t137.5 -40q68 2 105 18.5t37 58.5z" />
    <glyph glyph-name="dieresis" unicode="&#xa8;" horiz-adv-x="715" 
d="M57 1159l-20 21v180l20 20h181l20 -20v-180l-20 -21h-181zM477 1159l-20 21v180l20 20h180l21 -20v-180l-21 -21h-180z" />
    <glyph glyph-name="copyright" unicode="&#xa9;" horiz-adv-x="1567" 
d="M59 707q0 191 95 357.5t263.5 266t364.5 99.5q194 0 362.5 -97.5t264.5 -264.5t96 -361q0 -193 -96.5 -361.5t-265 -265t-361.5 -96.5q-197 0 -366.5 100.5t-263 267t-93.5 355.5zM174 707q0 -162 81 -303t223 -223.5t304 -82.5t303.5 81.5t223.5 222.5t82 305
q0 162 -82.5 303t-223.5 222t-303 81q-161 0 -303 -82t-223.5 -222.5t-81.5 -301.5zM780 956q-96 0 -150.5 -63t-54.5 -184q0 -122 55 -190t152 -68q85 0 127.5 33t61.5 96l20 20h148l20 -20q-34 -151 -124 -222t-240 -71q-186 0 -296 114.5t-110 307.5q0 190 105.5 302.5
t291.5 112.5q152 0 243 -70.5t126 -224.5l-20 -20h-148l-20 20q-36 127 -187 127z" />
    <glyph glyph-name="ordfeminine" unicode="&#xaa;" horiz-adv-x="918" 
d="M313 956q0 -92 113 -92q72 0 114 42.5t42 117.5l-15 16q-70 7 -131 7q-60 0 -91.5 -18.5t-31.5 -72.5zM139 1264q17 103 102 156t224 53q167 0 243 -67.5t76 -207.5v-448l-14 -15h-170l-14 15v77h-4q-34 -44 -65 -64t-73.5 -31t-103.5 -11q-116 0 -177 60t-61 175
q0 117 76.5 171.5t243.5 54.5q85 0 145 -6l15 12q0 68 -24 104.5t-93 36.5q-48 0 -76 -13t-39 -54l-16 -13h-182z" />
    <glyph glyph-name="guillemotleft" unicode="&#xab;" horiz-adv-x="1262" 
d="M397 141l-336 359v75l336 365h226l20 -39l-336 -364l338 -361l-20 -35h-228zM952 141l-336 359v75l336 365h226l20 -39l-336 -364l338 -361l-20 -35h-228z" />
    <glyph glyph-name="logicalnot" unicode="&#xac;" 
d="M1141 158l-21 -21h-188l-21 21v389l-20 20h-803l-20 21v188l20 21h1032l21 -21v-618z" />
    <glyph glyph-name="uni00AD" unicode="&#xad;" horiz-adv-x="686" 
d="M104 408l-20 20v213l20 21h482l20 -21v-213l-20 -20h-482z" />
    <glyph glyph-name="registered" unicode="&#xae;" horiz-adv-x="1567" 
d="M1505 707q0 -193 -96.5 -361.5t-265 -265t-361.5 -96.5q-197 0 -366.5 100.5t-263 267t-93.5 355.5q0 193 97 361t265 265t361 97q194 0 362.5 -97.5t264.5 -264.5t96 -361zM1391 707q0 162 -82.5 303t-223.5 222t-303 81q-157 0 -296.5 -77.5t-225.5 -218.5t-86 -310
q0 -164 81 -305t222 -222.5t305 -81.5q167 0 307.5 82.5t221 224.5t80.5 302zM750 606h-64l-12 -12v-289l-12 -10h-162l-13 10v795l13 10h313q145 0 223 -64.5t78 -181.5q0 -82 -43 -145.5t-121 -89.5l168 -219v-105l-12 -10h-127zM926 864q0 57 -37 78t-105 21h-98l-12 -13
v-184l12 -12h102q73 0 105.5 26.5t32.5 83.5z" />
    <glyph glyph-name="macron" unicode="&#xaf;" horiz-adv-x="682" 
d="M47 1159l-20 21v125l20 20h584l20 -20v-125l-20 -21h-584z" />
    <glyph glyph-name="degree" unicode="&#xb0;" horiz-adv-x="805" 
d="M727 1135q0 -134 -95.5 -227t-230.5 -93q-132 0 -227.5 92.5t-95.5 227.5q0 133 94 226t229 93q138 0 232 -93t94 -226zM565 1135q0 71 -47 118t-117 47q-69 0 -116 -48t-47 -117q0 -68 47.5 -117t115.5 -49q69 0 116.5 48t47.5 118z" />
    <glyph glyph-name="plusminus" unicode="&#xb1;" 
d="M741 713l-20 -21v-319l-21 -21h-192l-21 21v319l-20 21h-379l-20 20v189l20 20h379l20 21v315l21 20h192l21 -20v-315l20 -21h379l21 -20v-189l-21 -20h-379zM88 0l-20 20v189l20 20h1032l21 -20v-189l-21 -20h-1032z" />
    <glyph glyph-name="twosuperior" unicode="&#xb2;" horiz-adv-x="840" 
d="M121 573l-12 13v133q63 140 252 279q95 70 129 110.5t34 79.5q0 94 -100 94q-90 0 -113 -86l-12 -12h-180l-13 12q22 120 105 185t215 65q141 0 221 -68t80 -182q0 -136 -162 -258q-131 -98 -164.5 -129.5t-50.5 -67.5h379l12 -12v-143l-12 -13h-608z" />
    <glyph glyph-name="threesuperior" unicode="&#xb3;" horiz-adv-x="836" 
d="M100 1217q22 115 102.5 172t225.5 57q144 0 229.5 -64t85.5 -165q0 -150 -174 -201v-2q99 -19 145 -73.5t46 -129.5q0 -116 -90.5 -183t-245.5 -67q-147 0 -238 64t-106 174l12 12h182l13 -12q11 -44 45.5 -62t91.5 -18q129 0 129 104q0 50 -44.5 76.5t-123.5 26.5h-53
l-13 12v141l13 13h49q74 0 117 28t43 76q0 92 -117 92q-50 0 -81 -15.5t-40 -55.5l-12 -13h-178z" />
    <glyph glyph-name="acute" unicode="&#xb4;" horiz-adv-x="621" 
d="M82 1143l-21 22l252 297h242l20 -43l-342 -276h-151z" />
    <glyph glyph-name="mu" unicode="&#xb5;" horiz-adv-x="1262" 
d="M1004 0q-64 0 -111.5 34.5t-63.5 88.5h-18q-61 -75 -137.5 -109t-175.5 -34q-60 0 -95 8v-410l-20 -20h-250l-20 20v1432l20 20h250l20 -20v-604q0 -87 44.5 -132t127.5 -45q116 0 174 52t58 151v578l20 20h250l21 -20v-674q0 -45 18 -65.5t72 -20.5h24l21 -21v-209
l-21 -20h-208z" />
    <glyph glyph-name="paragraph" unicode="&#xb6;" horiz-adv-x="1124" 
d="M1036 1286h-88l-20 -20v-1479l-21 -27h-121l-20 27v1479l-21 20h-149l-21 -20v-1479l-20 -27h-121l-20 27v911l-29 21q-160 9 -247 103.5t-87 254.5q0 168 98 262.5t273 94.5h604l31 -21v-106z" />
    <glyph glyph-name="periodcentered" unicode="&#xb7;" horiz-adv-x="473" 
d="M109 557l-21 21v272l21 20h256l20 -20v-272l-20 -21h-256z" />
    <glyph glyph-name="cedilla" unicode="&#xb8;" horiz-adv-x="584" 
d="M152 -147l63 161h133l-31 -86q185 -16 185 -166q0 -99 -76.5 -151.5t-226.5 -52.5h-22l-62 4l-21 20v86l21 21q31 -4 65 -4q131 0 131 75q0 35 -26.5 53.5t-91.5 18.5h-29z" />
    <glyph glyph-name="onesuperior" unicode="&#xb9;" horiz-adv-x="836" 
d="M334 1434h180l12 -13v-676l13 -12h131l12 -12v-135l-12 -13h-510l-13 13v135l13 12h153l13 12v498l-101 -59h-82l-12 12v119z" />
    <glyph glyph-name="ordmasculine" unicode="&#xba;" horiz-adv-x="901" 
d="M817 1100q0 -175 -98.5 -277t-269.5 -102q-170 0 -267.5 102.5t-97.5 276.5q0 172 97 272.5t270 100.5q175 0 270.5 -97t95.5 -276zM604 1100q0 107 -37 156t-114 49q-83 0 -120.5 -50t-37.5 -155q0 -101 36 -155t115 -54q85 0 121.5 51t36.5 158z" />
    <glyph glyph-name="guillemotright" unicode="&#xbb;" horiz-adv-x="1262" 
d="M862 141h-225l-21 33l334 363l-332 362l21 41h223l338 -367v-73zM305 141h-223l-21 33l334 363l-332 362l21 41h221l338 -367v-73z" />
    <glyph glyph-name="onequarter" unicode="&#xbc;" horiz-adv-x="1855" 
d="M575 0h-155l-15 20l887 1393l25 21h153l17 -21l-885 -1393zM296 1434h180l12 -13v-676l13 -12h131l12 -12v-135l-12 -13h-510l-13 13v135l13 12h153l13 12v498l-101 -59h-82l-12 12v119zM1637 157l-13 -12v-121l-12 -13h-166l-12 13v121l-12 12h-359l-12 12v154l342 536
l18 13h201l12 -13v-530l13 -12h86l12 -13v-135l-12 -12h-86zM1434 646l-207 -329h195l12 12v317z" />
    <glyph glyph-name="onehalf" unicode="&#xbd;" horiz-adv-x="1855" 
d="M567 0h-155l-15 20l887 1393l25 21h153l17 -21l-885 -1393zM296 1434h180l12 -13v-676l13 -12h131l12 -12v-135l-12 -13h-510l-13 13v135l13 12h153l13 12v498l-101 -59h-82l-12 12v119zM1106 11l-12 13v133q63 140 252 279q95 70 129 110.5t34 79.5q0 94 -100 94
q-90 0 -113 -86l-12 -12h-180l-13 12q22 120 105 185t215 65q141 0 221 -68t80 -182q0 -136 -162 -258q-131 -98 -164.5 -129.5t-50.5 -67.5h379l12 -12v-143l-12 -13h-608z" />
    <glyph glyph-name="threequarters" unicode="&#xbe;" horiz-adv-x="1855" 
d="M600 0h-155l-15 20l887 1393l25 21h153l17 -21l-885 -1393zM1637 157l-13 -12v-121l-12 -13h-166l-12 13v121l-12 12h-359l-12 12v154l342 536l18 13h201l12 -13v-530l13 -12h86l12 -13v-135l-12 -12h-86zM1434 646l-207 -329h195l12 12v317zM100 1217q22 115 102.5 172
t225.5 57q144 0 229.5 -64t85.5 -165q0 -150 -174 -201v-2q99 -19 145 -73.5t46 -129.5q0 -116 -90.5 -183t-245.5 -67q-147 0 -238 64t-106 174l12 12h182l13 -12q11 -44 45.5 -62t91.5 -18q129 0 129 104q0 50 -44.5 76.5t-123.5 26.5h-53l-13 12v141l13 13h49
q74 0 117 28t43 76q0 92 -117 92q-50 0 -81 -15.5t-40 -55.5l-12 -13h-178z" />
    <glyph glyph-name="questiondown" unicode="&#xbf;" horiz-adv-x="1118" 
d="M37 -8q0 100 48.5 187.5t164.5 174.5q92 70 125 100.5t53.5 60.5t28.5 67l20 20h234l20 -20q-6 -88 -54.5 -166t-166.5 -166q-84 -64 -115 -97.5t-48 -70t-17 -78.5q0 -83 56 -133.5t159 -50.5q102 0 165.5 42t77.5 126l21 20h252l20 -20q-17 -123 -85 -216.5
t-181 -144.5t-264 -51q-236 0 -375 113.5t-139 302.5zM719 1030l20 -20v-236l-20 -20h-256l-21 20v236l21 20h256z" />
    <glyph glyph-name="Agrave" unicode="&#xc0;" horiz-adv-x="1311" 
d="M815 1434l21 -21l446 -1227v-166l-20 -20h-238l-98 291l-23 18h-497l-23 -18l-96 -291h-238l-20 20v166l446 1227l21 21h319zM481 580l15 -17h319l14 17l-174 524zM641 1528l-342 276l21 43h242l251 -297l-20 -22h-152z" />
    <glyph glyph-name="Aacute" unicode="&#xc1;" horiz-adv-x="1311" 
d="M815 1434l21 -21l446 -1227v-166l-20 -20h-238l-98 291l-23 18h-497l-23 -18l-96 -291h-238l-20 20v166l446 1227l21 21h319zM481 580l15 -17h319l14 17l-174 524zM524 1528l-21 22l252 297h242l20 -43l-342 -276h-151z" />
    <glyph glyph-name="Acircumflex" unicode="&#xc2;" horiz-adv-x="1311" 
d="M815 1434l21 -21l446 -1227v-166l-20 -20h-238l-98 291l-23 18h-497l-23 -18l-96 -291h-238l-20 20v166l446 1227l21 21h319zM481 580l15 -17h319l14 17l-174 524zM1028 1548l-20 -20h-143l-205 182l-211 -182h-144l-20 20l240 293l20 19h227l21 -19z" />
    <glyph glyph-name="Atilde" unicode="&#xc3;" horiz-adv-x="1311" 
d="M815 1434l21 -21l446 -1227v-166l-20 -20h-238l-98 291l-23 18h-497l-23 -18l-96 -291h-238l-20 20v166l446 1227l21 21h319zM481 580l15 -17h319l14 17l-174 524zM802 1696q83 0 88 102l21 21h117l20 -21q-8 -146 -65.5 -211t-157.5 -65q-44 0 -87 19t-83.5 42.5
t-76.5 42.5t-66 19q-27 0 -44.5 -9.5t-27.5 -27t-17 -66.5l-24 -20h-117l-18 20q8 102 32.5 156.5t70.5 87.5t122 33q46 0 90 -19t84.5 -42.5l75.5 -42.5t63 -19z" />
    <glyph glyph-name="Adieresis" unicode="&#xc4;" horiz-adv-x="1311" 
d="M815 1434l21 -21l446 -1227v-166l-20 -20h-238l-98 291l-23 18h-497l-23 -18l-96 -291h-238l-20 20v166l446 1227l21 21h319zM481 580l15 -17h319l14 17l-174 524zM346 1530l-20 20v181l20 20h180l21 -20v-181l-21 -20h-180zM786 1530l-20 20v181l20 20h181l20 -20v-181
l-20 -20h-181z" />
    <glyph glyph-name="Aring" unicode="&#xc5;" horiz-adv-x="1311" 
d="M399 1573q0 108 75 183t181 75q108 0 182 -75.5t74 -182.5q0 -103 -71 -174l442 -1213v-166l-20 -20h-238l-98 291l-23 18h-497l-23 -18l-96 -291h-238l-20 20v166l440 1213q-70 74 -70 174zM481 580l15 -17h319l14 17l-174 524zM516 1573q0 -55 39.5 -96t99.5 -41
t100 41t40 96q0 59 -41 100t-99 41q-59 0 -99 -41t-40 -100z" />
    <glyph glyph-name="AE" unicode="&#xc6;" horiz-adv-x="1942" 
d="M287 0h-238l-20 20v166l604 1227l20 21h1186l21 -21v-219l-21 -20h-635l-20 -21v-264l20 -21h570l20 -20v-219l-20 -21h-570l-20 -20v-307l20 -21h635l21 -20v-220l-21 -20h-936l-20 20v269l-21 20h-409l-29 -18zM559 578l14 -15h289l21 21v590h-43z" />
    <glyph glyph-name="Ccedilla" unicode="&#xc7;" horiz-adv-x="1444" 
d="M618 -147l52 131q-284 24 -436 212.5t-152 520.5q0 353 174.5 545t501.5 192q256 0 407 -116.5t193 -344.5l-19 -18h-278l-23 14q-29 106 -94 157.5t-186 51.5q-363 0 -363 -481t363 -481q112 0 181 56.5t97 156.5l21 18h291l18 -21q-112 -446 -563 -464l-19 -54
q185 -16 185 -166q0 -99 -76.5 -151.5t-226.5 -52.5h-23l-61 4l-21 20v86l21 21q31 -4 65 -4q131 0 131 75q0 35 -27 53.5t-92 18.5h-28z" />
    <glyph glyph-name="Egrave" unicode="&#xc8;" horiz-adv-x="1202" 
d="M164 0l-21 20v1393l21 21h936l20 -21v-219l-20 -20h-635l-21 -21v-264l21 -21h569l21 -20v-219l-21 -21h-569l-21 -20v-307l21 -21h635l20 -20v-220l-20 -20h-936zM649 1528l-342 276l21 43h242l251 -297l-20 -22h-152z" />
    <glyph glyph-name="Eacute" unicode="&#xc9;" horiz-adv-x="1202" 
d="M164 0l-21 20v1393l21 21h936l20 -21v-219l-20 -20h-635l-21 -21v-264l21 -21h569l21 -20v-219l-21 -21h-569l-21 -20v-307l21 -21h635l20 -20v-220l-20 -20h-936zM500 1528l-21 22l252 297h242l20 -43l-342 -276h-151z" />
    <glyph glyph-name="Ecircumflex" unicode="&#xca;" horiz-adv-x="1202" 
d="M164 0l-21 20v1393l21 21h936l20 -21v-219l-20 -20h-635l-21 -21v-264l21 -21h569l21 -20v-219l-21 -21h-569l-21 -20v-307l21 -21h635l20 -20v-220l-20 -20h-936zM1011 1548l-20 -20h-143l-205 182l-211 -182h-144l-20 20l240 293l20 19h227l21 -19z" />
    <glyph glyph-name="Edieresis" unicode="&#xcb;" horiz-adv-x="1202" 
d="M164 0l-21 20v1393l21 21h936l20 -21v-219l-20 -20h-635l-21 -21v-264l21 -21h569l21 -20v-219l-21 -21h-569l-21 -20v-307l21 -21h635l20 -20v-220l-20 -20h-936zM328 1530l-20 20v181l20 20h180l21 -20v-181l-21 -20h-180zM768 1530l-20 20v181l20 20h181l20 -20v-181
l-20 -20h-181z" />
    <glyph glyph-name="Igrave" unicode="&#xcc;" horiz-adv-x="588" 
d="M444 20l-20 -20h-260l-21 20v1393l21 21h260l20 -21v-1393zM304 1528l-342 276l21 43h242l251 -297l-20 -22h-152z" />
    <glyph glyph-name="Iacute" unicode="&#xcd;" horiz-adv-x="588" 
d="M444 20l-20 -20h-260l-21 20v1393l21 21h260l20 -21v-1393zM158 1528l-21 22l252 297h242l20 -43l-342 -276h-151z" />
    <glyph glyph-name="Icircumflex" unicode="&#xce;" horiz-adv-x="588" 
d="M444 20l-20 -20h-260l-21 20v1393l21 21h260l20 -21v-1393zM666 1548l-20 -20h-143l-205 182l-211 -182h-144l-20 20l240 293l20 19h227l21 -19z" />
    <glyph glyph-name="Idieresis" unicode="&#xcf;" horiz-adv-x="588" 
d="M444 20l-20 -20h-260l-21 20v1393l21 21h260l20 -21v-1393zM-15 1530l-20 20v181l20 20h180l21 -20v-181l-21 -20h-180zM425 1530l-20 20v181l20 20h181l20 -20v-181l-20 -20h-181z" />
    <glyph glyph-name="Eth" unicode="&#xd0;" horiz-adv-x="1434" 
d="M1352 737q0 -356 -191.5 -546.5t-546.5 -190.5h-450l-21 20v547l-20 21h-94l-21 20v213l21 21h94l20 20v551l21 21h434q371 0 562.5 -175.5t191.5 -521.5zM465 588l-21 -21v-299l21 -20h129q229 0 336.5 122.5t107.5 368.5q0 447 -444 447h-129l-21 -21v-303l21 -20h309
l21 -21v-213l-21 -20h-309z" />
    <glyph glyph-name="Ntilde" unicode="&#xd1;" horiz-adv-x="1606" 
d="M1102 0l-33 20l-651 1061q10 -155 10 -258v-803l-20 -20h-244l-21 20v1393l21 21h336l32 -21l658 -1069q-2 42 -6 109t-4 170v790l20 21h242l20 -21v-1393l-20 -20h-340zM950 1696q83 0 88 102l21 21h117l20 -21q-8 -146 -65.5 -211t-157.5 -65q-44 0 -87 19t-83.5 42.5
t-76.5 42.5t-66 19q-27 0 -44.5 -9.5t-27.5 -27t-17 -66.5l-24 -20h-117l-18 20q8 102 32.5 156.5t70.5 87.5t122 33q46 0 90 -19t84.5 -42.5l75.5 -42.5t63 -19z" />
    <glyph glyph-name="Ograve" unicode="&#xd2;" horiz-adv-x="1516" 
d="M1120 717q0 481 -362 481q-363 0 -363 -481t363 -481q362 0 362 481zM758 1454q327 0 501.5 -192t174.5 -545q0 -356 -175 -546.5t-501 -190.5q-327 0 -501.5 192t-174.5 545t174.5 545t501.5 192zM708 1528l-342 276l21 43h242l251 -297l-20 -22h-152z" />
    <glyph glyph-name="Oacute" unicode="&#xd3;" horiz-adv-x="1516" 
d="M1120 717q0 481 -362 481q-363 0 -363 -481t363 -481q362 0 362 481zM758 1454q327 0 501.5 -192t174.5 -545q0 -356 -175 -546.5t-501 -190.5q-327 0 -501.5 192t-174.5 545t174.5 545t501.5 192zM637 1528l-21 22l252 297h242l20 -43l-342 -276h-151z" />
    <glyph glyph-name="Ocircumflex" unicode="&#xd4;" horiz-adv-x="1516" 
d="M1120 717q0 481 -362 481q-363 0 -363 -481t363 -481q362 0 362 481zM758 1454q327 0 501.5 -192t174.5 -545q0 -356 -175 -546.5t-501 -190.5q-327 0 -501.5 192t-174.5 545t174.5 545t501.5 192zM1130 1548l-20 -20h-143l-205 182l-211 -182h-144l-20 20l240 293l20 19
h227l21 -19z" />
    <glyph glyph-name="Otilde" unicode="&#xd5;" horiz-adv-x="1516" 
d="M1120 717q0 481 -362 481q-363 0 -363 -481t363 -481q362 0 362 481zM758 1454q327 0 501.5 -192t174.5 -545q0 -356 -175 -546.5t-501 -190.5q-327 0 -501.5 192t-174.5 545t174.5 545t501.5 192zM905 1696q83 0 88 102l21 21h117l20 -21q-8 -146 -65.5 -211t-157.5 -65
q-44 0 -87 19t-83.5 42.5t-76.5 42.5t-66 19q-27 0 -44.5 -9.5t-27.5 -27t-17 -66.5l-24 -20h-117l-18 20q8 102 32.5 156.5t70.5 87.5t122 33q46 0 90 -19t84.5 -42.5l75.5 -42.5t63 -19z" />
    <glyph glyph-name="Odieresis" unicode="&#xd6;" horiz-adv-x="1516" 
d="M1120 717q0 481 -362 481q-363 0 -363 -481t363 -481q362 0 362 481zM758 1454q327 0 501.5 -192t174.5 -545q0 -356 -175 -546.5t-501 -190.5q-327 0 -501.5 192t-174.5 545t174.5 545t501.5 192zM448 1530l-20 20v181l20 20h180l21 -20v-181l-21 -20h-180zM888 1530
l-20 20v181l20 20h181l20 -20v-181l-20 -20h-181z" />
    <glyph glyph-name="multiply" unicode="&#xd7;" 
d="M784 696v-28l326 -324v-29l-137 -137h-29l-323 326h-29l-330 -328h-29l-133 133v29l328 328v28l-324 326v29l136 135h28l326 -324h29l325 324h29l133 -133v-29z" />
    <glyph glyph-name="Oslash" unicode="&#xd8;" horiz-adv-x="1516" 
d="M758 1454q224 0 370 -88h37l90 113l29 20h162l12 -20l-170 -215v-37q146 -191 146 -510q0 -356 -175 -546.5t-501 -190.5q-226 0 -379 92h-29l-90 -111l-31 -20h-161l-11 20l168 213v37q-143 186 -143 506q0 353 174.5 545t501.5 192zM1120 717q0 153 -37 258h-22
l-516 -653v-33q82 -53 213 -53q362 0 362 481zM395 717q0 -147 35 -254h23l510 645v35q-80 55 -205 55q-363 0 -363 -481z" />
    <glyph glyph-name="Ugrave" unicode="&#xd9;" horiz-adv-x="1452" 
d="M1319 1413v-862q0 -278 -158 -424.5t-450 -146.5q-282 0 -430 140.5t-148 416.5v876l21 21h260l20 -21v-854q0 -161 69 -242t216 -81q148 0 223.5 85t75.5 250v842l20 21h260zM700 1528l-342 276l21 43h242l251 -297l-20 -22h-152z" />
    <glyph glyph-name="Uacute" unicode="&#xda;" horiz-adv-x="1452" 
d="M1319 1413v-862q0 -278 -158 -424.5t-450 -146.5q-282 0 -430 140.5t-148 416.5v876l21 21h260l20 -21v-854q0 -161 69 -242t216 -81q148 0 223.5 85t75.5 250v842l20 21h260zM588 1528l-21 22l252 297h242l20 -43l-342 -276h-151z" />
    <glyph glyph-name="Ucircumflex" unicode="&#xdb;" horiz-adv-x="1452" 
d="M1319 1413v-862q0 -278 -158 -424.5t-450 -146.5q-282 0 -430 140.5t-148 416.5v876l21 21h260l20 -21v-854q0 -161 69 -242t216 -81q148 0 223.5 85t75.5 250v842l20 21h260zM1097 1548l-20 -20h-143l-205 182l-211 -182h-144l-20 20l240 293l20 19h227l21 -19z" />
    <glyph glyph-name="Udieresis" unicode="&#xdc;" horiz-adv-x="1452" 
d="M1319 1413v-862q0 -278 -158 -424.5t-450 -146.5q-282 0 -430 140.5t-148 416.5v876l21 21h260l20 -21v-854q0 -161 69 -242t216 -81q148 0 223.5 85t75.5 250v842l20 21h260zM416 1530l-20 20v181l20 20h180l21 -20v-181l-21 -20h-180zM856 1530l-20 20v181l20 20h181
l20 -20v-181l-20 -20h-181z" />
    <glyph glyph-name="Yacute" unicode="&#xdd;" horiz-adv-x="1233" 
d="M614 846l355 588h215l20 -21v-166l-438 -702v-525l-21 -20h-260l-20 20v525l-436 702v166l20 21h215zM502 1528l-21 22l252 297h242l20 -43l-342 -276h-151z" />
    <glyph glyph-name="Thorn" unicode="&#xde;" horiz-adv-x="1309" 
d="M444 1210l21 -20h250q257 0 392.5 -119t135.5 -334q0 -138 -62.5 -244t-179.5 -163.5t-276 -57.5h-260l-21 -20v-232l-20 -20h-260l-21 20v1393l21 21h260l20 -21v-203zM936 735q0 97 -67 152t-189 55h-215l-21 -18v-385l21 -21h223q115 0 181.5 57.5t66.5 159.5z" />
    <glyph glyph-name="germandbls" unicode="&#xdf;" horiz-adv-x="1346" 
d="M891 199q59 0 87 28t28 68q0 42 -39.5 80.5t-137.5 100.5q-178 111 -178 274q0 67 25 117.5t78 93.5q61 51 81.5 81t20.5 70q0 59 -53.5 100t-136.5 41q-122 0 -186 -77.5t-64 -217.5v-938l-21 -20h-250l-20 20v965q0 234 138 361t394 127q149 0 259.5 -44.5
t169.5 -124.5t59 -182q0 -69 -15.5 -116.5t-38.5 -81t-49.5 -56t-49.5 -39.5t-38.5 -32.5t-15.5 -34.5q0 -25 26.5 -46t66 -44t85.5 -53t85.5 -72t66 -101t26.5 -141q0 -148 -105.5 -236.5t-283.5 -88.5q-188 0 -289 79.5t-129 231.5l21 20h240l20 -20q36 -92 123 -92z" />
    <glyph glyph-name="agrave" unicode="&#xe0;" horiz-adv-x="1161" 
d="M375 315q0 -69 40.5 -100t119.5 -31q104 0 163.5 60t59.5 168l-21 22q-93 10 -188 10t-134.5 -30.5t-39.5 -98.5zM127 754q19 144 139 220.5t324 76.5q236 0 347.5 -93.5t111.5 -298.5v-639l-21 -20h-244l-20 20v111l-6 -2q-47 -61 -91 -89t-105 -44t-150 -16
q-165 0 -252.5 84t-87.5 249q0 168 109.5 246t346.5 78q112 0 209 -10l21 18q0 111 -40 156t-128 45q-78 0 -114 -22t-48 -72l-25 -19h-260zM610 1143l-342 276l21 43h242l251 -297l-20 -22h-152z" />
    <glyph glyph-name="aacute" unicode="&#xe1;" horiz-adv-x="1161" 
d="M375 315q0 -69 40.5 -100t119.5 -31q104 0 163.5 60t59.5 168l-21 22q-93 10 -188 10t-134.5 -30.5t-39.5 -98.5zM127 754q19 144 139 220.5t324 76.5q236 0 347.5 -93.5t111.5 -298.5v-639l-21 -20h-244l-20 20v111l-6 -2q-47 -61 -91 -89t-105 -44t-150 -16
q-165 0 -252.5 84t-87.5 249q0 168 109.5 246t346.5 78q112 0 209 -10l21 18q0 111 -40 156t-128 45q-78 0 -114 -22t-48 -72l-25 -19h-260zM467 1143l-21 22l252 297h242l20 -43l-342 -276h-151z" />
    <glyph glyph-name="acircumflex" unicode="&#xe2;" horiz-adv-x="1161" 
d="M375 315q0 -69 40.5 -100t119.5 -31q104 0 163.5 60t59.5 168l-21 22q-93 10 -188 10t-134.5 -30.5t-39.5 -98.5zM127 754q19 144 139 220.5t324 76.5q236 0 347.5 -93.5t111.5 -298.5v-639l-21 -20h-244l-20 20v111l-6 -2q-47 -61 -91 -89t-105 -44t-150 -16
q-165 0 -252.5 84t-87.5 249q0 168 109.5 246t346.5 78q112 0 209 -10l21 18q0 111 -40 156t-128 45q-78 0 -114 -22t-48 -72l-25 -19h-260zM974 1163l-20 -20h-143l-205 182l-211 -182h-144l-20 20l240 293l20 19h227l21 -19z" />
    <glyph glyph-name="atilde" unicode="&#xe3;" horiz-adv-x="1161" 
d="M375 315q0 -69 40.5 -100t119.5 -31q104 0 163.5 60t59.5 168l-21 22q-93 10 -188 10t-134.5 -30.5t-39.5 -98.5zM127 754q19 144 139 220.5t324 76.5q236 0 347.5 -93.5t111.5 -298.5v-639l-21 -20h-244l-20 20v111l-6 -2q-47 -61 -91 -89t-105 -44t-150 -16
q-165 0 -252.5 84t-87.5 249q0 168 109.5 246t346.5 78q112 0 209 -10l21 18q0 111 -40 156t-128 45q-78 0 -114 -22t-48 -72l-25 -19h-260zM743 1317q83 0 88 102l21 21h117l20 -21q-8 -146 -65.5 -211t-157.5 -65q-44 0 -87 19t-83.5 42.5t-76.5 42.5t-66 19
q-28 0 -45.5 -9.5t-27.5 -28.5t-16 -65l-24 -20h-117l-18 20q12 149 67 213t158 64q46 0 90 -19t84.5 -42.5l75.5 -42.5t63 -19z" />
    <glyph glyph-name="adieresis" unicode="&#xe4;" horiz-adv-x="1161" 
d="M375 315q0 -69 40.5 -100t119.5 -31q104 0 163.5 60t59.5 168l-21 22q-93 10 -188 10t-134.5 -30.5t-39.5 -98.5zM127 754q19 144 139 220.5t324 76.5q236 0 347.5 -93.5t111.5 -298.5v-639l-21 -20h-244l-20 20v111l-6 -2q-47 -61 -91 -89t-105 -44t-150 -16
q-165 0 -252.5 84t-87.5 249q0 168 109.5 246t346.5 78q112 0 209 -10l21 18q0 111 -40 156t-128 45q-78 0 -114 -22t-48 -72l-25 -19h-260zM290 1159l-20 21v180l20 20h181l20 -20v-180l-20 -21h-181zM710 1159l-20 21v180l20 20h180l21 -20v-180l-21 -21h-180z" />
    <glyph glyph-name="aring" unicode="&#xe5;" horiz-adv-x="1161" 
d="M375 315q0 -69 40.5 -100t119.5 -31q104 0 163.5 60t59.5 168l-21 22q-93 10 -188 10t-134.5 -30.5t-39.5 -98.5zM127 754q19 144 139 220.5t324 76.5q236 0 347.5 -93.5t111.5 -298.5v-639l-21 -20h-244l-20 20v111l-6 -2q-47 -61 -91 -89t-105 -44t-150 -16
q-165 0 -252.5 84t-87.5 249q0 168 109.5 246t346.5 78q112 0 209 -10l21 18q0 111 -40 156t-128 45q-78 0 -114 -22t-48 -72l-25 -19h-260zM336 1383q0 106 75.5 180t180.5 74t180.5 -74t75.5 -180q0 -108 -75.5 -182t-180.5 -74t-180.5 74t-75.5 182zM453 1383
q0 -60 41 -100t98 -40q59 0 99 41t40 99q0 56 -40 96.5t-99 40.5q-56 0 -97.5 -39.5t-41.5 -97.5z" />
    <glyph glyph-name="ae" unicode="&#xe6;" horiz-adv-x="1821" 
d="M1729 436h-664l-16 -18q17 -215 206 -215q73 0 118 20.5t67 77.5l22 14h248l19 -18q-31 -165 -151 -241t-337 -76q-237 0 -367 149q-93 -84 -185.5 -116.5t-209.5 -32.5q-208 0 -307.5 81.5t-99.5 251.5q0 168 109.5 246t346.5 78q112 0 209 -10l21 18q0 111 -40 156
t-128 45q-78 0 -114 -22t-48 -72l-25 -19h-260l-16 21q19 144 139 220.5t324 76.5q229 0 348 -115q133 115 309 115q243 0 372.5 -139t129.5 -394v-61zM375 315q0 -69 40.5 -100t119.5 -31q91 0 157 64.5t66 163.5l-21 22q-93 10 -188 10t-134.5 -30.5t-39.5 -98.5z
M1255 829q-92 0 -144 -44t-60 -121l14 -21h365l18 21q-23 165 -193 165z" />
    <glyph glyph-name="ccedilla" unicode="&#xe7;" horiz-adv-x="1118" 
d="M446 -147l52 131q-200 20 -313 159.5t-113 376.5q0 165 62.5 284.5t177.5 183t263 63.5q209 0 328.5 -79.5t153.5 -254.5l-19 -19h-247l-23 15q-22 56 -64 77t-114 21q-114 0 -164.5 -70t-50.5 -223q0 -151 49 -224t156 -73q83 0 125.5 23.5t62.5 81.5l23 16h247l19 -18
q-29 -164 -134.5 -247t-291.5 -95l-19 -54q185 -16 185 -166q0 -99 -76.5 -151.5t-226.5 -52.5h-23l-61 4l-21 20v86l21 21q31 -4 65 -4q131 0 131 75q0 35 -27 53.5t-92 18.5h-28z" />
    <glyph glyph-name="egrave" unicode="&#xe8;" horiz-adv-x="1149" 
d="M1057 436h-664l-16 -18q17 -215 207 -215q72 0 117 20.5t67 77.5l23 14h247l19 -18q-31 -165 -151 -241t-337 -76q-235 0 -366 145t-131 395q0 165 62.5 284.5t177.5 183t263 63.5q243 0 372.5 -138t129.5 -395v-61zM584 829q-93 0 -145 -44t-60 -121l14 -21h365l18 21
q-23 165 -192 165zM569 1143l-342 276l21 43h242l251 -297l-20 -22h-152z" />
    <glyph glyph-name="eacute" unicode="&#xe9;" horiz-adv-x="1149" 
d="M1057 436h-664l-16 -18q17 -215 207 -215q72 0 117 20.5t67 77.5l23 14h247l19 -18q-31 -165 -151 -241t-337 -76q-235 0 -366 145t-131 395q0 165 62.5 284.5t177.5 183t263 63.5q243 0 372.5 -138t129.5 -395v-61zM584 829q-93 0 -145 -44t-60 -121l14 -21h365l18 21
q-23 165 -192 165zM453 1143l-21 22l252 297h242l20 -43l-342 -276h-151z" />
    <glyph glyph-name="ecircumflex" unicode="&#xea;" horiz-adv-x="1149" 
d="M1057 436h-664l-16 -18q17 -215 207 -215q72 0 117 20.5t67 77.5l23 14h247l19 -18q-31 -165 -151 -241t-337 -76q-235 0 -366 145t-131 395q0 165 62.5 284.5t177.5 183t263 63.5q243 0 372.5 -138t129.5 -395v-61zM584 829q-93 0 -145 -44t-60 -121l14 -21h365l18 21
q-23 165 -192 165zM964 1163l-20 -20h-143l-205 182l-211 -182h-144l-20 20l240 293l20 19h227l21 -19z" />
    <glyph glyph-name="edieresis" unicode="&#xeb;" horiz-adv-x="1149" 
d="M1057 436h-664l-16 -18q17 -215 207 -215q72 0 117 20.5t67 77.5l23 14h247l19 -18q-31 -165 -151 -241t-337 -76q-235 0 -366 145t-131 395q0 165 62.5 284.5t177.5 183t263 63.5q243 0 372.5 -138t129.5 -395v-61zM584 829q-93 0 -145 -44t-60 -121l14 -21h365l18 21
q-23 165 -192 165zM288 1159l-20 21v180l20 20h181l20 -20v-180l-20 -21h-181zM708 1159l-20 21v180l20 20h180l21 -20v-180l-21 -21h-180z" />
    <glyph glyph-name="igrave" unicode="&#xec;" horiz-adv-x="541" 
d="M125 1010l20 20h250l21 -20v-990l-21 -20h-250l-20 20v990zM252 1143l-342 276l21 43h242l251 -297l-20 -22h-152z" />
    <glyph glyph-name="iacute" unicode="&#xed;" horiz-adv-x="541" 
d="M125 1010l20 20h250l21 -20v-990l-21 -20h-250l-20 20v990zM133 1143l-21 22l252 297h242l20 -43l-342 -276h-151z" />
    <glyph glyph-name="icircumflex" unicode="&#xee;" horiz-adv-x="541" 
d="M125 1010l20 20h250l21 -20v-990l-21 -20h-250l-20 20v990zM644 1163l-20 -20h-143l-205 182l-211 -182h-144l-20 20l240 293l20 19h227l21 -19z" />
    <glyph glyph-name="idieresis" unicode="&#xef;" horiz-adv-x="541" 
d="M125 1010l20 20h250l21 -20v-990l-21 -20h-250l-20 20v990zM-28 1159l-20 21v180l20 20h181l20 -20v-180l-20 -21h-181zM392 1159l-20 21v180l20 20h180l21 -20v-180l-21 -21h-180z" />
    <glyph glyph-name="eth" unicode="&#xf0;" horiz-adv-x="1192" 
d="M807 1233q153 -147 233 -325.5t80 -372.5q0 -269 -138 -412t-390 -143q-241 0 -380.5 134.5t-139.5 362.5q0 229 139 361.5t385 132.5q55 0 117 -10q-55 91 -148 186l-262 -92l-20 10v143l20 31l121 43q-92 72 -215 150l24 22h246q42 -18 81 -43l81 -51l285 102l20 -8
v-145l-20 -33zM815 477q0 132 -51 193t-164 61q-116 0 -170.5 -60t-54.5 -194q0 -127 52 -191.5t163 -64.5q122 0 173.5 63t51.5 193z" />
    <glyph glyph-name="ntilde" unicode="&#xf1;" horiz-adv-x="1223" 
d="M725 1051q186 0 285.5 -97.5t99.5 -287.5v-646l-20 -20h-250l-21 20v605q0 86 -44 131t-128 45q-115 0 -173 -51.5t-58 -151.5v-578l-21 -20h-250l-20 20v990l20 20h242l21 -20v-103h4q62 75 137 109.5t176 34.5zM780 1317q83 0 88 102l21 21h117l20 -21
q-8 -146 -65.5 -211t-157.5 -65q-44 0 -87 19t-83.5 42.5t-76.5 42.5t-66 19q-28 0 -45.5 -9.5t-27.5 -28.5t-16 -65l-24 -20h-117l-18 20q12 149 67 213t158 64q46 0 90 -19t84.5 -42.5l75.5 -42.5t63 -19z" />
    <glyph glyph-name="ograve" unicode="&#xf2;" horiz-adv-x="1192" 
d="M1120 518q0 -251 -141.5 -394.5t-386.5 -143.5q-241 0 -380.5 146t-139.5 392q0 245 138.5 389t385.5 144q253 0 388.5 -139t135.5 -394zM815 518q0 152 -51.5 222.5t-163.5 70.5q-116 0 -170.5 -70t-54.5 -223q0 -148 52.5 -222.5t162.5 -74.5q121 0 173 72.5t52 224.5z
M591 1143l-342 276l21 43h242l251 -297l-20 -22h-152z" />
    <glyph glyph-name="oacute" unicode="&#xf3;" horiz-adv-x="1192" 
d="M1120 518q0 -251 -141.5 -394.5t-386.5 -143.5q-241 0 -380.5 146t-139.5 392q0 245 138.5 389t385.5 144q253 0 388.5 -139t135.5 -394zM815 518q0 152 -51.5 222.5t-163.5 70.5q-116 0 -170.5 -70t-54.5 -223q0 -148 52.5 -222.5t162.5 -74.5q121 0 173 72.5t52 224.5z
M504 1143l-21 22l252 297h242l20 -43l-342 -276h-151z" />
    <glyph glyph-name="ocircumflex" unicode="&#xf4;" horiz-adv-x="1192" 
d="M1120 518q0 -251 -141.5 -394.5t-386.5 -143.5q-241 0 -380.5 146t-139.5 392q0 245 138.5 389t385.5 144q253 0 388.5 -139t135.5 -394zM815 518q0 152 -51.5 222.5t-163.5 70.5q-116 0 -170.5 -70t-54.5 -223q0 -148 52.5 -222.5t162.5 -74.5q121 0 173 72.5t52 224.5z
M968 1163l-20 -20h-143l-205 182l-211 -182h-144l-20 20l240 293l20 19h227l21 -19z" />
    <glyph glyph-name="otilde" unicode="&#xf5;" horiz-adv-x="1192" 
d="M1120 518q0 -251 -141.5 -394.5t-386.5 -143.5q-241 0 -380.5 146t-139.5 392q0 245 138.5 389t385.5 144q253 0 388.5 -139t135.5 -394zM815 518q0 152 -51.5 222.5t-163.5 70.5q-116 0 -170.5 -70t-54.5 -223q0 -148 52.5 -222.5t162.5 -74.5q121 0 173 72.5t52 224.5z
M743 1317q83 0 88 102l21 21h117l20 -21q-8 -146 -65.5 -211t-157.5 -65q-44 0 -87 19t-83.5 42.5t-76.5 42.5t-66 19q-28 0 -45.5 -9.5t-27.5 -28.5t-16 -65l-24 -20h-117l-18 20q12 149 67 213t158 64q46 0 90 -19t84.5 -42.5l75.5 -42.5t63 -19z" />
    <glyph glyph-name="odieresis" unicode="&#xf6;" horiz-adv-x="1192" 
d="M1120 518q0 -251 -141.5 -394.5t-386.5 -143.5q-241 0 -380.5 146t-139.5 392q0 245 138.5 389t385.5 144q253 0 388.5 -139t135.5 -394zM815 518q0 152 -51.5 222.5t-163.5 70.5q-116 0 -170.5 -70t-54.5 -223q0 -148 52.5 -222.5t162.5 -74.5q121 0 173 72.5t52 224.5z
M297 1159l-20 21v180l20 20h181l20 -20v-180l-20 -21h-181zM717 1159l-20 21v180l20 20h180l21 -20v-180l-21 -21h-180z" />
    <glyph glyph-name="divide" unicode="&#xf7;" 
d="M502 164l-21 20v199l21 20h203l20 -20v-199l-20 -20h-203zM502 961l-21 20v199l21 20h203l20 -20v-199l-20 -20h-203zM88 567l-20 21v188l20 21h1032l21 -21v-188l-21 -21h-1032z" />
    <glyph glyph-name="oslash" unicode="&#xf8;" horiz-adv-x="1192" 
d="M1120 518q0 -251 -141.5 -394.5t-386.5 -143.5q-146 0 -262 59h-43l-64 -76l-30 -20h-148l-10 20l139 166v41q-102 138 -102 348q0 245 138.5 389t385.5 144q154 0 268 -54h45l56 68l28 20h148l12 -20l-135 -160v-39q102 -140 102 -348zM375 518q0 -65 8 -102h33l286 338
v37q-38 20 -102 20q-116 0 -170.5 -70t-54.5 -223zM815 518q0 56 -6 98h-33l-291 -344v-30q46 -21 105 -21q121 0 173 72.5t52 224.5z" />
    <glyph glyph-name="ugrave" unicode="&#xf9;" horiz-adv-x="1223" 
d="M498 -20q-186 0 -285.5 97.5t-99.5 287.5v645l20 20h250l20 -20v-604q0 -87 44.5 -132t127.5 -45q116 0 174 52t58 151v578l20 20h250l21 -20v-990l-21 -20h-241l-21 20v103h-4q-61 -75 -137.5 -109t-175.5 -34zM555 1143l-342 276l21 43h242l251 -297l-20 -22h-152z" />
    <glyph glyph-name="uacute" unicode="&#xfa;" horiz-adv-x="1223" 
d="M498 -20q-186 0 -285.5 97.5t-99.5 287.5v645l20 20h250l20 -20v-604q0 -87 44.5 -132t127.5 -45q116 0 174 52t58 151v578l20 20h250l21 -20v-990l-21 -20h-241l-21 20v103h-4q-61 -75 -137.5 -109t-175.5 -34zM520 1143l-21 22l252 297h242l20 -43l-342 -276h-151z" />
    <glyph glyph-name="ucircumflex" unicode="&#xfb;" horiz-adv-x="1223" 
d="M498 -20q-186 0 -285.5 97.5t-99.5 287.5v645l20 20h250l20 -20v-604q0 -87 44.5 -132t127.5 -45q116 0 174 52t58 151v578l20 20h250l21 -20v-990l-21 -20h-241l-21 20v103h-4q-61 -75 -137.5 -109t-175.5 -34zM981 1163l-20 -20h-143l-205 182l-211 -182h-144l-20 20
l240 293l20 19h227l21 -19z" />
    <glyph glyph-name="udieresis" unicode="&#xfc;" horiz-adv-x="1223" 
d="M498 -20q-186 0 -285.5 97.5t-99.5 287.5v645l20 20h250l20 -20v-604q0 -87 44.5 -132t127.5 -45q116 0 174 52t58 151v578l20 20h250l21 -20v-990l-21 -20h-241l-21 20v103h-4q-61 -75 -137.5 -109t-175.5 -34zM307 1159l-20 21v180l20 20h181l20 -20v-180l-20 -21h-181
zM727 1159l-20 21v180l20 20h180l21 -20v-180l-21 -21h-180z" />
    <glyph glyph-name="yacute" unicode="&#xfd;" horiz-adv-x="1024" 
d="M29 844v166l20 20h230l239 -706l227 706h230l20 -20v-166l-319 -862q-91 -243 -172 -329.5t-199 -86.5h-178l-21 20v209l21 21h61q62 0 103.5 42t70.5 138zM395 1143l-21 22l252 297h242l20 -43l-342 -276h-151z" />
    <glyph glyph-name="thorn" unicode="&#xfe;" horiz-adv-x="1214" 
d="M416 432q0 -100 56.5 -156.5t158.5 -56.5q109 0 158 74t49 225q0 149 -48 221t-159 72q-102 0 -158.5 -56.5t-56.5 -156.5v-166zM403 123q13 -121 13 -148v-397l-21 -20h-250l-20 20v1874l20 21h238l20 -21v-545h5q112 137 297 137q205 0 321.5 -141t116.5 -385
q0 -246 -117.5 -389t-320.5 -143q-94 0 -163.5 33t-133.5 104h-5z" />
    <glyph glyph-name="ydieresis" unicode="&#xff;" horiz-adv-x="1024" 
d="M29 844v166l20 20h230l239 -706l227 706h230l20 -20v-166l-319 -862q-91 -243 -172 -329.5t-199 -86.5h-178l-21 20v209l21 21h61q62 0 103.5 42t70.5 138zM213 1159l-20 21v180l20 20h181l20 -20v-180l-20 -21h-181zM633 1159l-20 21v180l20 20h180l21 -20v-180l-21 -21
h-180z" />
    <glyph glyph-name="dotlessi" unicode="&#x131;" horiz-adv-x="541" 
d="M125 1010l20 20h250l21 -20v-990l-21 -20h-250l-20 20v990z" />
    <glyph glyph-name="Lslash" unicode="&#x141;" horiz-adv-x="1139" 
d="M164 0l-21 20v367l-20 10l-109 -61l-20 10v195l20 30l111 62l18 22v758l21 21h260l20 -21v-567l25 -17l272 154l21 -8v-197l-21 -33l-276 -155l-21 -29v-280l21 -21h588l20 -20v-220l-20 -20h-889z" />
    <glyph glyph-name="lslash" unicode="&#x142;" horiz-adv-x="625" 
d="M416 956l20 -12l84 49l21 -8v-166l-21 -33l-86 -47l-18 -32v-381q0 -42 18.5 -64t71.5 -22h78l20 -21v-209l-20 -20h-158q-139 0 -220 92.5t-81 247.5v217l-21 10l-81 -45l-21 10v164l21 31l83 47l19 33v655l20 21h250l21 -21v-496z" />
    <glyph glyph-name="OE" unicode="&#x152;" horiz-adv-x="2023" 
d="M758 -20q-327 0 -501.5 192t-174.5 545t174.5 545t501.5 192q94 0 194 -20h969l21 -21v-219l-21 -20h-635l-20 -21v-264l20 -21h569l21 -20v-219l-21 -21h-569l-20 -20v-307l20 -21h635l21 -20v-220l-21 -20h-967q-100 -20 -196 -20zM758 1198q-363 0 -363 -481t363 -481
q65 0 113.5 6t93.5 32v883q-60 23 -102.5 32t-104.5 9z" />
    <glyph glyph-name="oe" unicode="&#x153;" horiz-adv-x="1892" 
d="M1800 436h-663l-17 -18q11 -113 62.5 -164t144.5 -51q72 0 117.5 20.5t66.5 77.5l23 14h248l18 -18q-31 -165 -150.5 -241t-336.5 -76q-216 0 -350 147q-145 -147 -371 -147q-241 0 -380.5 146t-139.5 392q0 245 138.5 389t385.5 144q231 0 375 -146q69 71 159 108.5
t189 37.5q243 0 372.5 -139t129.5 -394v-61zM815 518q0 152 -51.5 222.5t-163.5 70.5q-116 0 -170.5 -70t-54.5 -223q0 -148 52.5 -222.5t162.5 -74.5q121 0 173 72.5t52 224.5zM1327 829q-93 0 -145 -44t-60 -121l15 -21h364l19 21q-23 165 -193 165z" />
    <glyph glyph-name="Scaron" unicode="&#x160;" horiz-adv-x="1370" 
d="M1290 408q0 -211 -156 -319.5t-454 -108.5q-288 0 -440 105.5t-179 324.5l21 20h270l21 -20q31 -97 105 -135.5t212 -38.5t212.5 43.5t74.5 117.5q0 54 -33 90t-95 61t-237 60q-272 53 -382.5 161.5t-110.5 289.5q0 193 144.5 294t420.5 101q540 0 565 -385l-20 -20h-271
l-20 20q-12 65 -74 97t-186 32q-123 0 -184.5 -33.5t-61.5 -105.5q0 -44 25.5 -72.5t76.5 -50t218 -59.5q183 -42 275 -81.5t148.5 -94t85.5 -127t29 -166.5zM804 1528h-227l-20 18l-240 293l20 21h144l211 -183l205 183h143l20 -21l-235 -293z" />
    <glyph glyph-name="scaron" unicode="&#x161;" horiz-adv-x="1057" 
d="M530 831q-165 0 -165 -73q0 -42 42.5 -62.5t225.5 -54.5q207 -39 290 -116.5t83 -221.5q0 -168 -115 -245.5t-354 -77.5q-152 0 -249.5 31t-153.5 94t-83 188l19 18h247l23 -16q20 -50 67.5 -73t139.5 -23q81 0 125.5 19t44.5 67q0 37 -20.5 56t-74 34.5t-176.5 38.5
q-200 39 -284 117t-84 217q0 303 452 303q400 0 449 -316l-18 -18h-230l-22 16q-16 44 -35 62t-52.5 27t-91.5 9zM657 1143h-227l-20 18l-240 293l20 21h144l211 -183l205 183h143l20 -21l-235 -293z" />
    <glyph glyph-name="Ydieresis" unicode="&#x178;" horiz-adv-x="1233" 
d="M614 846l355 588h215l20 -21v-166l-438 -702v-525l-21 -20h-260l-20 20v525l-436 702v166l20 21h215zM307 1530l-20 20v181l20 20h180l21 -20v-181l-21 -20h-180zM747 1530l-20 20v181l20 20h181l20 -20v-181l-20 -20h-181z" />
    <glyph glyph-name="Zcaron" unicode="&#x17d;" horiz-adv-x="1255" 
d="M1208 20l-20 -20h-1108l-21 20v216l732 935h-654l-20 21v221l20 21h993l21 -21v-213l-731 -940h768l20 -20v-220zM757 1528h-227l-20 18l-240 293l20 21h144l211 -183l205 183h143l20 -21l-235 -293z" />
    <glyph glyph-name="zcaron" unicode="&#x17e;" horiz-adv-x="1030" 
d="M76 805v205l20 20h832l20 -20v-205l-502 -559h502l21 -21v-205l-21 -20h-866l-21 20v205l504 559h-469zM618 1143h-227l-20 18l-240 293l20 21h144l211 -183l205 183h143l20 -21l-235 -293z" />
    <glyph glyph-name="florin" unicode="&#x192;" 
d="M1055 1452l-37 -197l-25 -20h-84q-66 0 -108 -43.5t-56 -114.5l-6 -26l17 -21h196l17 -20l-37 -195l-25 -20h-196l-25 -23l-233 -1194l-25 -20h-250l-16 20l233 1196l-16 21h-94l-17 20l37 195l25 20h94l25 21l12 55q35 187 150.5 277t330.5 90h96z" />
    <glyph glyph-name="circumflex" unicode="&#x2c6;" horiz-adv-x="745" 
d="M743 1163l-20 -20h-143l-205 182l-211 -182h-144l-20 20l240 293l20 19h227l21 -19z" />
    <glyph glyph-name="caron" unicode="&#x2c7;" horiz-adv-x="745" 
d="M487 1143h-227l-20 18l-240 293l20 21h144l211 -183l205 183h143l20 -21l-235 -293z" />
    <glyph glyph-name="breve" unicode="&#x2d8;" horiz-adv-x="584" 
d="M293 1143q-145 0 -240 85.5t-104 219.5l20 20h131l21 -20q10 -61 58 -102t118 -41q67 0 114.5 40t57.5 103l20 20h129l21 -20q-17 -144 -108.5 -224.5t-237.5 -80.5z" />
    <glyph glyph-name="dotaccent" unicode="&#x2d9;" horiz-adv-x="541" 
d="M395 1473l21 -21v-215l-21 -20h-250l-20 20v215l20 21h250z" />
    <glyph glyph-name="ring" unicode="&#x2da;" horiz-adv-x="584" 
d="M37 1350q0 106 75.5 180t180.5 74t180.5 -74t75.5 -180q0 -108 -75.5 -182t-180.5 -74t-180.5 74t-75.5 182zM154 1350q0 -60 41 -100t98 -40q59 0 99 41t40 99q0 56 -40 96.5t-99 40.5q-56 0 -97.5 -39.5t-41.5 -97.5z" />
    <glyph glyph-name="ogonek" unicode="&#x2db;" horiz-adv-x="629" 
d="M299 -166q0 -42 27 -67t75 -25q47 0 99 14l20 -14v-107l-20 -26q-61 -23 -138 -23q-108 0 -169.5 56.5t-61.5 158.5q0 88 64 160.5t172 112.5l108 -35q-80 -40 -128 -92.5t-48 -112.5z" />
    <glyph glyph-name="tilde" unicode="&#x2dc;" horiz-adv-x="764" 
d="M526 1317q83 0 88 102l21 21h117l20 -21q-8 -146 -65.5 -211t-157.5 -65q-44 0 -87 19t-83.5 42.5t-76.5 42.5t-66 19q-28 0 -45.5 -9.5t-27.5 -28.5t-16 -65l-24 -20h-117l-18 20q12 149 67 213t158 64q46 0 90 -19t84.5 -42.5l75.5 -42.5t63 -19z" />
    <glyph glyph-name="hungarumlaut" unicode="&#x2dd;" horiz-adv-x="928" 
d="M61 1143l-20 22l252 297h242l20 -43l-342 -276h-152zM446 1143l-20 22l252 297h242l20 -43l-342 -276h-152z" />
    <glyph glyph-name="uni03A9" unicode="&#x3a9;" horiz-adv-x="1616" 
d="M811 1454q330 0 519.5 -156.5t189.5 -435.5q0 -137 -38.5 -239t-119 -181t-236.5 -161v-21h402l20 -20v-220l-20 -20h-619l-20 20v336l20 21q160 93 229.5 194.5t69.5 253.5q0 173 -103 268t-296 95q-192 0 -295.5 -95t-103.5 -268q0 -151 69.5 -253t229.5 -195l20 -21
v-336l-20 -20h-619l-20 20v220l20 20h402v21q-159 83 -239 162t-117.5 181t-37.5 238q0 186 87 319t248 203t378 70z" />
    <glyph glyph-name="pi" unicode="&#x3c0;" horiz-adv-x="1323" 
d="M1243 1030l21 -20v-195l-21 -20h-156l-20 -23v-446q0 -45 18 -65.5t72 -20.5h57l21 -21v-209l-21 -20h-120q-150 0 -234 89.5t-84 250.5v444l-20 21h-271v-775l-20 -20h-250l-20 20v775h-142l-20 20v195l20 20h1190z" />
    <glyph glyph-name="endash" unicode="&#x2013;" horiz-adv-x="1014" 
d="M20 426l-20 20v168l20 21h973l21 -21v-168l-21 -20h-973z" />
    <glyph glyph-name="emdash" unicode="&#x2014;" horiz-adv-x="2048" 
d="M20 426l-20 20v168l20 21h2008l20 -21v-168l-20 -20h-2008z" />
    <glyph glyph-name="quoteleft" unicode="&#x2018;" horiz-adv-x="465" 
d="M188 1434h138l20 -21q-78 -139 -90 -280l20 -21h80l21 -20v-224l-21 -20h-256l-20 20v183q0 213 82 362z" />
    <glyph glyph-name="quoteright" unicode="&#x2019;" horiz-adv-x="465" 
d="M272 848h-137l-20 20q78 139 90 281l-21 20h-80l-20 21v223l20 21h256l21 -21v-182q0 -219 -82 -363z" />
    <glyph glyph-name="quotesinglbase" unicode="&#x201a;" horiz-adv-x="514" 
d="M297 -322h-137l-21 21q78 140 90 281l-20 20h-80l-20 20v224l20 20h256l21 -20v-183q0 -218 -82 -362z" />
    <glyph glyph-name="quotedblleft" unicode="&#x201c;" horiz-adv-x="903" 
d="M188 1434h138l20 -21q-78 -139 -90 -280l20 -21h80l21 -20v-224l-21 -20h-256l-20 20v183q0 213 82 362zM631 1434h137l20 -21q-76 -135 -90 -280l21 -21h80l20 -20v-224l-20 -20h-256l-21 20v183q0 213 82 362z" />
    <glyph glyph-name="quotedblright" unicode="&#x201d;" horiz-adv-x="903" 
d="M715 848h-137l-21 20q78 139 90 281l-20 20h-80l-21 21v223l21 21h256l20 -21v-182q0 -219 -82 -363zM272 848h-137l-20 20q78 139 90 281l-21 20h-80l-20 21v223l20 21h256l21 -21v-182q0 -219 -82 -363z" />
    <glyph glyph-name="quotedblbase" unicode="&#x201e;" horiz-adv-x="903" 
d="M715 -322h-137l-21 21q78 140 90 281l-20 20h-80l-21 20v224l21 20h256l20 -20v-183q0 -218 -82 -362zM272 -322h-137l-20 21q78 140 90 281l-21 20h-80l-20 20v224l20 20h256l21 -20v-183q0 -218 -82 -362z" />
    <glyph glyph-name="dagger" unicode="&#x2020;" horiz-adv-x="1049" 
d="M594 -252h-139l-21 21l-24 1044l-21 21l-303 -19l-20 21v186l20 20l303 -18l21 20l-13 369l21 21h211l20 -21l-10 -371l20 -18l306 18l20 -20v-186l-20 -21l-306 19l-20 -21l-25 -1044z" />
    <glyph glyph-name="daggerdbl" unicode="&#x2021;" horiz-adv-x="1049" 
d="M614 580l25 -238l20 -20l306 18l20 -21v-186l-20 -20l-306 18l-20 -18l10 -371l-20 -21h-211l-21 21l13 369l-21 20l-303 -18l-20 20v186l20 21l303 -18l21 20l24 236l-24 235l-21 21l-303 -19l-20 21v186l20 20l303 -18l21 20l-13 369l21 21h211l20 -21l-10 -371l20 -18
l306 18l20 -20v-186l-20 -21l-306 19l-20 -21z" />
    <glyph glyph-name="bullet" unicode="&#x2022;" horiz-adv-x="815" 
d="M702 717q0 -122 -87.5 -209.5t-208.5 -87.5q-122 0 -207.5 88t-85.5 209q0 120 85 206.5t208 86.5q121 0 208.5 -86t87.5 -207z" />
    <glyph glyph-name="ellipsis" unicode="&#x2026;" horiz-adv-x="1507" 
d="M109 0l-21 20v273l21 20h256l20 -20v-273l-20 -20h-256zM627 0l-21 20v273l21 20h256l20 -20v-273l-20 -20h-256zM1141 0l-21 20v273l21 20h258l20 -20v-273l-20 -20h-258z" />
    <glyph glyph-name="perthousand" unicode="&#x2030;" horiz-adv-x="2828" 
d="M815 1001q0 -217 -91.5 -333.5t-266.5 -116.5q-176 0 -267.5 115t-91.5 335q0 226 88 336.5t275 110.5q181 0 267.5 -112.5t86.5 -334.5zM592 1001q0 146 -30.5 207.5t-100.5 61.5q-75 0 -107 -60t-32 -209q0 -143 31.5 -204.5t105.5 -61.5q72 0 102.5 63.5t30.5 202.5z
M1911 432q0 -220 -92 -334t-267 -114q-178 0 -268 114.5t-90 333.5q0 223 87 336t275 113q181 0 268 -113t87 -336zM1688 432q0 147 -30.5 207.5t-101.5 60.5q-75 0 -107 -59.5t-32 -208.5q0 -143 31.5 -204.5t105.5 -61.5q71 0 102.5 63.5t31.5 202.5zM786 0h-170l-14 20
l610 1432l25 21h166l16 -21l-606 -1432zM2730 432q0 -219 -90.5 -333.5t-267.5 -114.5t-268 114.5t-91 333.5q0 223 87 336t276 113q182 0 268 -114t86 -335zM2507 432q0 147 -30.5 207.5t-100.5 60.5q-77 0 -108.5 -60.5t-31.5 -207.5q0 -143 31.5 -204.5t106.5 -61.5
q72 0 102.5 63.5t30.5 202.5z" />
    <glyph glyph-name="guilsinglleft" unicode="&#x2039;" horiz-adv-x="705" 
d="M397 141l-338 359v75l338 365h226l20 -39l-336 -364l338 -361l-20 -35h-228z" />
    <glyph glyph-name="guilsinglright" unicode="&#x203a;" horiz-adv-x="705" 
d="M80 141l-21 35l336 361l-334 364l21 39h225l338 -365v-75l-338 -359h-227z" />
    <glyph glyph-name="fraction" unicode="&#x2044;" horiz-adv-x="246" 
d="M-238 0h-155l-15 20l887 1393l25 21h153l17 -21l-885 -1393z" />
    <glyph glyph-name="foursuperior" unicode="&#x2074;" horiz-adv-x="836" 
d="M664 719l-13 -12v-121l-12 -13h-166l-12 13v121l-12 12h-359l-12 12v154l342 536l18 13h201l12 -13v-530l13 -12h86l12 -13v-135l-12 -12h-86zM461 1208l-207 -329h195l12 12v317z" />
    <glyph glyph-name="Euro" unicode="&#x20ac;" 
d="M463 780l-21 -20v-80l25 -21h297l20 -20v-115l-20 -20h-281l-24 -21q20 -138 71 -196t150 -58q68 0 118 54.5t74 154.5l23 15h252l18 -19q-36 -221 -160.5 -337.5t-324.5 -116.5q-233 0 -360 124.5t-158 378.5l-21 21h-100l-21 20v115l21 20h84l20 21v80l-20 20h-84
l-21 21v114l21 21h96l23 20q56 498 508 498q201 0 327 -113t160 -319l-18 -18h-252l-23 14q-24 100 -70.5 144t-115.5 44q-105 0 -155 -57.5t-64 -192.5l22 -20h285l20 -21v-114l-20 -21h-301z" />
    <glyph glyph-name="trademark" unicode="&#x2122;" horiz-adv-x="1565" 
d="M606 1434l10 -11v-110l-10 -10h-200l-11 -11v-565l-10 -10h-129l-10 10v565l-10 11h-201l-10 10v110l10 11h571zM1343 717l-10 10v412l2 147q-15 -51 -198 -559l-15 -10h-98l-14 10l-160 436q-30 78 -43 123l2 -67v-492l-10 -10h-119l-10 10v696l10 11h194l15 -11
l153 -419q21 -53 31 -97l182 516l15 11h194l11 -11v-696l-11 -10h-121z" />
    <glyph glyph-name="Omega" unicode="&#x2126;" horiz-adv-x="1616" 
d="M811 1454q330 0 519.5 -156.5t189.5 -435.5q0 -137 -38.5 -239t-119 -181t-236.5 -161v-21h402l20 -20v-220l-20 -20h-619l-20 20v336l20 21q160 93 229.5 194.5t69.5 253.5q0 173 -103 268t-296 95q-192 0 -295.5 -95t-103.5 -268q0 -151 69.5 -253t229.5 -195l20 -21
v-336l-20 -20h-619l-20 20v220l20 20h402v21q-159 83 -239 162t-117.5 181t-37.5 238q0 186 87 319t248 203t378 70z" />
    <glyph glyph-name="partialdiff" unicode="&#x2202;" horiz-adv-x="1214" 
d="M358 1237q7 22 45 172q122 55 267 55q241 0 372.5 -146.5t131.5 -416.5q0 -279 -83 -489t-240.5 -323.5t-373.5 -113.5q-207 0 -318.5 102.5t-111.5 293.5q0 113 42 231t114 202t171 128.5t216 44.5q94 0 168.5 -41t111.5 -117h4q5 25 5 86q0 178 -68.5 269.5
t-200.5 91.5q-50 0 -116.5 -14.5t-112.5 -37.5zM836 641q-16 71 -68.5 116.5t-120.5 45.5q-77 0 -143 -56.5t-108 -163t-42 -206.5q0 -93 41 -148t121 -55q111 0 201 134t119 333z" />
    <glyph glyph-name="Delta" unicode="&#x2206;" horiz-adv-x="1311" 
d="M815 1434l21 -21l446 -1227v-166l-20 -20h-1213l-20 20v166l446 1227l21 21h319zM426 260h459l28 37l-258 762l-258 -764z" />
    <glyph glyph-name="product" unicode="&#x220f;" horiz-adv-x="1454" 
d="M1290 1434l21 -21v-1835l-21 -20h-260l-20 20v1581l-21 21h-524l-21 -21v-1581l-20 -20h-260l-21 20v1835l21 21h1126z" />
    <glyph glyph-name="summation" unicode="&#x2211;" horiz-adv-x="1333" 
d="M137 1413l21 21h993l20 -21v-221l-20 -21h-645l420 -550v-197l-471 -606h768l20 -21v-219l-20 -20h-1108l-21 20v215l561 717l-518 690v213z" />
    <glyph glyph-name="minus" unicode="&#x2212;" 
d="M88 567l-20 21v188l20 21h1032l21 -21v-188l-21 -21h-1032z" />
    <glyph glyph-name="radical" unicode="&#x221a;" horiz-adv-x="1253" 
d="M729 -25h-137l-29 25l-262 721h-160l-22 22v127l20 25h293l217 -631l412 1356h192l-499 -1620z" />
    <glyph glyph-name="infinity" unicode="&#x221e;" horiz-adv-x="1673" 
d="M1628 582q0 -111 -50.5 -205.5t-141 -149.5t-199.5 -55q-125 0 -224.5 67.5t-178.5 209.5q-72 -122 -178.5 -193.5t-219.5 -71.5q-176 0 -283.5 115t-107.5 299q0 114 50.5 208.5t141.5 148t201 53.5q249 0 396 -277q78 127 184 195.5t221 68.5q176 0 282.5 -113.5
t106.5 -299.5zM1411 584q0 93 -59 153t-150 60q-148 0 -264 -215q65 -115 127.5 -163t138.5 -48q90 0 148.5 62t58.5 151zM735 598q-55 100 -117.5 156.5t-148.5 56.5q-88 0 -147.5 -62t-59.5 -153q0 -92 58 -152.5t153 -60.5q146 0 262 215z" />
    <glyph glyph-name="integral" unicode="&#x222b;" horiz-adv-x="909" 
d="M315 1061q0 161 84 250.5t234 89.5h182l21 -21v-209l-21 -20h-119q-53 0 -71.5 -21t-18.5 -65v-1167q0 -163 -83.5 -251.5t-233.5 -88.5h-183l-20 20v209l20 20h119q54 0 72 21t18 66v1167z" />
    <glyph glyph-name="approxequal" unicode="&#x2248;" 
d="M866 266q-78 0 -154 22t-155 48q-133 45 -229 45q-63 0 -121 -17t-123 -59l-21 8v183l21 32q111 70 258 70q58 0 130.5 -14t207.5 -58q138 -45 207 -45q115 0 239 78l21 -8v-184l-21 -33q-68 -39 -122 -53.5t-138 -14.5zM866 752q-78 0 -154 21.5t-155 47.5
q-133 45 -229 45q-65 0 -121 -16t-123 -59l-21 8v182l21 33q112 69 258 69q88 0 172.5 -22.5t165.5 -48.5q129 -45 207 -45q116 0 239 77l21 -8v-184l-21 -33q-70 -41 -125.5 -54t-134.5 -13z" />
    <glyph glyph-name="notequal" unicode="&#x2260;" 
d="M502 285l-115 -232l-31 -20h-178l-10 20l115 232h-195l-20 20v191l20 20h309l160 324h-469l-20 20v191l20 20h586l117 236l28 20h178l13 -20l-117 -236h227l21 -20v-191l-21 -20h-344l-160 -324h504l21 -20v-191l-21 -20h-618z" />
    <glyph glyph-name="lessequal" unicode="&#x2264;" 
d="M88 0l-20 20v189l20 20h1032l21 -20v-189l-21 -20h-1032zM1143 1092l-21 -29l-843 -266l843 -267l21 -28v-195l-21 -12l-1034 328l-20 28v291l20 29l1034 327l21 -12v-194z" />
    <glyph glyph-name="greaterequal" unicode="&#x2265;" 
d="M88 0l-20 20v189l20 20h1032l21 -20v-189l-21 -20h-1032zM68 1286l20 12l1032 -325l21 -29v-291l-21 -28l-1032 -330l-20 12v195l20 28l842 269l-842 264l-20 29v194z" />
    <glyph glyph-name="lozenge" unicode="&#x25ca;" horiz-adv-x="1141" 
d="M621 0h-109l-471 721l471 725h109l473 -723zM567 1194l-307 -471l307 -485l305 485z" />
    <glyph glyph-name="commaaccent" unicode="&#xf6c3;" horiz-adv-x="575" 
d="M313 1073h-114l-9 21q97 93 97 172h-94l-21 20v148l21 20h219l20 -20v-101q0 -84 -19.5 -139.5t-58.5 -99.5z" />
    <glyph glyph-name="fi" unicode="&#xfb01;" horiz-adv-x="1253" 
d="M705 1452v-197l-21 -20h-84q-66 0 -99.5 -43.5t-33.5 -114.5v-33l20 -20h197l21 -20v-195l-21 -21h-197l-20 -22v-746l-21 -20h-249l-21 20v748l-20 20h-95l-20 21v195l20 20h95l20 20v62q0 187 98.5 277t313.5 90h96zM1108 1473l21 -21v-215l-21 -20h-250l-20 20v215
l20 21h250zM838 1010l20 20h250l21 -20v-990l-21 -20h-250l-20 20v990z" />
    <glyph glyph-name="fl" unicode="&#xfb02;" horiz-adv-x="1337" 
d="M705 1452v-197l-21 -20h-84q-66 0 -99.5 -43.5t-33.5 -114.5v-33l20 -20h197l21 -20v-195l-21 -21h-197l-20 -22v-746l-21 -20h-249l-21 20v748l-20 20h-95l-20 21v195l20 20h95l20 20v62q0 187 98.5 277t313.5 90h96zM1129 326q0 -42 18.5 -64t71.5 -22h78l20 -21v-209
l-20 -20h-158q-139 0 -220 92.5t-81 247.5v1122l20 21h250l21 -21v-1126z" />
    <glyph glyph-name="acute.uc" horiz-adv-x="621" 
d="M82 1528l-21 22l252 297h242l20 -43l-342 -276h-151z" />
    <glyph glyph-name="grave.uc" horiz-adv-x="621" 
d="M403 1528l-342 276l21 43h242l251 -297l-20 -22h-152z" />
    <glyph glyph-name="circumflex.uc" horiz-adv-x="745" 
d="M743 1548l-20 -20h-143l-205 182l-211 -182h-144l-20 20l240 293l20 19h227l21 -19z" />
    <glyph glyph-name="breve.uc" horiz-adv-x="584" 
d="M293 1520q-145 0 -240 85.5t-104 219.5l20 20h131l21 -20q9 -61 57.5 -102.5t118.5 -41.5q69 0 115.5 41t56.5 103l20 20h129l21 -20q-17 -144 -108.5 -224.5t-237.5 -80.5z" />
    <glyph glyph-name="caron.uc" horiz-adv-x="745" 
d="M487 1528h-227l-20 18l-240 293l20 21h144l211 -183l205 183h143l20 -21l-235 -293z" />
    <glyph glyph-name="tilde.uc" horiz-adv-x="764" 
d="M526 1696q83 0 88 102l21 21h117l20 -21q-8 -146 -65.5 -211t-157.5 -65q-44 0 -87 19t-83.5 42.5t-76.5 42.5t-66 19q-27 0 -44.5 -9.5t-27.5 -27t-17 -66.5l-24 -20h-117l-18 20q8 102 32.5 156.5t70.5 87.5t122 33q46 0 90 -19t84.5 -42.5l75.5 -42.5t63 -19z" />
    <glyph glyph-name="ring.uc" horiz-adv-x="584" 
d="M37 1755q0 108 75 183t181 75t181 -75t75 -183q0 -106 -75.5 -180t-180.5 -74t-180.5 74t-75.5 180zM154 1755q0 -57 39.5 -97t99.5 -40t99.5 41t39.5 96q0 58 -40 99.5t-99 41.5q-58 0 -98.5 -40.5t-40.5 -100.5z" />
    <glyph glyph-name="dieresis.uc" horiz-adv-x="715" 
d="M47 1530l-20 20v181l20 20h180l21 -20v-181l-21 -20h-180zM487 1530l-20 20v181l20 20h181l20 -20v-181l-20 -20h-181z" />
    </font>
</defs>
</svg>
